<svg width="414" height="72" viewBox="0 0 414 72" fill="none" xmlns="http://www.w3.org/2000/svg">
<path d="M26.184 40.632C26.184 41.544 25.776 42.312 24.96 42.936C24.912 42.984 24.24 43.536 22.944 44.592C21.648 45.6 20.784 46.248 20.352 46.536C19.968 46.824 19.104 47.376 17.76 48.192C16.464 49.008 15.36 49.584 14.448 49.92C13.584 50.208 12.456 50.52 11.064 50.856C9.72 51.144 8.376 51.288 7.032 51.288C4.584 51.288 2.88 50.448 1.92 48.768C0.912 47.088 0.408 44.544 0.408 41.136C0.408 38.88 1.488 36.48 3.648 33.936C5.808 31.344 8.28 29.256 11.064 27.672C13.848 26.04 16.176 25.224 18.048 25.224C19.776 25.224 21.24 25.56 22.44 26.232C23.688 26.904 24.312 28.008 24.312 29.544C24.312 30.072 23.76 31.464 22.656 33.72C21.552 35.928 20.592 37.032 19.776 37.032C17.952 37.032 17.04 36.48 17.04 35.376V35.088C17.088 34.656 17.472 33.816 18.192 32.568C18.912 31.32 19.272 30.456 19.272 29.976C19.272 29.544 18.768 29.328 17.76 29.328C16.032 29.328 13.488 30.768 10.128 33.648C6.816 36.528 5.16 39.504 5.16 42.576C5.16 44.016 5.4 45.096 5.88 45.816C6.408 46.536 7.392 46.896 8.832 46.896C10.656 46.896 12.816 46.2 15.312 44.808C17.808 43.368 19.92 41.952 21.648 40.56C23.424 39.12 24.336 38.4 24.384 38.4C24.912 38.4 25.344 38.688 25.68 39.264C26.016 39.792 26.184 40.248 26.184 40.632ZM72.1279 41.136C72.1279 41.712 71.9599 42.264 71.6239 42.792C71.3359 43.272 71.0959 43.584 70.9039 43.728C61.0639 51.072 55.4479 55.824 54.0559 57.984C53.9599 58.128 53.8399 58.32 53.6959 58.56C53.5999 58.8 53.4799 59.016 53.3359 59.208L49.3759 67.416C48.6559 68.904 47.9839 69.96 47.3599 70.584C46.7839 71.208 45.9679 71.52 44.9119 71.52C43.7599 71.52 43.0159 71.256 42.6799 70.728C42.3439 70.248 42.1759 69.456 42.1759 68.352C42.1759 66.528 43.1359 64.032 45.0559 60.864C46.9759 57.696 48.7759 55.296 50.4559 53.664C50.7919 53.328 52.7599 49.2 56.3599 41.28C48.7759 48.528 43.4239 52.152 40.3039 52.152C38.8159 52.152 38.0719 51.36 38.0719 49.776C38.0719 48.72 38.9599 46.464 40.7359 43.008C39.6319 43.824 39.0079 44.232 38.8639 44.232C38.3839 44.232 37.9759 43.944 37.6399 43.368C37.2559 42.744 37.0639 42.216 37.0639 41.784C37.0639 41.448 37.4719 40.848 38.2879 39.984C39.1039 39.12 40.2559 37.944 41.7439 36.456C43.2799 34.968 44.5759 33.624 45.6319 32.424C46.0639 31.944 46.6639 30.912 47.4319 29.328C48.1999 27.696 48.8239 26.568 49.3039 25.944H54.0559C53.8639 27.096 53.3119 28.632 52.3999 30.552L46.2799 43.152C46.2319 43.248 46.0639 43.56 45.7759 44.088C45.4879 44.616 45.2959 45 45.1999 45.24C47.1199 43.896 50.3359 40.944 54.8479 36.384C59.3599 31.776 62.1919 28.656 63.3439 27.024C63.8719 26.304 64.5439 25.944 65.3599 25.944C67.0879 25.944 68.1919 26.472 68.6719 27.528L59.2399 47.184L67.8799 40.344C69.2239 39.24 70.1599 38.688 70.6879 38.688C71.0239 38.688 71.3359 38.976 71.6239 39.552C71.9599 40.128 72.1279 40.656 72.1279 41.136ZM104.658 39.84V40.272C104.658 41.424 104.226 42.408 103.362 43.224C101.97 44.472 99.5458 46.128 96.0898 48.192C92.6338 50.256 90.2098 51.288 88.8178 51.288C86.6578 51.288 85.5778 50.304 85.5778 48.336C85.5778 47.904 86.0818 46.68 87.0898 44.664C88.0978 42.648 89.2978 40.32 90.6898 37.68C92.1298 34.992 93.0418 33.264 93.4258 32.496C89.9698 35.04 86.5618 37.92 83.2018 41.136L76.4338 47.616C73.8418 50.064 72.1378 51.288 71.3218 51.288C70.7938 51.288 70.2658 51.096 69.7378 50.712C69.1618 50.28 68.8738 49.8 68.8738 49.272V49.128C68.9698 48.408 69.9058 46.2 71.6818 42.504L70.1698 43.656C68.9698 43.656 68.3698 42.816 68.3698 41.136C68.3698 40.704 69.6418 39.36 72.1858 37.104C74.6818 34.848 76.1938 33.192 76.7218 32.136C78.1138 29.256 79.0978 27.528 79.6738 26.952C80.3938 26.232 81.2338 25.872 82.1938 25.872C83.7298 26.256 84.4978 26.808 84.4978 27.528C84.4978 27.672 84.2098 28.392 83.6338 29.688L79.0258 38.976C82.7218 35.616 86.4178 32.52 90.1138 29.688C93.8578 26.856 96.4258 25.44 97.8178 25.44C99.7378 25.44 100.698 26.28 100.698 27.96C100.698 28.152 100.146 29.376 99.0418 31.632C97.9858 33.84 96.6898 36.528 95.1538 39.696C93.6178 42.816 92.6098 44.856 92.1298 45.816C93.4738 45.144 95.3458 43.896 97.7458 42.072C100.146 40.248 101.658 39.024 102.282 38.4C102.33 38.352 102.498 38.328 102.786 38.328C104.034 38.328 104.658 38.832 104.658 39.84ZM120.008 32.712C119.528 32.712 119.096 33.288 118.712 34.44C118.376 35.544 118.208 36.6 118.208 37.608C118.208 37.944 118.232 38.208 118.28 38.4C119.432 35.904 120.008 34.008 120.008 32.712ZM129.08 40.416C129.08 41.664 128.312 42.792 126.776 43.8C124.76 45.24 122.624 45.96 120.368 45.96C119.744 45.96 119.144 45.888 118.568 45.744C117.128 47.232 115.424 48.528 113.456 49.632C111.488 50.736 109.616 51.288 107.84 51.288C106.352 51.288 105.128 51 104.168 50.424C103.208 49.848 102.536 49.008 102.152 47.904C101.72 46.8 101.432 45.72 101.288 44.664C101.144 43.608 101.072 42.312 101.072 40.776C101.072 38.664 101.72 36.552 103.016 34.44C104.264 32.328 105.752 30.576 107.48 29.184C109.256 27.744 111.032 26.592 112.808 25.728C114.632 24.816 116.096 24.36 117.2 24.36C118.112 24.36 118.736 24.528 119.072 24.864C119.456 25.2 119.648 25.752 119.648 26.52C119.648 27.192 119.36 27.72 118.784 28.104C118.256 28.44 117.032 28.944 115.112 29.616C112.856 30.384 110.792 31.92 108.92 34.224C107.048 36.48 106.112 38.832 106.112 41.28V41.712C106.112 42.864 106.136 43.752 106.184 44.376C106.28 44.952 106.544 45.504 106.976 46.032C107.408 46.56 108.032 46.824 108.848 46.824C110.768 46.824 112.76 45.576 114.824 43.08C113.912 41.832 113.456 40.344 113.456 38.616C113.456 36.216 114.2 33.816 115.688 31.416C117.176 29.016 118.928 27.816 120.944 27.816C122.144 27.816 123.032 28.272 123.608 29.184C124.184 30.048 124.472 31.08 124.472 32.28C124.472 35.496 123.56 38.568 121.736 41.496C122.36 41.4 122.984 41.16 123.608 40.776C124.232 40.392 124.928 39.888 125.696 39.264C126.512 38.64 127.184 38.184 127.712 37.896C128.624 38.52 129.08 39.36 129.08 40.416ZM151.951 31.776C151.951 30.432 151.447 29.76 150.439 29.76C148.519 29.76 146.047 31.512 143.023 35.016C139.999 38.52 137.815 41.784 136.471 44.808C136.087 45.528 135.727 46.392 135.391 47.4C136.495 46.824 137.671 46.536 138.919 46.536C139.159 46.536 139.495 46.584 139.927 46.68C140.407 46.728 140.743 46.752 140.935 46.752H141.367C142.279 46.752 142.903 46.536 143.239 46.104C143.335 46.008 143.767 45.576 144.535 44.808C145.303 43.992 145.759 43.512 145.903 43.368C146.047 43.176 146.455 42.72 147.127 42C147.799 41.232 148.231 40.704 148.423 40.416C148.663 40.08 149.023 39.576 149.503 38.904C150.031 38.184 150.391 37.608 150.583 37.176C150.775 36.696 150.991 36.144 151.231 35.52C151.519 34.896 151.711 34.272 151.807 33.648C151.903 33.024 151.951 32.4 151.951 31.776ZM163.831 40.92C163.831 42.024 162.679 43.536 160.375 45.456C158.263 47.088 155.815 48.384 153.031 49.344C150.295 50.304 147.583 50.784 144.895 50.784C144.703 50.784 144.271 50.928 143.599 51.216C142.543 51.84 141.391 52.152 140.143 52.152C138.943 52.152 137.815 51.912 136.759 51.432C135.703 50.952 135.031 50.304 134.743 49.488C132.871 55.44 131.551 61.128 130.783 66.552C130.687 67.416 130.255 68.472 129.487 69.72C128.719 70.968 127.903 71.592 127.039 71.592C126.319 71.592 125.815 71.208 125.527 70.44C125.191 69.672 125.023 68.928 125.023 68.208C125.023 65.808 125.863 61.656 127.543 55.752C129.223 49.848 130.927 44.64 132.655 40.128C129.823 42.768 128.239 44.088 127.903 44.088C126.607 44.088 125.959 43.368 125.959 41.928C125.959 40.824 126.583 39.768 127.831 38.76C133.639 34.056 137.047 30.408 138.055 27.816C138.391 26.952 138.727 26.424 139.063 26.232C139.399 25.992 140.023 25.872 140.935 25.872C141.895 25.872 142.807 26.136 143.671 26.664L142.951 28.896C145.831 26.448 148.327 25.224 150.439 25.224C152.935 25.224 154.711 25.776 155.767 26.88C156.871 27.936 157.423 29.616 157.423 31.92C157.423 36.24 155.287 40.752 151.015 45.456C152.599 45.024 154.231 44.256 155.911 43.152C157.639 42 159.007 40.992 160.015 40.128C161.023 39.216 161.551 38.76 161.599 38.76C162.031 38.76 162.511 39.024 163.039 39.552C163.567 40.08 163.831 40.536 163.831 40.92ZM179.422 32.712C178.942 32.712 178.51 33.288 178.126 34.44C177.79 35.544 177.622 36.6 177.622 37.608C177.622 37.944 177.646 38.208 177.694 38.4C178.846 35.904 179.422 34.008 179.422 32.712ZM188.494 40.416C188.494 41.664 187.726 42.792 186.19 43.8C184.174 45.24 182.038 45.96 179.782 45.96C179.158 45.96 178.558 45.888 177.982 45.744C176.542 47.232 174.838 48.528 172.87 49.632C170.902 50.736 169.03 51.288 167.254 51.288C165.766 51.288 164.542 51 163.582 50.424C162.622 49.848 161.95 49.008 161.566 47.904C161.134 46.8 160.846 45.72 160.702 44.664C160.558 43.608 160.486 42.312 160.486 40.776C160.486 38.664 161.134 36.552 162.43 34.44C163.678 32.328 165.166 30.576 166.894 29.184C168.67 27.744 170.446 26.592 172.222 25.728C174.046 24.816 175.51 24.36 176.614 24.36C177.526 24.36 178.15 24.528 178.486 24.864C178.87 25.2 179.062 25.752 179.062 26.52C179.062 27.192 178.774 27.72 178.198 28.104C177.67 28.44 176.446 28.944 174.526 29.616C172.27 30.384 170.206 31.92 168.334 34.224C166.462 36.48 165.526 38.832 165.526 41.28V41.712C165.526 42.864 165.55 43.752 165.598 44.376C165.694 44.952 165.958 45.504 166.39 46.032C166.822 46.56 167.446 46.824 168.262 46.824C170.182 46.824 172.174 45.576 174.238 43.08C173.326 41.832 172.87 40.344 172.87 38.616C172.87 36.216 173.614 33.816 175.102 31.416C176.59 29.016 178.342 27.816 180.358 27.816C181.558 27.816 182.446 28.272 183.022 29.184C183.598 30.048 183.886 31.08 183.886 32.28C183.886 35.496 182.974 38.568 181.15 41.496C181.774 41.4 182.398 41.16 183.022 40.776C183.646 40.392 184.342 39.888 185.11 39.264C185.926 38.64 186.598 38.184 187.126 37.896C188.038 38.52 188.494 39.36 188.494 40.416ZM233.469 39.696V40.056C233.469 41.304 233.037 42.312 232.173 43.08C230.733 44.376 228.285 46.08 224.829 48.192C221.421 50.256 219.021 51.288 217.629 51.288C215.229 51.288 214.029 50.424 214.029 48.696C214.029 47.976 215.349 45.072 217.989 39.984C210.069 47.52 204.789 51.288 202.149 51.288C201.429 51.288 200.781 51 200.205 50.424C199.629 49.848 199.341 49.32 199.341 48.84V48.696C199.341 47.928 200.397 45.528 202.509 41.496C196.653 47.88 192.165 51.072 189.045 51.072C187.221 51.072 185.901 50.424 185.085 49.128C184.221 47.832 183.789 46.344 183.789 44.664C183.789 44.28 183.837 43.8 183.933 43.224C184.125 41.976 184.557 40.8 185.229 39.696C185.901 38.592 186.789 38.04 187.893 38.04H188.325C190.005 38.232 190.845 39.144 190.845 40.776C190.845 40.872 190.821 40.968 190.773 41.064C190.773 41.16 190.773 41.256 190.773 41.352C190.629 41.928 190.245 42.528 189.621 43.152C189.045 43.776 188.733 44.232 188.685 44.52C188.685 44.568 188.685 44.688 188.685 44.88C188.637 45.024 188.613 45.144 188.613 45.24C188.613 46.056 189.021 46.464 189.837 46.464C190.365 46.464 191.037 46.176 191.853 45.6C192.717 44.976 193.773 44.016 195.021 42.72C196.317 41.424 197.541 40.152 198.693 38.904C199.893 37.656 201.453 35.976 203.373 33.864C205.293 31.752 206.949 29.976 208.341 28.536C209.973 26.712 211.077 25.8 211.653 25.8C212.805 25.8 214.077 25.92 215.469 26.16C215.181 27.024 214.413 28.704 213.165 31.2C211.965 33.648 210.573 36.384 208.989 39.408C207.405 42.432 206.493 44.184 206.253 44.664C209.325 42.504 214.917 37.128 223.029 28.536C224.661 26.712 225.765 25.8 226.341 25.8C227.493 25.8 228.765 25.92 230.157 26.16C229.581 27.888 229.005 29.304 228.429 30.408L220.653 45.6L220.437 45.96C221.637 45.48 223.533 44.28 226.125 42.36C228.717 40.392 230.373 39.048 231.093 38.328C231.189 38.232 231.381 38.184 231.669 38.184C232.869 38.184 233.469 38.688 233.469 39.696ZM281.638 39.696V40.056C281.638 41.304 281.206 42.312 280.342 43.08C278.902 44.376 276.454 46.08 272.998 48.192C269.59 50.256 267.19 51.288 265.798 51.288C263.398 51.288 262.198 50.424 262.198 48.696C262.198 47.784 263.446 44.928 265.942 40.128H255.214L253.27 43.944C250.774 48.84 249.07 51.288 248.158 51.288C247.63 51.288 247.102 51.096 246.574 50.712C245.998 50.28 245.71 49.8 245.71 49.272V49.128C245.806 48.408 246.742 46.2 248.518 42.504L247.006 43.656C245.806 43.656 245.206 42.816 245.206 41.136C245.206 40.704 246.478 39.36 249.022 37.104C251.518 34.848 253.03 33.192 253.558 32.136C254.95 29.256 255.934 27.528 256.51 26.952C257.23 26.232 258.07 25.872 259.03 25.872C260.566 26.256 261.334 26.808 261.334 27.528C261.334 27.816 261.046 28.536 260.47 29.688L257.446 35.736H268.246C268.294 35.592 268.366 35.424 268.462 35.232C268.606 34.992 268.678 34.848 268.678 34.8L272.638 26.808C272.878 26.136 273.502 25.8 274.51 25.8C275.662 25.8 276.934 25.92 278.326 26.16C277.75 27.888 277.174 29.304 276.598 30.408L268.822 45.6L268.606 45.96C269.806 45.48 271.702 44.28 274.294 42.36C276.886 40.392 278.542 39.048 279.262 38.328C279.358 38.232 279.55 38.184 279.838 38.184C281.038 38.184 281.638 38.688 281.638 39.696ZM310.966 40.776C310.966 41.88 308.686 43.92 304.126 46.896C299.566 49.824 296.518 51.288 294.982 51.288C292.726 51.288 291.598 50.4 291.598 48.624C291.598 48.384 291.622 48.192 291.67 48.048C289.318 50.208 287.134 51.288 285.118 51.288C282.382 51.288 280.534 50.52 279.574 48.984C278.566 47.4 278.062 44.688 278.062 40.848C278.062 38.16 279.406 35.568 282.094 33.072C284.83 30.576 287.902 28.656 291.31 27.312C294.718 25.92 297.718 25.224 300.31 25.224C301.606 25.224 303.07 25.488 304.702 26.016C306.382 26.496 307.318 27.12 307.51 27.888V28.032C307.51 28.464 307.222 29.064 306.646 29.832C306.118 30.552 305.686 30.912 305.35 30.912C305.254 30.912 305.038 30.792 304.702 30.552C304.414 30.264 303.862 30 303.046 29.76C302.278 29.472 301.318 29.328 300.166 29.328C296.902 29.328 293.23 30.672 289.15 33.36C285.118 36 283.102 38.76 283.102 41.64C283.102 41.832 283.078 42.144 283.03 42.576C283.03 43.008 283.03 43.344 283.03 43.584C283.03 45.6 283.702 46.608 285.046 46.608C286.678 46.608 289.078 44.832 292.246 41.28C295.462 37.68 297.67 34.872 298.87 32.856C299.302 32.04 299.734 31.488 300.166 31.2C300.598 30.912 301.27 30.768 302.182 30.768C302.422 30.768 302.926 30.936 303.694 31.272C304.51 31.56 304.918 31.824 304.918 32.064C304.918 32.256 302.686 36.744 298.222 45.528C298.942 45.24 299.662 44.904 300.382 44.52C301.102 44.136 301.87 43.632 302.686 43.008C303.55 42.384 304.174 41.928 304.558 41.64C304.942 41.352 305.662 40.752 306.718 39.84C307.822 38.928 308.47 38.4 308.662 38.256H308.878C309.502 38.256 310.006 38.568 310.39 39.192C310.774 39.768 310.966 40.296 310.966 40.776ZM376.759 10.032C376.759 10.656 376.159 11.952 374.959 13.92C373.135 17.136 371.719 19.704 370.711 21.624C369.751 23.496 368.359 26.328 366.535 30.12C364.711 33.912 363.319 37.392 362.359 40.56C361.447 43.68 360.991 46.416 360.991 48.768C360.991 49.968 360.199 50.688 358.615 50.928L355.231 51.432C355.327 45.096 357.127 38.232 360.631 30.84L361.783 28.392C347.095 43.512 337.951 51.072 334.351 51.072C332.047 51.072 330.895 50.136 330.895 48.264C330.895 46.248 332.359 42.312 335.287 36.456C338.215 30.6 341.143 24.72 344.071 18.816C346.999 12.912 348.463 8.88 348.463 6.72C348.463 5.952 348.151 5.568 347.527 5.568C345.847 5.568 343.951 6.768 341.839 9.168C339.727 11.52 337.927 14.184 336.439 17.16C334.951 20.136 334.039 22.608 333.703 24.576C333.511 25.632 332.935 26.472 331.975 27.096C331.063 27.72 330.199 28.032 329.383 28.032C328.903 28.032 328.519 27.816 328.231 27.384C327.943 26.952 327.799 26.448 327.799 25.872C327.799 24.384 328.423 22.248 329.671 19.464C330.919 16.68 332.479 13.896 334.351 11.112C336.223 8.328 338.407 5.904 340.903 3.84C343.399 1.776 345.703 0.743999 347.815 0.743999C349.687 0.743999 351.175 1.248 352.279 2.256C353.383 3.216 353.935 4.608 353.935 6.432C353.935 9.264 351.415 15.552 346.375 25.296C341.383 34.992 338.407 41.376 337.447 44.448C338.791 43.536 340.183 42.48 341.623 41.28C343.063 40.08 344.599 38.736 346.231 37.248C347.863 35.712 349.183 34.44 350.191 33.432C351.247 32.424 352.663 31.008 354.439 29.184C356.215 27.36 357.367 26.184 357.895 25.656L366.103 17.376C368.503 14.976 370.303 12.552 371.503 10.104C372.175 8.808 373.255 8.16 374.743 8.16C375.511 8.16 376.039 8.304 376.327 8.592C376.615 8.832 376.759 9.312 376.759 10.032ZM413.358 3.336C413.502 4.2 413.574 4.968 413.574 5.64C413.574 7.416 412.83 8.76 411.342 9.672C409.23 10.968 405.966 13.992 401.55 18.744C397.182 23.448 394.998 26.064 394.998 26.592C394.998 34.656 395.886 41.184 397.662 46.176C397.806 46.656 397.998 47.16 398.238 47.688C398.478 48.216 398.646 48.624 398.742 48.912C398.886 49.2 398.958 49.392 398.958 49.488C398.958 50.496 397.902 51 395.79 51C394.734 51 393.99 50.832 393.558 50.496C393.174 50.112 392.766 49.152 392.334 47.616C390.894 42.864 390.03 37.776 389.742 32.352C389.214 32.976 388.038 34.296 386.214 36.312C384.438 38.328 383.118 39.816 382.254 40.776C381.438 41.688 380.286 42.888 378.798 44.376C377.31 45.864 375.918 47.184 374.622 48.336C374.382 48.576 373.998 48.96 373.47 49.488C372.942 49.968 372.534 50.328 372.246 50.568C372.006 50.76 371.598 50.952 371.022 51.144C370.494 51.384 369.918 51.504 369.294 51.504H368.79L362.814 51.072C365.838 49.008 368.742 46.752 371.526 44.304C374.358 41.808 376.566 39.72 378.15 38.04C379.782 36.36 381.846 34.128 384.342 31.344C384.39 31.248 384.894 30.72 385.854 29.76C386.862 28.8 387.798 27.864 388.662 26.952C389.526 26.04 389.958 25.512 389.958 25.368L389.814 6.504C389.814 6.456 389.886 6.312 390.03 6.072C390.174 5.832 390.246 5.664 390.246 5.568C390.246 5.52 390.222 5.496 390.174 5.496C389.022 5.496 386.43 8.304 382.398 13.92C381.774 14.832 381.198 15.288 380.67 15.288C380.238 15.288 379.806 14.808 379.374 13.848C378.942 12.888 378.726 12.192 378.726 11.76C378.726 11.232 379.374 10.104 380.67 8.376C382.014 6.6 383.694 4.872 385.71 3.192C387.726 1.512 389.454 0.671996 390.894 0.671996C392.238 0.671996 393.294 1.08 394.062 1.896C394.878 2.664 395.286 3.696 395.286 4.992V5.064L395.07 18.816C398.238 14.688 402.222 10.608 407.022 6.576C409.758 4.416 411.87 3.336 413.358 3.336Z" fill="#B38EFF"/>
</svg>
