<svg width="120" height="108" viewBox="0 0 120 108" fill="none" xmlns="http://www.w3.org/2000/svg">
<g clip-path="url(#clip0_3952_12676)">
<path d="M60 64.821C65.907 64.821 70.6956 60.0324 70.6956 54.1253C70.6956 48.2183 65.907 43.4297 60 43.4297C54.0929 43.4297 49.3043 48.2183 49.3043 54.1253C49.3043 60.0324 54.0929 64.821 60 64.821Z" fill="#61DAFB"/>
<path d="M60 76.038C91.6964 76.038 117.391 66.2272 117.391 54.125C117.391 42.0227 91.6964 32.2119 60 32.2119C28.3037 32.2119 2.6087 42.0227 2.6087 54.125C2.6087 66.2272 28.3037 76.038 60 76.038Z" stroke="#61DAFB" stroke-width="5"/>
<path d="M41.0228 65.0817C56.8709 92.5315 78.2148 109.879 88.6957 103.827C99.1765 97.7764 94.8254 70.6185 78.9773 43.1686C63.1291 15.7188 41.7852 -1.62829 31.3044 4.42283C20.8235 10.4739 25.1746 37.6318 41.0228 65.0817Z" stroke="#61DAFB" stroke-width="5"/>
<path d="M41.0228 43.1687C25.1746 70.6185 20.8235 97.7764 31.3044 103.828C41.7852 109.879 63.1291 92.5316 78.9773 65.0817C94.8254 37.6319 99.1765 10.474 88.6957 4.42287C78.2148 -1.62825 56.8709 15.7188 41.0228 43.1687Z" stroke="#61DAFB" stroke-width="5"/>
</g>
<defs>
<clipPath id="clip0_3952_12676">
<rect width="120" height="106.766" fill="white" transform="translate(0 0.742188)"/>
</clipPath>
</defs>
</svg>
