<svg width="46" height="63" viewBox="0 0 46 63" fill="none" xmlns="http://www.w3.org/2000/svg">
<path d="M14.8148 48.7526C14.8148 48.7526 12.4313 50.1386 16.511 50.6077C21.4534 51.1715 23.9795 51.0906 29.4261 50.0598C29.4261 50.0598 30.858 50.9577 32.8579 51.7353C20.648 56.9683 5.22462 51.4322 14.8148 48.7526Z" fill="#1D9EF4"/>
<path d="M13.3228 41.924C13.3228 41.924 10.6495 43.9028 14.7323 44.3251C20.0119 44.8697 24.1814 44.9143 31.3961 43.525C31.3961 43.525 32.394 44.5367 33.9632 45.09C19.2008 49.4067 2.75812 45.4304 13.3228 41.924Z" fill="#1D9EF4"/>
<path d="M25.9007 30.3404C28.9092 33.8041 25.1102 36.921 25.1102 36.921C25.1102 36.921 32.7493 32.9775 29.241 28.0393C25.9644 23.4341 23.4516 21.1459 37.0546 13.2567C37.0546 13.2567 15.7025 18.5895 25.9007 30.3404Z" fill="#FF534B"/>
<path d="M42.0491 53.8034C42.0491 53.8034 43.8129 55.2567 40.1066 56.381C33.0589 58.516 10.7734 59.1607 4.58263 56.4661C2.3572 55.498 6.53052 54.1544 7.84329 53.8725C9.21238 53.5756 9.99476 53.6309 9.99476 53.6309C7.51985 51.8875 -6.00207 57.0543 3.1263 58.534C28.0207 62.5712 48.5064 56.7161 42.0491 53.8034Z" fill="#1D9EF4"/>
<path d="M15.961 34.8487C15.961 34.8487 4.62515 37.5411 11.9467 38.5188C15.038 38.9327 21.2006 38.8391 26.9409 38.3581C31.6322 37.9624 36.3428 37.121 36.3428 37.121C36.3428 37.121 34.6886 37.8294 33.4918 38.6466C21.9805 41.6741 -0.257268 40.2657 6.14469 37.1689C11.5588 34.5518 15.961 34.8487 15.961 34.8487Z" fill="#1D9EF4"/>
<path d="M36.2961 46.2154C47.9979 40.1347 42.5874 34.2912 38.811 35.0784C37.8854 35.2711 37.4727 35.438 37.4727 35.438C37.4727 35.438 37.8163 34.8997 38.4726 34.6667C45.9436 32.0402 51.6892 42.4134 36.0609 46.5218C36.0609 46.5218 36.242 46.3601 36.2961 46.2154Z" fill="#1D9EF4"/>
<path d="M29.2409 0.5177C29.2409 0.5177 35.7216 7.00052 23.0943 16.9693C12.9686 24.9659 20.7853 29.5254 23.0901 34.7348C17.1796 29.402 12.842 24.7075 15.752 20.3384C20.0231 13.9248 31.8557 10.8153 29.2409 0.5177Z" fill="#FF534B"/>
<path d="M17.1108 62.6925C28.3431 63.4115 45.5915 62.2936 46 56.9788C46 56.9788 45.2148 58.9936 36.7171 60.5936C27.1302 62.3978 15.306 62.1871 8.29297 61.0309C8.29297 61.0309 9.72863 62.2191 17.1108 62.6925Z" fill="#1D9EF4"/>
</svg>
