<svg width="454" height="72" viewBox="0 0 454 72" fill="none" xmlns="http://www.w3.org/2000/svg">
<path d="M45.44 10.032C45.44 10.608 44.216 12.984 43.64 13.92C42.632 15.72 41.408 18.024 40.112 20.472C41.12 20.112 42.2 19.824 44.288 19.032C44.576 19.896 44.72 20.76 44.72 21.48C44.72 22.848 44.216 23.856 43.064 24.36C41.408 25.08 40.328 25.512 37.088 26.664C33.344 34.08 29.672 42.72 29.672 48.768C29.672 50.136 28.592 50.712 27.296 50.928L23.912 51.432C24.056 43.44 26.936 36.024 29.312 30.768C29.312 30.768 29.816 30.048 30.464 28.824C24.632 30.552 18.656 32.136 15.488 32.136C13.616 32.136 12.032 31.344 12.032 29.256C12.032 24.792 20.744 13.776 20.744 6.72C20.744 5.856 20.312 5.568 19.808 5.568C14.408 5.568 6.92 18.816 5.984 24.576C5.552 26.952 3.032 28.032 1.664 28.032C0.584 28.032 0.08 26.88 0.08 25.872C0.08 19.968 11.024 0.743999 20.096 0.743999C23.768 0.743999 26.216 2.76 26.216 6.432C26.216 11.184 20.6 21.264 18.44 26.736C23.192 26.088 28.088 24.576 33.56 22.848C36.152 17.592 39.392 11.616 40.184 10.104C40.832 8.808 42.416 8.16 43.424 8.16C45.008 8.16 45.44 8.664 45.44 10.032ZM87.3676 39.984C87.3676 41.208 87.3676 41.856 85.9996 43.224C84.4156 44.808 74.6956 51.288 71.5276 51.288C69.2956 51.288 68.2876 50.712 68.2876 48.48C68.2876 47.76 70.0876 43.872 72.2476 39.912C73.3996 37.68 74.5516 35.448 75.4156 33.72C70.6636 37.824 62.5996 46.608 59.2156 49.848C58.4956 50.424 57.4876 51.288 56.4076 51.288C54.6076 51.288 53.9596 50.64 53.9596 49.056C53.9596 47.832 55.8316 43.8 57.9196 39.768C58.9996 37.608 60.0796 35.52 60.9436 33.936C54.8236 39.264 44.2396 51.288 42.2236 51.288C41.2156 51.288 39.7756 50.424 39.7756 49.272C39.7756 49.272 39.7756 49.2 39.7756 49.128C39.9196 47.904 41.3596 45.024 42.5836 42.504C41.7916 43.152 41.0716 43.656 41.0716 43.656C40.1356 43.656 39.1996 43.368 39.1996 41.136C39.1996 39.696 46.1116 35.232 47.6236 32.136C49.3516 28.536 50.2876 25.872 53.0236 25.872C54.3196 25.872 55.3996 26.448 55.3996 27.528C55.3996 28.104 54.8236 29.04 54.5356 29.688L50.5756 37.536C55.5436 32.712 63.6076 25.44 66.3436 25.44C68.2876 25.44 69.0796 25.656 69.2956 27.6C69.2956 27.6 69.2956 27.6 69.2956 27.672C69.2956 28.536 66.4876 34.008 64.3996 37.896C69.0796 33.288 77.4316 25.44 80.5276 25.44C82.6156 25.44 83.4076 26.664 83.4076 28.032C83.4076 28.32 81.5356 32.496 79.3036 36.96C77.6476 40.344 75.7756 44.016 74.9116 45.96C77.9356 44.376 84.4156 39.12 84.9916 38.544C85.0636 38.472 85.2796 38.472 85.4956 38.472C86.2156 38.472 87.3676 38.76 87.3676 39.984ZM103 32.712C101.92 32.712 101.2 35.88 101.2 37.608C101.2 37.896 101.2 38.112 101.272 38.4C102.136 36.528 103 34.296 103 32.712ZM112.072 40.416C112.072 41.496 111.28 42.792 109.768 43.8C107.968 45.096 105.736 45.96 103.36 45.96C102.712 45.96 102.136 45.888 101.56 45.744C98.9681 48.408 94.6481 51.288 90.8321 51.288C84.6401 51.288 84.0641 45.96 84.0641 40.776C84.0641 31.704 95.8721 24.36 100.192 24.36C102.136 24.36 102.64 25.08 102.64 26.52C102.64 27.888 101.776 28.32 98.1041 29.616C93.9281 31.056 89.1041 36.096 89.1041 41.28C89.1041 41.424 89.1041 41.568 89.1041 41.712C89.1041 44.448 89.1761 46.824 91.8401 46.824C94.0001 46.824 96.4481 44.736 97.8161 43.08C96.8801 41.784 96.4481 40.2 96.4481 38.616C96.4481 34.224 99.6161 27.816 103.936 27.816C106.6 27.816 107.464 30.192 107.464 32.28C107.464 35.952 106.168 39.192 104.728 41.496C106.816 41.136 108.472 39.192 110.704 37.896C111.784 38.616 112.072 39.696 112.072 40.416ZM154.216 41.28C154.216 42.576 142.912 49.848 138.592 49.848C138.016 49.848 136.432 51.288 132.688 51.288C131.032 51.288 125.704 50.352 125.704 48.192C125.704 47.184 126.568 46.464 127.648 46.176C129.016 46.248 130.6 46.608 132.544 46.608C135.136 46.608 139.528 44.16 141.256 41.712H136.36C134.488 41.712 133.624 40.92 133.624 39.696C133.624 38.616 134.632 37.32 136 37.32H144.136C144.928 35.52 145.36 33.648 145.36 31.56C145.36 30.48 145.144 29.544 143.848 29.544C138.88 29.544 129.016 43.512 126.712 43.512C126.064 43.512 124.624 42.432 124.624 41.064C124.624 40.488 126.352 38.544 126.784 38.112C134.488 30.912 139.312 25.224 143.848 25.224C148.888 25.224 150.832 27.312 150.832 31.704C150.832 35.232 149.464 38.976 147.664 41.856C150.544 40.056 152.776 38.184 152.776 38.184C153.352 38.184 154.216 38.976 154.216 41.28ZM198.743 39.984C198.743 41.208 198.743 41.856 197.375 43.224C195.791 44.808 186.071 51.288 182.903 51.288C180.671 51.288 179.663 50.712 179.663 48.48C179.663 47.76 181.463 43.872 183.623 39.912C184.775 37.68 185.927 35.448 186.791 33.72C182.039 37.824 173.975 46.608 170.591 49.848C169.871 50.424 168.863 51.288 167.783 51.288C165.983 51.288 165.335 50.64 165.335 49.056C165.335 47.832 167.207 43.8 169.295 39.768C170.375 37.608 171.455 35.52 172.319 33.936C166.199 39.264 155.615 51.288 153.599 51.288C152.591 51.288 151.151 50.424 151.151 49.272C151.151 49.272 151.151 49.2 151.151 49.128C151.295 47.904 152.735 45.024 153.959 42.504C153.167 43.152 152.447 43.656 152.447 43.656C151.511 43.656 150.575 43.368 150.575 41.136C150.575 39.696 157.487 35.232 158.999 32.136C160.727 28.536 161.663 25.872 164.399 25.872C165.695 25.872 166.775 26.448 166.775 27.528C166.775 28.104 166.199 29.04 165.911 29.688L161.951 37.536C166.919 32.712 174.983 25.44 177.719 25.44C179.663 25.44 180.455 25.656 180.671 27.6C180.671 27.6 180.671 27.6 180.671 27.672C180.671 28.536 177.863 34.008 175.775 37.896C180.455 33.288 188.807 25.44 191.903 25.44C193.991 25.44 194.783 26.664 194.783 28.032C194.783 28.32 192.911 32.496 190.679 36.96C189.023 40.344 187.151 44.016 186.287 45.96C189.311 44.376 195.791 39.12 196.367 38.544C196.439 38.472 196.655 38.472 196.871 38.472C197.591 38.472 198.743 38.76 198.743 39.984ZM214.375 32.712C213.295 32.712 212.575 35.88 212.575 37.608C212.575 37.896 212.575 38.112 212.647 38.4C213.511 36.528 214.375 34.296 214.375 32.712ZM223.447 40.416C223.447 41.496 222.655 42.792 221.143 43.8C219.343 45.096 217.111 45.96 214.735 45.96C214.087 45.96 213.511 45.888 212.935 45.744C210.343 48.408 206.023 51.288 202.207 51.288C196.015 51.288 195.439 45.96 195.439 40.776C195.439 31.704 207.247 24.36 211.567 24.36C213.511 24.36 214.015 25.08 214.015 26.52C214.015 27.888 213.151 28.32 209.479 29.616C205.303 31.056 200.479 36.096 200.479 41.28C200.479 41.424 200.479 41.568 200.479 41.712C200.479 44.448 200.551 46.824 203.215 46.824C205.375 46.824 207.823 44.736 209.191 43.08C208.255 41.784 207.823 40.2 207.823 38.616C207.823 34.224 210.991 27.816 215.311 27.816C217.975 27.816 218.839 30.192 218.839 32.28C218.839 35.952 217.543 39.192 216.103 41.496C218.191 41.136 219.847 39.192 222.079 37.896C223.159 38.616 223.447 39.696 223.447 40.416ZM245.719 60.072C242.911 62.52 239.455 65.976 239.455 67.272V67.344C241.255 67.344 244.063 63.312 245.719 60.072ZM266.311 40.416C266.311 42.936 264.727 43.8 263.503 44.88C261.199 47.04 253.711 53.232 252.703 55.752C250.975 60.144 244.567 71.88 238.663 71.88C235.927 71.88 234.703 70.584 234.703 68.064C234.703 62.664 248.527 52.584 249.031 51.36C249.607 49.776 250.399 47.544 250.399 45.888C250.399 45.672 250.615 44.808 250.615 44.376C250.615 44.16 250.615 44.016 250.471 44.016C249.247 44.016 248.311 45.312 246.583 45.312C244.711 45.312 243.415 44.448 243.415 42.504C243.415 39.696 247.519 39.192 249.679 39.192C251.983 39.192 257.167 34.296 257.167 31.488C257.167 30.624 256.735 29.976 255.655 29.976C249.535 29.976 240.751 44.088 238.447 44.088C237.799 44.088 236.359 42.864 236.359 41.496C236.359 40.848 238.015 38.832 238.447 38.328C246.295 30.912 249.535 25.224 255.583 25.224C259.399 25.224 262.207 27.528 262.207 31.272C262.207 35.592 258.247 38.976 255.007 41.352C254.935 41.352 254.863 41.352 254.719 41.352C254.647 41.352 254.503 41.352 254.431 41.352C254.215 41.352 254.071 41.352 254.071 41.496C254.071 41.856 255.439 42.864 255.439 45.816V46.32L262.567 39.912C262.855 39.696 264.439 38.616 264.799 38.616C265.735 38.616 266.311 39.84 266.311 40.416ZM299.083 39.696C299.083 39.84 299.083 39.912 299.083 40.056C299.083 41.136 299.011 42 297.787 43.08C295.699 44.952 286.411 51.288 283.243 51.288C281.659 51.288 279.643 50.712 279.643 48.696C279.643 47.688 281.587 43.584 283.387 40.128H272.659L270.715 43.944C267.835 49.632 266.539 51.288 265.603 51.288C264.595 51.288 263.155 50.424 263.155 49.272C263.155 49.272 263.155 49.2 263.155 49.128C263.299 47.904 264.739 45.024 265.963 42.504C265.171 43.152 264.451 43.656 264.451 43.656C263.515 43.656 262.651 43.368 262.651 41.136C262.651 39.696 269.491 35.232 271.003 32.136C272.731 28.536 273.739 25.872 276.475 25.872C277.699 26.16 278.779 26.592 278.779 27.528C278.779 28.176 278.203 29.112 277.915 29.688L274.891 35.736H285.691C285.835 35.304 286.051 35.016 286.123 34.8L290.083 26.808C290.155 26.592 290.371 25.8 291.955 25.8C292.819 25.8 293.683 25.8 295.771 26.16C295.267 27.672 294.835 28.896 294.043 30.408L286.267 45.6L286.051 45.96C288.787 44.88 295.771 39.264 296.707 38.328C296.779 38.256 296.995 38.184 297.283 38.184C298.003 38.184 299.083 38.544 299.083 39.696ZM328.411 40.776C328.411 43.08 315.379 51.288 312.427 51.288C310.555 51.288 309.043 50.568 309.043 48.624C309.043 48.408 309.043 48.264 309.115 48.048C307.315 49.704 305.011 51.288 302.563 51.288C296.875 51.288 295.507 48.192 295.507 40.848C295.507 32.208 310.339 25.224 317.755 25.224C319.771 25.224 324.523 26.16 324.955 27.888C324.955 27.888 324.955 27.96 324.955 28.032C324.955 28.824 323.515 30.912 322.795 30.912C322.291 30.912 321.571 29.328 317.611 29.328C311.707 29.328 300.547 35.448 300.547 41.64C300.547 42.216 300.475 42.864 300.475 43.584C300.475 45.096 300.763 46.608 302.491 46.608C306.235 46.608 314.875 35.304 316.315 32.856C317.179 31.272 317.755 30.768 319.627 30.768C319.987 30.768 322.363 31.56 322.363 32.064C322.363 32.496 317.827 41.28 315.667 45.528C319.555 44.016 322.795 40.992 326.107 38.256C326.179 38.256 326.251 38.256 326.323 38.256C327.763 38.256 328.411 40.056 328.411 40.776ZM352.755 40.344C352.755 41.568 352.683 41.784 351.819 42.648C351.027 43.44 341.091 51.288 337.347 51.288C335.187 51.288 333.747 51.144 333.747 48.552C333.747 46.608 341.451 32.424 341.451 30.624C341.451 30.192 341.019 30.12 340.515 30.12C340.443 30.12 340.299 30.12 340.155 30.12C339.435 30.12 338.715 30.192 338.067 30.264C335.619 34.584 332.811 37.968 328.563 42C328.131 42.36 326.691 43.584 326.187 43.584C325.323 43.584 324.459 41.28 324.459 40.776C324.459 40.2 325.107 39.048 325.827 38.544C327.411 37.464 332.379 31.848 333.963 28.68C333.315 27.888 333.027 26.736 333.027 25.8C333.027 23.928 334.251 22.272 336.483 22.272C339.075 22.272 339.435 23.784 339.651 25.728C340.227 25.656 340.731 25.656 341.307 25.656C345.339 25.656 346.923 26.592 346.923 30.264C346.923 32.784 341.307 42.576 340.083 45.888C342.675 44.592 349.227 39.12 349.875 38.688C350.451 38.112 351.027 38.04 351.315 38.04C352.035 38.04 352.755 39.408 352.755 40.344ZM384.724 39.696C384.724 39.84 384.724 39.912 384.724 40.056C384.724 41.136 384.652 42 383.428 43.08C381.34 44.952 372.052 51.288 368.884 51.288C367.3 51.288 365.284 50.712 365.284 48.696C365.284 47.616 367.588 43.08 369.46 39.552C364.348 44.088 355.42 51.288 351.892 51.288C350.164 51.288 349.012 50.208 349.012 49.272C349.012 49.2 349.012 49.2 349.012 49.128C349.228 47.688 350.452 45.168 351.676 42.72C350.956 43.224 350.308 43.656 350.308 43.656C349.372 43.656 348.508 43.368 348.508 41.136C348.508 39.336 355.348 35.232 357.004 31.992C357.94 30.192 360.532 25.8 361.324 25.8C362.404 25.8 364.78 26.592 364.78 26.952C364.78 27.456 364.636 28.248 364.348 28.68C363.772 29.472 357.436 41.64 355.924 44.808C358.804 43.08 366.796 36.456 374.284 28.536C374.86 27.888 376.732 25.8 377.596 25.8C378.46 25.8 379.324 25.8 381.412 26.16C380.908 27.672 380.476 28.896 379.684 30.408L371.692 45.96C374.428 44.88 381.412 39.264 382.348 38.328C382.42 38.256 382.636 38.184 382.924 38.184C383.644 38.184 384.724 38.544 384.724 39.696ZM428.524 39.984C428.524 41.208 428.524 41.856 427.156 43.224C425.572 44.808 415.852 51.288 412.684 51.288C410.452 51.288 409.444 50.712 409.444 48.48C409.444 47.76 411.244 43.872 413.404 39.912C414.556 37.68 415.708 35.448 416.572 33.72C411.82 37.824 403.756 46.608 400.372 49.848C399.652 50.424 398.644 51.288 397.564 51.288C395.764 51.288 395.116 50.64 395.116 49.056C395.116 47.832 396.988 43.8 399.076 39.768C400.156 37.608 401.236 35.52 402.1 33.936C395.98 39.264 385.396 51.288 383.38 51.288C382.372 51.288 380.932 50.424 380.932 49.272C380.932 49.272 380.932 49.2 380.932 49.128C381.076 47.904 382.516 45.024 383.74 42.504C382.948 43.152 382.228 43.656 382.228 43.656C381.292 43.656 380.356 43.368 380.356 41.136C380.356 39.696 387.268 35.232 388.78 32.136C390.508 28.536 391.444 25.872 394.18 25.872C395.476 25.872 396.556 26.448 396.556 27.528C396.556 28.104 395.98 29.04 395.692 29.688L391.732 37.536C396.7 32.712 404.764 25.44 407.5 25.44C409.444 25.44 410.236 25.656 410.452 27.6C410.452 27.6 410.452 27.6 410.452 27.672C410.452 28.536 407.644 34.008 405.556 37.896C410.236 33.288 418.588 25.44 421.684 25.44C423.772 25.44 424.564 26.664 424.564 28.032C424.564 28.32 422.692 32.496 420.46 36.96C418.804 40.344 416.932 44.016 416.068 45.96C419.092 44.376 425.572 39.12 426.148 38.544C426.22 38.472 426.436 38.472 426.652 38.472C427.372 38.472 428.524 38.76 428.524 39.984ZM435.66 46.464C435.66 49.272 433.068 51.432 430.62 51.432C429.108 51.432 428.244 50.136 428.244 48.84C428.244 46.032 430.836 43.872 433.284 43.872C434.796 43.872 435.66 45.168 435.66 46.464ZM453.948 16.584C453.948 24.504 439.116 33.216 437.172 38.832C436.452 41.064 435.084 42.432 433.86 42.432C432.348 42.432 431.916 41.928 431.916 40.488C431.916 33.648 449.052 23.712 449.052 16.296C449.052 14.28 447.684 13.344 445.668 13.344C443.292 13.344 440.628 15.648 439.62 17.592C439.044 18.672 438.252 20.184 436.74 20.184C435.516 20.184 434.58 18.888 434.58 17.88C434.58 16.008 437.46 12.912 438.828 11.688C440.988 9.888 443.292 9.096 446.1 9.096C451.212 9.096 453.948 11.76 453.948 16.584Z" fill="#B38EFF"/>
</svg>
