<svg width="80" height="70" viewBox="0 0 80 70" fill="none" xmlns="http://www.w3.org/2000/svg">
<g clip-path="url(#clip0_3668_934)">
<path d="M79.6828 40.1076C79.63 38.6786 79.5243 37.1437 79.5243 35.7676L79.6828 31.3748C79.7884 28.4638 79.8941 25.3941 79.049 22.3244C78.5987 20.7188 77.7648 19.2473 76.6193 18.0374C75.4521 16.8684 74.0468 15.9657 72.4994 15.3911C71.0527 14.8305 69.5462 14.4397 68.0097 14.2267C66.5308 13.9621 65.0519 13.8033 63.5729 13.6445C62.094 13.4858 60.4566 13.4328 58.9248 13.3799C58.9447 11.315 58.3568 9.29004 57.2346 7.55804C55.7089 5.31617 53.6114 3.5251 51.1604 2.37128C48.7801 1.23364 46.2276 0.500326 43.6073 0.201316C40.9882 -0.12445 38.3351 -0.0530819 35.7372 0.41302C34.1252 0.674057 32.5481 1.11796 31.0363 1.73617C29.475 2.3296 28.0005 3.13067 26.6523 4.11784C25.2402 5.12814 24.0382 6.40452 23.1134 7.87559C22.871 8.24588 22.659 8.63529 22.4796 9.03997L21.9514 10.2573C21.8039 10.6732 21.6804 11.0973 21.5816 11.5275C21.4433 11.9388 21.3546 12.3653 21.3175 12.7977V13.2317C20.7894 13.2317 20.2083 13.1788 19.6801 13.1788C16.6276 13.0492 13.5701 13.2586 10.5635 13.8033C8.93144 14.1066 7.36079 14.6789 5.91546 15.4969C4.37015 16.4257 3.10938 17.7623 2.27093 19.3605C1.54896 20.8165 1.0334 22.3663 0.739172 23.9651C0.434183 25.488 0.233005 27.03 0.137033 28.5803C-0.0478343 31.5766 -0.0478343 34.5814 0.137033 37.5777C0.295491 41.1767 0.665226 44.7756 0.876502 48.3217C0.929322 49.2214 0.982141 50.0682 1.03496 50.9151C1.08778 51.7619 1.03496 52.6616 1.03496 53.5084C1.03496 55.255 0.929322 57.0545 0.982141 58.9598C0.982141 59.4362 1.03496 59.9125 1.08778 60.4418C1.2333 62.1246 1.83613 63.7354 2.83081 65.0992C3.23156 65.546 3.6737 65.9535 4.15129 66.3165C4.36746 66.493 4.59704 66.6523 4.83794 66.7929L5.57741 67.1634C6.51086 67.5923 7.48381 67.9291 8.48247 68.169C8.95192 68.3 9.42796 68.406 9.90859 68.4865C10.384 68.5924 10.8593 68.6453 11.2819 68.6982L13.9757 69.0687C15.7715 69.2804 17.5674 69.4392 19.3632 69.598C26.555 70.0562 33.7655 70.1445 40.9663 69.8626C48.1497 69.6509 55.2803 69.2275 62.4109 68.9629C69.1718 68.6982 74.6121 67.9043 74.6121 66.8458C74.6121 65.7873 69.0661 65.0463 62.2524 65.311C55.069 65.5756 47.9912 65.999 40.8607 66.2107C33.7831 66.4936 26.6957 66.4053 19.6273 65.9461C17.8843 65.8402 16.1413 65.6285 14.3982 65.4697L11.8101 65.1522C11.3836 65.1074 10.9603 65.0368 10.5424 64.9405C10.1314 64.8832 9.72527 64.7947 9.32758 64.6758C7.743 64.3054 6.3697 63.7232 5.63023 62.8234C4.89076 61.9237 4.62667 60.5476 4.62667 58.854C4.62667 57.1603 4.62667 55.4138 4.67949 53.5614C4.67949 52.6616 4.73231 51.7619 4.67949 50.8092C4.62667 49.8565 4.57385 48.9568 4.52103 48.0571C4.36257 45.9929 4.20411 43.9818 4.04566 41.9706C4.89666 42.3341 5.81442 42.5145 6.73944 42.4998H35.5787C35.3349 43.3792 35.2988 44.3033 35.4731 45.1991C35.6525 46.1824 36.0299 47.1188 36.5823 47.9512C37.1099 48.7792 37.7912 49.4979 38.5894 50.0682C38.7907 50.1788 39.0032 50.2675 39.2233 50.3329C39.438 50.3236 39.6509 50.288 39.8571 50.227C40.067 50.1292 40.2549 49.9896 40.4093 49.8168C40.5636 49.6439 40.6813 49.4413 40.755 49.2214C40.755 49.4331 40.8607 49.6448 41.0191 49.6448C41.7644 49.6604 42.4921 49.4173 43.0791 48.9568C43.6622 48.5408 44.1636 48.0205 44.558 47.4219C45.4155 46.1997 45.8598 44.7344 45.8257 43.2408C45.8165 42.9733 45.7811 42.7074 45.72 42.4469C56.4423 42.2881 67.1294 41.8824 77.7813 41.2296H77.8869C78.0982 43.823 78.2567 46.4163 78.4151 48.9568C78.5561 51.8489 78.5385 54.7465 78.3623 57.6367C78.2676 59.057 78.0913 60.4707 77.8341 61.8708C77.7775 62.2135 77.6891 62.5501 77.57 62.8764C77.4644 63.1939 77.3587 63.5644 77.2531 63.8819C77.0146 64.5145 76.6757 65.1042 76.2495 65.6285C75.3516 66.6341 74.5593 66.5812 74.5593 66.8987C74.5593 67.0046 74.7706 67.1104 75.1931 67.1104C75.4657 67.0769 75.7324 67.0057 75.9854 66.8987C76.321 66.7213 76.6245 66.4887 76.8834 66.2107C77.4321 65.629 77.8626 64.9459 78.151 64.1995C78.3095 63.829 78.4151 63.5115 78.5736 63.141L78.8905 62.0295C79.2437 60.5853 79.4909 59.1171 79.63 57.6367C79.9113 54.6992 80.0347 51.7487 79.9997 48.798C79.9469 45.9824 79.8412 43.0714 79.6828 40.1076ZM24.9093 13.327C24.9317 13.0225 24.9848 12.721 25.0677 12.4272C25.1733 12.1097 25.2262 11.845 25.3318 11.5275L25.7015 10.6807C25.8284 10.3983 25.9879 10.1318 26.1769 9.88679C26.8589 8.79709 27.7579 7.86016 28.8179 7.13463C29.9019 6.33538 31.0933 5.6939 32.3568 5.22929C33.6537 4.72325 34.9988 4.35085 36.371 4.11784C40.9305 3.32583 45.6152 3.68972 49.9984 5.17637C52.1235 5.93443 54.0287 7.20712 55.5444 8.88119C56.6583 10.1778 57.406 11.7493 57.71 13.4328C56.7064 13.4328 55.7029 13.3799 54.6993 13.4328C48.7835 13.4858 42.9206 13.9092 37.1633 14.015C35.7372 14.0679 34.2583 14.0679 32.8321 14.0679C31.406 14.0679 29.9799 13.9092 28.5538 13.8033C27.3389 13.6975 26.1241 13.5916 24.9093 13.5387C24.8564 13.4328 24.9093 13.3799 24.9093 13.327ZM42.4452 42.648C42.6779 42.9161 42.8251 43.248 42.8678 43.6007C43.058 44.5725 42.985 45.5776 42.6565 46.5116C42.3396 47.4643 41.7586 48.4699 40.8607 48.7874L40.8078 48.8404C40.866 48.5436 40.9013 48.2428 40.9135 47.9406C40.9158 47.7758 40.8796 47.6127 40.8078 47.4643C40.7958 47.3998 40.7708 47.3385 40.7345 47.2839C40.6982 47.2293 40.6513 47.1827 40.5966 47.1467C39.7475 46.5637 39.1598 45.6709 38.9592 44.6592C38.8669 44.2383 38.8851 43.8007 39.012 43.389C39.0523 43.2385 39.1253 43.0988 39.2258 42.9799C39.3262 42.861 39.4516 42.7657 39.593 42.7009C39.7119 42.6384 39.8355 42.5854 39.9627 42.5422H42.2868C42.3396 42.5422 42.3924 42.5951 42.4452 42.648ZM77.7813 40.3193C66.1611 39.6136 54.5232 39.1902 42.8678 39.049C42.8538 39.049 42.8403 39.0435 42.8304 39.0335C42.8205 39.0236 42.815 39.0102 42.815 38.9961C41.9896 38.7726 41.1306 38.7008 40.2796 38.7844C39.9221 38.8243 39.5686 38.8951 39.2233 38.9961C37.3746 38.9961 35.5259 38.9432 33.6772 38.9432H6.68662C5.70324 38.9077 4.72556 39.1073 3.83438 39.5254C3.78156 38.8373 3.72874 38.1493 3.72874 37.4613C3.54385 34.6063 3.54385 31.7422 3.72874 28.8872C3.94002 26.0822 4.36257 23.2771 5.47177 21.0542C5.96422 20.0165 6.7552 19.1502 7.743 18.5667C8.84748 17.9454 10.0412 17.4991 11.2819 17.2435C13.9229 16.6613 16.7751 16.6084 19.6273 16.6084C22.4796 16.6084 25.3846 16.873 28.2897 17.0847C29.7686 17.1906 31.2476 17.2964 32.7793 17.2964C34.3111 17.2964 35.7372 17.2435 37.2689 17.1906C43.1847 16.9789 48.9948 16.4496 54.7521 16.2908C57.6572 16.2379 60.5094 16.2379 63.3616 16.3967C66.2139 16.5555 69.1189 16.926 71.6014 17.7728C72.8217 18.1801 73.9391 18.8483 74.8762 19.731C75.7742 20.6365 76.4441 21.7432 76.8306 22.9595C77.6228 25.5 77.6228 28.4109 77.57 31.3218C77.57 32.7508 77.5172 34.2328 77.57 35.7147C77.6228 37.1966 77.7813 38.6786 77.8869 40.1605C77.8648 40.221 77.8285 40.2755 77.7813 40.3193Z" fill="white"/>
</g>
<defs>
<clipPath id="clip0_3668_934">
<rect width="80" height="70" fill="white"/>
</clipPath>
</defs>
</svg>
