<svg width="537" height="73" viewBox="0 0 537 73" fill="none" xmlns="http://www.w3.org/2000/svg">
<path d="M36.544 40.696C36.544 40.84 36.544 40.912 36.544 41.056C36.544 42.136 36.472 43 35.248 44.08C33.16 45.952 23.872 52.288 20.704 52.288C19.12 52.288 17.104 51.712 17.104 49.696C17.104 48.616 19.408 44.08 21.28 40.552C16.168 45.088 7.24 52.288 3.712 52.288C1.984 52.288 0.832 51.208 0.832 50.272C0.832 50.2 0.832 50.2 0.832 50.128C1.048 48.688 2.272 46.168 3.496 43.72C2.776 44.224 2.128 44.656 2.128 44.656C1.192 44.656 0.328 44.368 0.328 42.136C0.328 40.336 7.168 36.232 8.824 32.992C9.76 31.192 12.352 26.8 13.144 26.8C14.224 26.8 16.6 27.592 16.6 27.952C16.6 28.456 16.456 29.248 16.168 29.68C15.592 30.472 9.256 42.64 7.744 45.808C10.624 44.08 18.616 37.456 26.104 29.536C26.68 28.888 28.552 26.8 29.416 26.8C30.28 26.8 31.144 26.8 33.232 27.16C32.728 28.672 32.296 29.896 31.504 31.408L23.512 46.96C26.248 45.88 33.232 40.264 34.168 39.328C34.24 39.256 34.456 39.184 34.744 39.184C35.464 39.184 36.544 39.544 36.544 40.696ZM67.0731 30.976C67.0731 30.4 66.3531 30.328 65.7051 30.328C62.4651 30.328 55.9851 35.584 54.4731 39.112H55.1931C61.1691 39.112 67.0731 35.224 67.0731 30.976ZM75.2091 41.416C75.2091 42.784 74.5611 43.504 73.6251 44.152C70.0971 46.744 63.6891 52.288 56.0571 52.288C49.7931 52.288 48.4971 48.328 48.4971 41.92C48.4971 35.152 60.0891 26.224 66.2811 26.224C69.9531 26.224 72.1131 27.952 72.1131 30.688C72.1131 37.456 64.6251 43.216 55.0491 43.216H53.4651C53.4651 43.36 53.4651 43.504 53.4651 43.72C53.4651 45.808 53.9691 47.896 56.9211 47.896C64.3371 47.896 72.9771 39.256 73.5531 39.256C74.4171 39.256 75.2091 40.912 75.2091 41.416ZM99.3601 41.2C99.3601 43.144 98.4961 43.576 96.9841 44.8C93.6721 47.392 87.4081 52.288 82.7281 52.288C78.4801 52.288 76.2481 49.768 76.2481 46.168C76.2481 42.784 79.2721 40.48 81.8641 39.832C85.0321 38.968 90.5041 34.792 90.5041 31.48C90.5041 31.336 90.5041 31.192 90.5041 31.048C90.5041 30.76 90.4321 30.544 89.8561 30.544C84.8881 30.544 75.0241 44.512 72.7201 44.512C72.0721 44.512 70.6321 43.432 70.6321 42.064C70.6321 41.488 72.3601 39.544 72.7921 39.112C80.4961 31.912 85.3201 26.224 89.8561 26.224C93.6001 26.224 95.5441 28.312 95.5441 31.552C95.5441 34.072 93.8161 40.336 82.3681 44.296C81.7921 44.512 81.2881 45.16 81.2881 46.24C81.2881 47.248 81.7201 47.896 82.9441 47.896C86.8321 47.896 96.1201 40.048 96.2641 39.832C96.6241 39.544 97.2721 39.256 97.7761 39.256C98.9281 39.256 99.3601 40.624 99.3601 41.2ZM114.117 33.712C113.037 33.712 112.317 36.88 112.317 38.608C112.317 38.896 112.317 39.112 112.389 39.4C113.253 37.528 114.117 35.296 114.117 33.712ZM123.189 41.416C123.189 42.496 122.397 43.792 120.885 44.8C119.085 46.096 116.853 46.96 114.477 46.96C113.829 46.96 113.253 46.888 112.677 46.744C110.085 49.408 105.765 52.288 101.949 52.288C95.7572 52.288 95.1812 46.96 95.1812 41.776C95.1812 32.704 106.989 25.36 111.309 25.36C113.253 25.36 113.757 26.08 113.757 27.52C113.757 28.888 112.893 29.32 109.221 30.616C105.045 32.056 100.221 37.096 100.221 42.28C100.221 42.424 100.221 42.568 100.221 42.712C100.221 45.448 100.293 47.824 102.957 47.824C105.117 47.824 107.565 45.736 108.933 44.08C107.997 42.784 107.565 41.2 107.565 39.616C107.565 35.224 110.733 28.816 115.053 28.816C117.717 28.816 118.581 31.192 118.581 33.28C118.581 36.952 117.285 40.192 115.845 42.496C117.933 42.136 119.589 40.192 121.821 38.896C122.901 39.616 123.189 40.696 123.189 41.416ZM154.389 28.528C152.445 30.688 150.357 32.776 148.125 34.72C147.117 37.312 146.325 39.112 145.749 40.12C145.029 41.56 143.733 45.448 143.733 46.672C143.733 47.536 144.093 47.896 145.029 47.896C146.973 47.896 149.637 45.808 151.005 44.584C151.077 44.512 151.365 44.296 151.581 44.08C151.005 42.496 150.645 40.912 150.645 39.184C150.645 36.88 152.085 31.84 154.389 28.528ZM158.349 30.616C157.413 30.616 155.757 35.944 155.757 38.536C155.757 38.68 155.757 38.896 155.757 39.04C156.189 38.536 158.349 33.496 158.349 30.616ZM159.789 6.64C158.061 9.52 154.173 19.168 152.085 24.568C155.253 20.896 160.149 12.472 160.149 8.224C160.149 7.576 160.005 7.072 159.789 6.64ZM166.989 41.272C166.989 43.36 161.517 47.464 156.909 47.464C156.189 47.464 155.541 47.248 154.965 47.032C152.301 49.408 148.557 52.216 144.813 52.216C140.709 52.216 138.693 51.064 138.693 47.032C138.693 45.52 138.909 44.296 139.269 43.216C138.621 43.72 138.045 44.152 137.829 44.152C136.461 44.152 136.101 42.928 136.101 42.064C136.101 39.472 142.149 36.16 143.445 33.064L147.045 24.496L154.821 5.56C155.109 4.408 156.261 2.752 157.197 1.96C158.277 1.024 159.213 0.519998 160.077 0.519998C160.941 0.519998 161.805 1.024 162.741 2.032C164.037 3.4 164.541 5.416 164.541 7.792C164.541 12.832 162.165 19.168 159.069 22.984C158.061 24.208 157.125 25.36 156.189 26.512C157.125 25.72 158.133 25.216 159.285 25.216C162.309 25.216 163.101 27.592 163.101 30.112C163.101 34.792 160.221 40.12 158.205 42.928C161.733 42.712 164.757 38.68 165.405 38.68C166.341 38.68 166.989 40.768 166.989 41.272ZM206.526 40.696C206.526 40.84 206.526 40.912 206.526 41.056C206.526 42.136 206.454 43 205.23 44.08C203.142 45.952 193.854 52.288 190.686 52.288C189.102 52.288 187.086 51.712 187.086 49.696C187.086 48.688 188.31 46.168 189.462 43.936C187.878 45.016 185.934 46.024 183.846 46.24C181.542 49.84 176.934 52.288 172.902 52.288C168.078 52.288 166.062 48.4 166.062 45.088C166.062 44.44 166.134 43.864 166.278 43.288V43.216C165.342 43.936 164.406 44.584 164.406 44.584C163.326 44.584 162.75 43.216 162.75 42.208C162.75 41.344 163.254 40.408 163.974 39.904C168.078 36.664 171.102 33.28 171.822 31.552C172.11 30.904 174.702 26.728 175.35 26.728C176.358 26.728 177.294 26.728 179.31 27.376C178.518 29.896 172.83 40.48 171.606 42.784C171.318 43.36 171.174 44.008 171.174 44.656C171.174 46.24 172.11 47.896 173.91 47.896C175.854 47.896 177.87 46.456 178.95 45.232C177.798 44.512 176.574 42.928 176.286 40.624C176.286 40.48 176.286 40.336 176.286 40.192C176.286 38.608 177.006 36.448 179.166 35.656C179.454 35.512 179.814 35.512 180.174 35.512C182.118 35.512 184.71 37.024 185.43 39.472C185.574 39.832 185.574 40.264 185.574 40.768C185.574 40.912 185.574 41.128 185.574 41.272C187.806 40.192 191.19 36.88 194.574 33.208C195.798 31.84 196.95 28.456 198.39 26.656H203.142C202.71 28.96 201.846 30.328 201.342 31.408L195.222 43.576C194.286 45.376 193.782 46.456 193.422 47.032C196.158 45.952 203.214 40.264 204.15 39.328C204.222 39.256 204.438 39.184 204.726 39.184C205.446 39.184 206.526 39.544 206.526 40.696ZM220.272 28.528C218.328 30.688 216.24 32.776 214.008 34.72C213 37.312 212.208 39.112 211.632 40.12C210.912 41.56 209.616 45.448 209.616 46.672C209.616 47.536 209.976 47.896 210.912 47.896C212.856 47.896 215.52 45.808 216.888 44.584C216.96 44.512 217.248 44.296 217.464 44.08C216.888 42.496 216.528 40.912 216.528 39.184C216.528 36.88 217.968 31.84 220.272 28.528ZM224.232 30.616C223.296 30.616 221.64 35.944 221.64 38.536C221.64 38.68 221.64 38.896 221.64 39.04C222.072 38.536 224.232 33.496 224.232 30.616ZM225.672 6.64C223.944 9.52 220.056 19.168 217.968 24.568C221.136 20.896 226.032 12.472 226.032 8.224C226.032 7.576 225.888 7.072 225.672 6.64ZM232.872 41.272C232.872 43.36 227.4 47.464 222.792 47.464C222.072 47.464 221.424 47.248 220.848 47.032C218.184 49.408 214.44 52.216 210.696 52.216C206.592 52.216 204.576 51.064 204.576 47.032C204.576 45.52 204.792 44.296 205.152 43.216C204.504 43.72 203.928 44.152 203.712 44.152C202.344 44.152 201.984 42.928 201.984 42.064C201.984 39.472 208.032 36.16 209.328 33.064L212.928 24.496L220.704 5.56C220.992 4.408 222.144 2.752 223.08 1.96C224.16 1.024 225.096 0.519998 225.96 0.519998C226.824 0.519998 227.688 1.024 228.624 2.032C229.92 3.4 230.424 5.416 230.424 7.792C230.424 12.832 228.048 19.168 224.952 22.984C223.944 24.208 223.008 25.36 222.072 26.512C223.008 25.72 224.016 25.216 225.168 25.216C228.192 25.216 228.984 27.592 228.984 30.112C228.984 34.792 226.104 40.12 224.088 42.928C227.616 42.712 230.64 38.68 231.288 38.68C232.224 38.68 232.872 40.768 232.872 41.272ZM247.641 33.712C246.561 33.712 245.841 36.88 245.841 38.608C245.841 38.896 245.841 39.112 245.913 39.4C246.777 37.528 247.641 35.296 247.641 33.712ZM256.713 41.416C256.713 42.496 255.921 43.792 254.409 44.8C252.609 46.096 250.377 46.96 248.001 46.96C247.353 46.96 246.777 46.888 246.201 46.744C243.609 49.408 239.289 52.288 235.473 52.288C229.281 52.288 228.705 46.96 228.705 41.776C228.705 32.704 240.513 25.36 244.833 25.36C246.777 25.36 247.281 26.08 247.281 27.52C247.281 28.888 246.417 29.32 242.745 30.616C238.569 32.056 233.745 37.096 233.745 42.28C233.745 42.424 233.745 42.568 233.745 42.712C233.745 45.448 233.817 47.824 236.481 47.824C238.641 47.824 241.089 45.736 242.457 44.08C241.521 42.784 241.089 41.2 241.089 39.616C241.089 35.224 244.257 28.816 248.577 28.816C251.241 28.816 252.105 31.192 252.105 33.28C252.105 36.952 250.809 40.192 249.369 42.496C251.457 42.136 253.113 40.192 255.345 38.896C256.425 39.616 256.713 40.696 256.713 41.416ZM264.104 61.072C261.296 63.52 257.84 66.976 257.84 68.272V68.344C259.64 68.344 262.448 64.312 264.104 61.072ZM284.696 41.416C284.696 43.864 283.184 44.872 281.96 45.952C279.728 48.04 272.096 54.232 271.088 56.752C269.36 61.144 262.952 72.88 257.048 72.88C254.312 72.88 253.088 71.584 253.088 69.064C253.088 63.664 266.264 54.304 266.768 53.08C267.056 52.36 267.776 50.776 268.496 49.12C266.336 51.136 263.672 53.152 261.08 53.152C254.672 53.152 253.88 47.968 253.88 42.496C253.88 34.216 268.784 26.224 276.416 26.224C278.936 26.224 283.832 28.312 283.832 29.608C283.832 30.472 283.04 32.992 281.672 32.992C280.952 32.992 279.944 30.472 276.272 30.472C270.08 30.472 258.92 37.096 258.92 43.648C258.92 44.08 258.92 44.44 258.92 44.872C258.92 46.6 259.136 48.328 261.368 48.328C266.624 48.328 275.048 33.136 278.36 33.136C279.224 33.136 280.304 34.36 280.304 34.864V34.936L275.624 45.736L280.952 40.912C281.24 40.696 282.824 39.616 283.184 39.616C284.12 39.616 284.696 40.84 284.696 41.416ZM332.489 40.696C332.489 40.84 332.489 40.912 332.489 41.056C332.489 42.136 332.417 43 331.193 44.08C329.105 45.952 319.817 52.288 316.649 52.288C315.065 52.288 313.049 51.712 313.049 49.696C313.049 48.688 314.993 44.584 316.793 41.128H306.065L304.121 44.944C301.241 50.632 299.945 52.288 299.009 52.288C298.001 52.288 296.561 51.424 296.561 50.272C296.561 50.272 296.561 50.2 296.561 50.128C296.705 48.904 298.145 46.024 299.369 43.504C298.577 44.152 297.857 44.656 297.857 44.656C296.921 44.656 296.057 44.368 296.057 42.136C296.057 40.696 302.897 36.232 304.409 33.136C306.137 29.536 307.145 26.872 309.881 26.872C311.105 27.16 312.185 27.592 312.185 28.528C312.185 29.176 311.609 30.112 311.321 30.688L308.297 36.736H319.097C319.241 36.304 319.457 36.016 319.529 35.8L323.489 27.808C323.561 27.592 323.777 26.8 325.361 26.8C326.225 26.8 327.089 26.8 329.177 27.16C328.673 28.672 328.241 29.896 327.449 31.408L319.673 46.6L319.457 46.96C322.193 45.88 329.177 40.264 330.113 39.328C330.185 39.256 330.401 39.184 330.689 39.184C331.409 39.184 332.489 39.544 332.489 40.696ZM361.818 41.776C361.818 44.08 348.786 52.288 345.834 52.288C343.962 52.288 342.45 51.568 342.45 49.624C342.45 49.408 342.45 49.264 342.521 49.048C340.722 50.704 338.418 52.288 335.97 52.288C330.281 52.288 328.913 49.192 328.913 41.848C328.913 33.208 343.746 26.224 351.162 26.224C353.178 26.224 357.93 27.16 358.362 28.888C358.362 28.888 358.362 28.96 358.362 29.032C358.362 29.824 356.922 31.912 356.202 31.912C355.698 31.912 354.978 30.328 351.018 30.328C345.114 30.328 333.954 36.448 333.954 42.64C333.954 43.216 333.882 43.864 333.882 44.584C333.882 46.096 334.17 47.608 335.898 47.608C339.642 47.608 348.282 36.304 349.722 33.856C350.586 32.272 351.162 31.768 353.034 31.768C353.394 31.768 355.77 32.56 355.77 33.064C355.77 33.496 351.234 42.28 349.074 46.528C352.962 45.016 356.202 41.992 359.514 39.256C359.586 39.256 359.658 39.256 359.73 39.256C361.17 39.256 361.818 41.056 361.818 41.776ZM399.818 32.776C399.818 31.624 399.602 30.76 398.306 30.76C394.058 30.76 386.642 40.696 384.338 45.808C383.978 46.528 383.618 47.392 383.258 48.4C384.338 47.824 385.994 47.536 386.786 47.536C387.434 47.536 388.226 47.752 388.802 47.752C388.946 47.752 389.09 47.752 389.234 47.752C389.882 47.752 390.674 47.68 391.106 47.104C394.922 43.144 399.818 38.608 399.818 32.776ZM411.698 41.92C411.698 43.648 409.538 45.376 408.242 46.456C404.066 49.696 398.162 51.784 392.762 51.784C392.33 51.784 391.97 52 391.466 52.216C390.746 52.648 389.882 53.152 388.01 53.152C385.706 53.152 383.258 52.216 382.61 50.488C380.738 56.392 379.082 64.456 378.65 67.552C378.506 68.92 376.85 72.592 374.906 72.592C373.25 72.592 372.89 70.144 372.89 69.208C372.89 63.952 377.498 48.976 380.522 41.128C378.578 42.928 376.202 45.088 375.77 45.088C374.042 45.088 373.826 44.008 373.826 42.928C373.826 41.416 374.618 40.624 375.698 39.76C378.722 37.312 384.482 32.56 385.922 28.816C386.57 27.088 387.002 26.872 388.802 26.872C389.45 26.872 390.458 27.016 391.538 27.664L390.818 29.896C392.834 28.168 395.786 26.224 398.306 26.224C403.346 26.224 405.29 28.384 405.29 32.92C405.29 37.672 402.266 42.712 398.882 46.456C404.354 44.944 409.034 39.76 409.466 39.76C410.402 39.76 411.698 41.128 411.698 41.92ZM452.057 40.696C452.057 40.84 452.057 40.912 452.057 41.056C452.057 42.136 451.985 43 450.761 44.08C448.673 45.952 439.385 52.288 436.217 52.288C434.633 52.288 432.617 51.712 432.617 49.696C432.617 48.688 433.841 46.168 434.993 43.936C433.409 45.016 431.465 46.024 429.377 46.24C427.073 49.84 422.465 52.288 418.433 52.288C413.609 52.288 411.593 48.4 411.593 45.088C411.593 44.44 411.665 43.864 411.809 43.288V43.216C410.873 43.936 409.937 44.584 409.937 44.584C408.857 44.584 408.281 43.216 408.281 42.208C408.281 41.344 408.785 40.408 409.505 39.904C413.609 36.664 416.633 33.28 417.353 31.552C417.641 30.904 420.233 26.728 420.881 26.728C421.889 26.728 422.825 26.728 424.841 27.376C424.049 29.896 418.361 40.48 417.137 42.784C416.849 43.36 416.705 44.008 416.705 44.656C416.705 46.24 417.641 47.896 419.441 47.896C421.385 47.896 423.401 46.456 424.481 45.232C423.329 44.512 422.105 42.928 421.817 40.624C421.817 40.48 421.817 40.336 421.817 40.192C421.817 38.608 422.537 36.448 424.697 35.656C424.985 35.512 425.345 35.512 425.705 35.512C427.649 35.512 430.241 37.024 430.961 39.472C431.105 39.832 431.105 40.264 431.105 40.768C431.105 40.912 431.105 41.128 431.105 41.272C433.337 40.192 436.721 36.88 440.105 33.208C441.329 31.84 442.481 28.456 443.921 26.656H448.673C448.241 28.96 447.377 30.328 446.873 31.408L440.753 43.576C439.817 45.376 439.313 46.456 438.953 47.032C441.689 45.952 448.745 40.264 449.681 39.328C449.753 39.256 449.969 39.184 450.257 39.184C450.977 39.184 452.057 39.544 452.057 40.696ZM483.732 40.696C483.732 40.84 483.732 40.912 483.732 41.056C483.732 42.136 483.66 43 482.436 44.08C480.348 45.952 471.06 52.288 467.892 52.288C466.308 52.288 464.292 51.712 464.292 49.696C464.292 48.688 466.236 44.584 468.036 41.128H457.308L455.364 44.944C452.484 50.632 451.188 52.288 450.251 52.288C449.243 52.288 447.803 51.424 447.803 50.272C447.803 50.272 447.803 50.2 447.803 50.128C447.947 48.904 449.387 46.024 450.611 43.504C449.819 44.152 449.099 44.656 449.099 44.656C448.163 44.656 447.299 44.368 447.299 42.136C447.299 40.696 454.14 36.232 455.652 33.136C457.38 29.536 458.388 26.872 461.124 26.872C462.348 27.16 463.428 27.592 463.428 28.528C463.428 29.176 462.852 30.112 462.564 30.688L459.54 36.736H470.34C470.484 36.304 470.7 36.016 470.772 35.8L474.732 27.808C474.804 27.592 475.02 26.8 476.604 26.8C477.468 26.8 478.332 26.8 480.42 27.16C479.916 28.672 479.484 29.896 478.692 31.408L470.916 46.6L470.7 46.96C473.436 45.88 480.42 40.264 481.356 39.328C481.428 39.256 481.644 39.184 481.932 39.184C482.652 39.184 483.732 39.544 483.732 40.696ZM498.516 33.712C497.436 33.712 496.716 36.88 496.716 38.608C496.716 38.896 496.716 39.112 496.788 39.4C497.652 37.528 498.516 35.296 498.516 33.712ZM507.588 41.416C507.588 42.496 506.796 43.792 505.284 44.8C503.484 46.096 501.252 46.96 498.876 46.96C498.228 46.96 497.652 46.888 497.076 46.744C494.484 49.408 490.164 52.288 486.348 52.288C480.156 52.288 479.58 46.96 479.58 41.776C479.58 32.704 491.388 25.36 495.708 25.36C497.652 25.36 498.156 26.08 498.156 27.52C498.156 28.888 497.292 29.32 493.62 30.616C489.444 32.056 484.62 37.096 484.62 42.28C484.62 42.424 484.62 42.568 484.62 42.712C484.62 45.448 484.692 47.824 487.356 47.824C489.516 47.824 491.964 45.736 493.332 44.08C492.396 42.784 491.964 41.2 491.964 39.616C491.964 35.224 495.132 28.816 499.452 28.816C502.116 28.816 502.98 31.192 502.98 33.28C502.98 36.952 501.684 40.192 500.244 42.496C502.332 42.136 503.988 40.192 506.22 38.896C507.3 39.616 507.588 40.696 507.588 41.416ZM536.507 28.96C536.507 30.112 534.059 34.072 533.411 35.944C532.619 36.304 531.323 36.736 530.315 36.736C529.307 36.736 528.515 36.376 528.515 35.368C528.515 34.936 528.659 34.432 528.947 33.784C528.299 34.216 527.507 34.864 526.643 35.584L521.963 39.616L521.459 46.312C521.459 46.528 521.387 46.816 521.387 47.032C521.387 47.248 521.459 47.464 521.747 47.464C522.971 47.464 530.675 41.992 532.835 39.976C533.555 39.328 533.987 39.256 534.275 39.256C535.139 39.256 535.859 40.984 535.859 41.488C535.859 43.216 535.283 43.36 534.059 44.44C531.611 46.744 523.259 52.288 519.875 52.288C516.851 52.288 516.419 50.776 516.419 48.472C516.419 48.328 516.419 48.112 516.419 47.968L516.491 44.512L512.243 48.616C510.875 49.912 508.355 52.288 507.131 52.288C506.123 52.288 504.683 51.424 504.683 50.272C504.683 50.2 504.683 50.2 504.683 50.128C504.827 48.832 505.979 46.456 507.059 44.08C507.059 44.08 506.195 44.656 505.979 44.656C505.043 44.656 504.179 44.368 504.179 42.136C504.179 40.696 511.019 36.376 512.531 33.136L515.411 26.872H521.027L514.907 39.832C520.379 34.216 529.811 26.44 533.627 26.44C535.715 26.44 536.507 27.52 536.507 28.96Z" fill="#B38EFF"/>
</svg>
