<svg width="115" height="92" viewBox="0 0 115 92" fill="none" xmlns="http://www.w3.org/2000/svg">
<g clip-path="url(#clip0_4309_6228)">
<path d="M26.0854 91.5958C36.4976 89.9252 47.0481 89.2759 57.5866 89.6572C67.037 89.8996 76.8508 90.5054 86.0588 87.8399C87.6339 87.3552 87.1493 85.4167 85.6954 85.1744C75.2292 84.1059 64.7147 83.5801 54.1942 83.5993C44.2592 83.5993 34.4453 83.9628 24.995 87.4764C24.4689 87.6388 24.026 87.9983 23.759 88.4798C23.492 88.9613 23.4216 89.5274 23.5625 90.0596C23.7033 90.5918 24.0446 91.049 24.5149 91.3353C24.9851 91.6216 25.5479 91.7149 26.0854 91.5958Z" fill="black"/>
<path d="M27.4182 84.3263C24.5103 79.7223 21.7237 74.8759 19.1794 70.0296C16.8774 65.4256 15.5446 59.8523 12.5157 55.6117C12.2689 55.2119 11.9002 54.9019 11.464 54.7274C11.0277 54.5529 10.5469 54.5231 10.0925 54.6425C9.85018 54.7636 9.48671 54.8848 9.24439 55.006C8.94218 55.0912 8.68486 55.2904 8.52665 55.5616C8.36844 55.8328 8.3217 56.1549 8.39628 56.4599C10.8194 67.3641 17.8466 77.9049 24.7527 86.5071C25.9643 87.8399 28.5086 85.9014 27.4182 84.3263Z" fill="black"/>
<path d="M86.907 85.4167C94.2976 73.9066 97.3266 60.3369 104.596 48.7057C106.292 46.0402 102.658 43.9805 100.598 45.6767C93.813 51.1288 87.2704 56.8233 80.7279 62.6389C81.2125 63.0024 81.6971 63.3658 82.3029 63.8505C82.9057 63.1533 83.4718 62.4254 83.9992 61.6696C84.6049 60.9427 83.6357 59.8523 82.9087 60.5792L80.7279 62.7601C80.1221 63.3658 80.7279 64.6986 81.6971 64.3351C90.5417 60.8215 97.2054 55.6117 104.233 49.4326C102.9 48.4634 101.567 47.3729 100.234 46.4037C92.7226 58.2772 89.4513 71.12 83.5145 83.7205C82.4241 85.7802 85.5742 87.5975 86.907 85.4167Z" fill="black"/>
<path d="M10.456 55.6117C15.4235 61.5485 23.5411 64.4563 30.9317 66.1525C34.8088 67.0006 42.5629 69.0603 43.6534 63.487C43.8957 62.5178 42.4418 61.7908 41.9572 62.7601C40.9879 64.8198 29.4778 60.0946 27.7816 59.61C22.5165 57.9184 17.4411 55.6852 12.6368 52.9462C12.279 52.7143 11.8483 52.6224 11.427 52.6882C11.0057 52.7541 10.6234 52.9729 10.3534 53.3029C10.0834 53.6329 9.94458 54.0509 9.9635 54.4769C9.98242 54.9029 10.1578 55.3069 10.456 55.6117Z" fill="black"/>
<path d="M45.3496 59.7311C56.0115 48.7057 59.6463 30.6531 63.4022 16.2352C61.3425 15.6294 59.404 15.1448 57.3443 14.539C55.5269 25.3221 58.4347 36.3475 63.7657 45.7979C65.8254 49.4326 74.3065 64.4563 79.7586 59.9734C80.2103 59.4949 80.5001 58.8865 80.5871 58.2342C80.674 57.5819 80.5538 56.9188 80.2432 56.3387C76.6085 50.5231 71.641 45.919 68.4909 39.74C64.8561 32.5916 62.3118 24.3528 63.4022 16.2352C64.008 12.3582 58.3136 10.5408 57.3443 14.539C55.6481 21.6874 53.9519 28.9569 51.6498 35.8629C49.2267 43.4959 45.3496 50.0384 42.1995 57.1868C41.2302 59.2465 43.6534 61.5485 45.3496 59.7311Z" fill="black"/>
<path d="M59.0405 1.33276C58.1897 1.55648 57.4394 2.06122 56.9116 2.76502C56.3837 3.46883 56.1092 4.33038 56.1327 5.20983C56.1329 6.17343 56.4496 7.1103 57.034 7.87643C57.6185 8.64255 58.4383 9.19554 59.3676 9.45037C60.5102 9.64859 61.6859 9.50072 62.7437 9.02576C63.8016 8.5508 64.6933 7.77043 65.3044 6.78489C66.5523 4.84635 66.6371 1.45392 64.214 0.242333C63.7835 0.0328117 63.3005 -0.0444819 62.8262 0.0202077C62.3518 0.0848973 61.9072 0.288671 61.5485 0.605808C61.0585 1.2007 60.7253 1.90879 60.5792 2.6655C60.5901 2.87105 60.6595 3.06919 60.7794 3.23653C60.8992 3.40387 61.0644 3.53341 61.2556 3.60985C61.4467 3.6863 61.6557 3.70645 61.8579 3.66792C62.06 3.6294 62.247 3.53381 62.3966 3.39245C62.2258 3.37432 62.0541 3.41724 61.912 3.51361C61.6598 3.27199 61.3742 3.06796 61.0639 2.90782C60.9427 2.6655 61.0639 2.78666 61.185 3.02898C61.3032 3.29754 61.4672 3.54352 61.6696 3.75593C62.0331 4.1194 62.2754 4.24056 62.0331 3.99824C61.7908 3.75593 61.912 3.75593 61.7908 3.63477C61.912 3.63477 61.7908 4.1194 61.6696 4.36172C61.545 4.63282 61.3602 4.87194 61.1292 5.06089C60.8983 5.24984 60.6273 5.38365 60.3369 5.45215H60.2157L60.3369 5.5733C60.2157 5.45214 60.2157 5.33099 60.2157 5.45215L60.0946 5.20983C60.2157 5.5733 59.9734 5.08867 59.9734 4.96751V4.48288C59.9734 4.60404 60.0946 4.36172 59.9734 4.48288C59.8523 4.60404 60.2157 4.36172 60.2157 4.36172C60.552 4.18388 60.8044 3.88033 60.9179 3.51722C61.0314 3.15411 60.9967 2.76087 60.8215 2.42318C60.4581 1.45392 59.7311 1.09044 59.0042 1.33276H59.0405Z" fill="black"/>
<path d="M4.51922 39.8611C0.763313 40.4669 -0.932905 45.0709 0.520996 48.3422C1.32599 49.9172 2.70557 51.1226 4.37437 51.7089C6.04316 52.2952 7.87349 52.2177 9.48672 51.4923C11.1163 50.6758 12.3739 49.2696 13.0041 47.5592C13.6342 45.8489 13.5895 43.9629 12.8792 42.2843C12.1517 40.6274 10.8031 39.3223 9.12324 38.6495C8.34484 38.265 7.47067 38.1174 6.60916 38.2251C5.74765 38.3328 4.93671 38.691 4.27691 39.2553C4.11154 39.3701 3.98074 39.5279 3.89868 39.7117C3.81662 39.8955 3.78644 40.0982 3.8114 40.2979C3.83637 40.4977 3.91553 40.6867 4.0403 40.8447C4.16507 41.0026 4.3307 41.1234 4.51922 41.1939C5.22998 41.5097 5.91816 41.874 6.57892 42.2843C7.28251 42.452 7.91718 42.8328 8.39629 43.3747C8.61112 43.6531 8.769 43.9712 8.8609 44.3106C8.95281 44.6501 8.97696 45.0043 8.93195 45.3531C8.88695 45.7018 8.77368 46.0383 8.59862 46.3433C8.42355 46.6483 8.19013 46.9159 7.91166 47.1306C7.42063 47.4424 6.8285 47.5534 6.25787 47.4407C5.68725 47.3279 5.18185 47 4.84635 46.5248C4.62122 45.9561 4.60744 45.3256 4.80751 44.7476C5.00758 44.1696 5.40824 43.6825 5.93678 43.3747C6.29668 43.1189 6.55917 42.7486 6.68132 42.3243C6.80347 41.9 6.77805 41.4468 6.60923 41.0389C6.44041 40.6309 6.13817 40.2922 5.75192 40.0783C5.36568 39.8644 4.91828 39.7878 4.48288 39.8611H4.51922Z" fill="black"/>
<path d="M108.958 31.2589C105.686 29.5626 101.931 31.7435 100.719 35.0148C100.17 36.6104 100.239 38.3537 100.911 39.9012C101.584 41.4487 102.812 42.6879 104.354 43.3747C105.88 44.1312 107.633 44.2897 109.27 43.8189C110.906 43.348 112.308 42.282 113.198 40.8304C115.016 37.9226 114.895 32.5916 110.775 31.9858C110.201 31.9997 109.646 32.1946 109.189 32.5427C108.732 32.8908 108.397 33.3744 108.231 33.9243C107.746 35.2571 108.715 36.2263 108.352 37.1956C108.11 37.8014 107.746 38.1649 107.14 37.9226C104.596 37.1956 107.383 35.1359 108.594 34.7724C108.952 34.6589 109.268 34.4434 109.505 34.1525C109.742 33.8615 109.888 33.5078 109.927 33.1347C109.966 32.7616 109.895 32.3854 109.722 32.0522C109.55 31.7189 109.284 31.4432 108.958 31.2589Z" fill="black"/>
<path d="M80.7279 71.7258C79.7586 73.6643 78.6682 76.5721 79.3951 78.753C79.519 79.1208 79.7551 79.4404 80.0703 79.6669C80.3855 79.8933 80.7638 80.0151 81.1519 80.0151C81.54 80.0151 81.9183 79.8933 82.2335 79.6669C82.5487 79.4404 82.7849 79.1208 82.9087 78.753C83.0496 77.7896 83.1305 76.8185 83.151 75.8452C83.3047 74.9206 83.5903 74.023 83.9991 73.1797C84.8472 71.2411 81.576 69.9084 80.7279 71.7258Z" fill="black"/>
</g>
<defs>
<clipPath id="clip0_4309_6228">
<rect width="114.313" height="91.62" fill="white"/>
</clipPath>
</defs>
</svg>
