<svg width="60" height="60" viewBox="0 0 60 60" fill="none" xmlns="http://www.w3.org/2000/svg">
<g clip-path="url(#clip0_4534_3851)">
<path d="M60 16.619C60 16.0128 60 15.4167 60 14.8106C59.9868 13.4904 59.872 12.1731 59.6565 10.8705C59.4312 9.56626 59.0123 8.30296 58.4139 7.12241C57.8086 5.93961 57.0172 4.86173 56.07 3.92995C55.138 2.99126 54.0598 2.20994 52.8776 1.61643C51.7006 1.01807 50.4406 0.599224 49.1396 0.3738C47.8337 0.153472 46.5135 0.0285417 45.1894 0C44.5934 0 43.9872 0 43.381 0H16.619H14.8106H13.8003C12.8113 0.0349085 11.8258 0.136163 10.8503 0.303081C9.87503 0.477102 8.92032 0.751329 8.00135 1.1214C7.69827 1.25274 7.40529 1.39417 7.10221 1.54571C6.221 2.01353 5.40001 2.58687 4.65735 3.25307C4.40478 3.47533 4.16232 3.69759 3.92995 3.92995C2.99665 4.86664 2.216 5.94387 1.61643 7.12241C1.01796 8.30296 0.599134 9.56626 0.3738 10.8705C0.153177 12.173 0.0282423 13.4899 0 14.8106C0 15.4167 0 16.0128 0 16.619V43.381C0 43.9872 0 44.5934 0 45.1894C0.0182203 46.5094 0.133024 47.8263 0.343492 49.1295C0.576914 50.4358 1.00606 51.6993 1.61643 52.8776C2.21339 54.0577 2.99433 55.1353 3.92995 56.07C4.86634 57.0064 5.94353 57.7905 7.12241 58.3937C8.30637 58.9774 9.56896 59.3858 10.8705 59.606C12.1731 59.8214 13.4904 59.9363 14.8106 59.9495H16.619H43.381C43.9872 59.9495 44.5934 59.9495 45.1894 59.9495C46.5096 59.9363 47.8269 59.8214 49.1295 59.606C50.4325 59.381 51.6953 58.9657 52.8776 58.3735C54.0581 57.7728 55.1356 56.9885 56.07 56.0498C57.0087 55.1178 57.7901 54.0396 58.3836 52.8574C58.9745 51.6826 59.3866 50.4261 59.606 49.1295C59.8214 47.8269 59.9363 46.5096 59.9495 45.1894C59.9495 44.5934 59.9495 43.9872 59.9495 43.381V16.619H60Z" fill="#F05138"/>
<path d="M47.5434 37.0367C47.604 36.8043 47.6747 36.5821 47.7353 36.3497C50.2206 26.4289 44.1488 14.6996 33.8643 8.52686C38.3903 14.6289 40.4108 22.0342 38.5924 28.51C38.4307 29.0859 38.2388 29.6314 38.0367 30.177C37.8043 30.0254 37.5215 29.8537 37.1275 29.6415C29.4198 24.5759 22.2739 18.7034 15.8107 12.1234C19.6907 17.9016 24.0214 23.364 28.7624 28.4595C22.2513 24.3298 16.0945 19.6665 10.3553 14.5178C11.1005 15.7378 11.9416 16.8965 12.8708 17.983C17.7505 24.176 24.1253 31.8237 31.7629 37.6934C26.3984 40.9768 18.8213 41.2394 11.2645 37.6934C9.43356 36.8231 7.69114 35.7776 6.06161 34.5716C9.44133 39.9504 14.373 44.1776 20.2054 46.6949C27.348 49.7257 34.4502 49.554 39.7441 46.7454H39.8249C40.0471 46.6242 40.2593 46.5131 40.4715 46.3817C43.0173 45.0684 48.0384 43.7247 50.7257 48.968C51.3016 50.1803 52.6957 43.3812 47.5434 37.0367Z" fill="white"/>
</g>
<defs>
<clipPath id="clip0_4534_3851">
<rect width="60" height="60" fill="white"/>
</clipPath>
</defs>
</svg>
