<svg width="60" height="60" viewBox="0 0 60 60" fill="none" xmlns="http://www.w3.org/2000/svg">
<g clip-path="url(#clip0_4536_3855)">
<path d="M29.9156 60C13.8 60 0.121834 46.3875 -4.14253e-05 30.1594C-0.0279442 26.247 0.720873 22.368 2.20302 18.7471C3.68516 15.1263 5.87116 11.8355 8.63433 9.06564C11.4173 6.2142 14.7392 3.94436 18.4071 2.38805C22.075 0.83174 26.0156 0.0199988 30 1.07056e-05C33.9096 -0.00331235 37.7812 0.76701 41.3918 2.2666C45.0024 3.76618 48.2806 5.96539 51.0375 8.73751C53.8402 11.4716 56.0749 14.7328 57.613 18.3335C59.1512 21.9342 59.9623 25.8035 60 29.7188C60.0375 37.6852 56.9197 45.3425 51.3279 51.0168C45.7362 56.691 38.1254 59.9208 30.1593 60H29.9156ZM30 1.57501C26.2263 1.59572 22.4944 2.3664 19.0212 3.84225C15.5481 5.31811 12.4029 7.46968 9.76871 10.1719C7.14827 12.7941 5.07397 15.91 3.6659 19.3392C2.25783 22.7685 1.54395 26.443 1.56558 30.15C1.68746 45.525 14.6906 58.4156 29.9062 58.4156H30.1125C37.665 58.3463 44.8829 55.2897 50.1883 49.9141C55.4937 44.5384 58.455 37.2809 58.425 29.7281C58.3898 26.0189 57.6212 22.3532 56.1635 18.9421C54.7058 15.5311 52.5877 12.4422 49.9312 9.85314C47.3228 7.2214 44.2179 5.13368 40.7965 3.71105C37.3751 2.28842 33.7053 1.55919 30 1.56564V1.57501ZM6.73121 38.775V21.2531H10.9968V22.8188H8.72808V37.2375H10.9968V38.8031L6.73121 38.775ZM21.1968 29.8406C21.1968 33.0281 19.2562 34.8563 16.6312 34.8563C14.0062 34.8563 12.2531 32.8125 12.2531 30C12.2531 27.1875 14.1281 25.0125 16.7718 25.0125C19.4156 25.0125 21.1968 27.1594 21.1968 29.8406ZM14.0625 30C14.0625 31.9406 15 33.4688 16.7062 33.4688C18.4125 33.4688 19.3406 31.8938 19.3406 29.9156C19.3406 28.1156 18.45 26.4281 16.7062 26.4281C14.9625 26.4281 14.0625 28.0594 14.0625 30ZM22.6875 25.3125C23.5237 25.1702 24.3704 25.098 25.2187 25.0969C26.1697 25.0053 27.1252 25.2187 27.9468 25.7063C28.2566 25.8872 28.5122 26.1479 28.687 26.4612C28.8617 26.7745 28.9493 27.1289 28.9406 27.4875C28.9287 27.9534 28.77 28.4036 28.4872 28.7739C28.2044 29.1443 27.8119 29.4159 27.3656 29.55C27.817 29.6527 28.2304 29.8803 28.5584 30.2069C28.8865 30.5335 29.116 30.9459 29.2206 31.3968C29.3253 31.8477 29.3009 32.319 29.1502 32.7567C28.9996 33.1944 28.7287 33.5809 28.3687 33.8719C27.6937 34.4719 26.5781 34.8094 24.8343 34.8094C24.1232 34.8111 23.4125 34.7704 22.7062 34.6875L22.6875 25.3125ZM24.375 29.0625H25.3125C26.5125 29.0625 27.1875 28.5 27.1875 27.6938C27.1875 26.8875 26.5125 26.3813 25.4062 26.3813C25.0767 26.3654 24.7464 26.3874 24.4218 26.4469L24.375 29.0625ZM24.375 33.45C24.6843 33.45 24.9937 33.45 25.3125 33.45C26.4375 33.45 27.4218 33.0281 27.4218 31.875C27.4218 30.7219 26.4843 30.3094 25.2562 30.3094H24.375V33.45ZM32.6718 25.1813H34.4062V31.3688C34.4062 33.9938 33.1406 34.875 31.2656 34.875C30.7834 34.8925 30.3018 34.8291 29.8406 34.6875L30.0468 33.2813C30.3958 33.3921 30.7589 33.452 31.125 33.4594C32.0625 33.4594 32.6906 33 32.6906 31.35L32.6718 25.1813ZM39.375 30.375V31.575H35.775V30.375H39.375ZM47.8125 34.4531C47.0333 34.7684 46.1962 34.9154 45.3562 34.8844C44.7105 34.94 44.0604 34.8552 43.4505 34.6358C42.8406 34.4164 42.2855 34.0676 41.8232 33.6133C41.3609 33.1591 41.0025 32.6101 40.7724 32.0042C40.5424 31.3983 40.4462 30.7497 40.4906 30.1031C40.424 28.8374 40.8608 27.5966 41.7056 26.6517C42.5504 25.7068 43.7347 25.1344 45 25.0594C45.1841 25.0454 45.369 25.0454 45.5531 25.0594C46.359 25.0246 47.1626 25.1687 47.9062 25.4813L47.5312 26.8594C46.939 26.6067 46.3 26.4821 45.6562 26.4938C45.1996 26.4737 44.7441 26.5524 44.3207 26.7245C43.8973 26.8965 43.5159 27.1579 43.2027 27.4907C42.8895 27.8235 42.6517 28.2199 42.5056 28.653C42.3596 29.086 42.3086 29.5455 42.3562 30C42.3103 30.4527 42.3636 30.91 42.5124 31.34C42.6612 31.77 42.9019 32.1624 43.2178 32.4899C43.5337 32.8174 43.9172 33.0721 44.3415 33.2363C44.7659 33.4005 45.2209 33.4702 45.675 33.4406C46.3164 33.4457 46.9528 33.328 47.55 33.0938L47.8125 34.4531ZM53.2593 21.2063V38.775H48.9937V37.2094H51.2625V22.7813H48.9937V21.2156L53.2593 21.2063Z" fill="#F1592A"/>
</g>
<defs>
<clipPath id="clip0_4536_3855">
<rect width="60" height="60" fill="white"/>
</clipPath>
</defs>
</svg>
