<svg width="217" height="19" viewBox="0 0 217 19" fill="none" xmlns="http://www.w3.org/2000/svg">
<path fill-rule="evenodd" clip-rule="evenodd" d="M102.939 0.0481653C89.4547 0.445605 63.5628 4.09913 39.2076 9.04112C37.2436 9.43969 34.6562 9.96506 33.4579 10.2086C17.2983 13.4935 8.6076 15.5649 2.52434 17.582C0.150234 18.3692 -0.0537312 18.4647 0.00909255 18.7588C0.100847 19.188 0.487111 19.1217 4.8924 17.9207C9.45094 16.6779 13.5368 15.7754 24.7424 13.5366C62.194 6.05366 79.6866 3.31043 99.3079 1.84314C103.153 1.55558 109.294 1.60566 109.294 1.92452C109.294 2.35046 105.442 3.80306 96.5238 6.74035C85.5519 10.354 78.8726 12.7511 78.281 13.2874C77.2703 14.2039 78.382 14.8652 80.7876 14.7786C82.1622 14.729 82.4744 14.6916 88.7767 13.8195C106.872 11.3156 118.436 10.0448 134.109 8.83791C157.977 6.99999 173.184 6.32197 201.775 5.82084C212.048 5.64082 212.579 5.61569 214.476 5.22154C215.207 5.06961 216.08 4.92114 216.416 4.89152C217.204 4.82226 217.194 4.73365 216.391 4.66832C216.042 4.63983 215.238 4.50387 214.606 4.36615C213.046 4.02658 212.013 4.00884 203.106 4.16871C173.249 4.7046 157.539 5.38993 134.775 7.14951C122.802 8.07489 117.468 8.57771 108.75 9.60245C102.79 10.3029 87.0586 12.3423 84.8549 12.7C83.6525 12.8952 88.8717 11.0539 98.039 8.04881C109.635 4.24745 111.944 3.215 111.955 1.82613C111.967 0.259968 109.859 -0.155691 102.939 0.0481653Z" fill="#7A4BDA"/>
</svg>
