<svg width="190" height="76" viewBox="0 0 190 76" fill="none" xmlns="http://www.w3.org/2000/svg">
<path d="M42.199 27.9858C43.0248 27.1816 43.818 26.4185 43.957 26.2708C44.096 26.1231 44.2595 26.0082 44.3167 26C44.3658 26 44.4312 26.0328 44.4557 26.0821C44.4803 26.1231 44.4394 26.5416 44.3821 27.0011C44.3167 27.4688 44.1614 28.6915 44.0469 29.7336C43.9243 30.7676 43.7771 32.0066 43.7117 32.4826C43.6462 32.9585 43.5563 33.7134 43.5154 34.1648C43.4745 34.6161 43.4009 35.2643 43.3519 35.6008C43.3028 35.9372 43.1965 36.8398 43.0984 37.6112C43.0085 38.3825 42.9022 39.3426 42.8613 39.7447C42.8204 40.1468 42.7468 40.7622 42.6977 41.0986C42.6487 41.4351 42.5751 42.0259 42.5342 42.4116C42.4933 42.7972 42.4197 43.4045 42.3707 43.7655C42.3298 44.1266 42.2726 44.4876 42.248 44.5615C42.2235 44.6435 42.1581 44.7092 42.109 44.7092C42.0518 44.7092 41.5612 44.2086 41.0215 43.585C40.4818 42.9614 39.8522 42.2557 39.6233 42.0013C39.3943 41.7551 39.0182 41.3284 38.7974 41.0576C38.5685 40.7868 38.2905 40.475 37.9634 40.155L37.3256 40.4996C36.974 40.6801 36.4589 40.9673 36.1809 41.1315C35.8947 41.2956 35.6494 41.4269 35.6249 41.4269C35.6003 41.4269 34.8726 41.8125 34.014 42.2803C33.1473 42.748 32.0925 43.3224 31.6837 43.5522C31.2667 43.7819 30.9069 43.9707 30.8823 43.9707C30.8578 43.9707 30.4817 44.1676 30.0483 44.4138C29.6068 44.6517 28.601 45.1851 27.8161 45.5872C27.0311 45.9975 26.0581 46.5063 25.6492 46.7196C25.2486 46.933 24.7661 47.1955 24.5863 47.294C24.4064 47.3925 23.8912 47.6715 23.4415 47.9094C22.9918 48.1474 21.9697 48.6808 21.1766 49.1075C20.3752 49.5342 19.6802 49.8706 19.6312 49.8542C19.5903 49.846 19.9255 49.4603 20.3916 49.009C20.8577 48.5495 21.8879 47.532 22.6893 46.7524C23.4906 45.9647 24.4309 45.0456 24.7743 44.7092C25.1177 44.3645 25.5511 43.9707 25.731 43.8148C25.9109 43.6671 26.4097 43.2075 26.8349 42.789C27.2601 42.3787 28.1104 41.5582 28.7155 40.9756C29.3206 40.3929 30.7597 39.0062 31.9044 37.8984C33.0492 36.7906 34.521 35.371 35.1751 34.7392L35.2009 34.7142C35.8578 34.0798 36.9339 33.0403 37.6118 32.4005C38.3068 31.744 39.2799 30.8086 39.7786 30.3244C40.2856 29.8321 41.3731 28.7818 42.199 27.9858Z" fill="#111111"/>
<path d="M49.0183 30.2178C48.6912 30.0619 48.4214 29.906 48.4214 29.8567C48.4214 29.8075 48.4623 29.7747 48.5032 29.7747C48.5441 29.7747 48.8875 29.8731 49.2554 29.988C49.6316 30.1029 50.1549 30.3162 50.4165 30.4639C50.6782 30.6034 51.0707 30.9071 51.2751 31.1286C51.5204 31.3994 51.6921 31.6784 51.7657 31.9492C51.8393 32.1954 51.8638 32.5564 51.8393 32.8518C51.8148 33.1226 51.7085 33.5493 51.6022 33.7955C51.4877 34.0417 51.226 34.4848 51.0216 34.7802C50.8172 35.0756 50.3757 35.5844 50.0486 35.9208C49.7133 36.2572 49.1491 36.7742 48.7894 37.0778C48.4296 37.3732 47.7836 37.8656 47.3584 38.161C46.9332 38.4564 46.0992 38.9816 45.5187 39.3344C44.9381 39.6872 44.0877 40.155 43.638 40.3765C43.1883 40.5981 42.7958 40.8443 42.7631 40.9181C42.7222 40.992 42.7222 40.9263 42.7467 40.7704C42.7795 40.6145 42.8285 40.2042 42.8612 39.8678C42.8939 39.5313 42.9266 39.3344 42.9348 39.4329C42.9376 39.4978 42.9395 39.5404 42.9613 39.558C43.003 39.5915 43.1174 39.5341 43.4499 39.3672C43.7361 39.2195 44.2594 38.9405 44.6192 38.7354C44.979 38.5302 45.6413 38.1199 46.091 37.8245C46.5408 37.5373 47.2358 37.0286 47.6446 36.7085C48.0535 36.3803 48.6504 35.8469 48.9856 35.5105C49.3127 35.1741 49.7379 34.6817 49.9178 34.4109C50.0976 34.1401 50.3429 33.7134 50.4574 33.4673C50.6046 33.1308 50.6618 32.8682 50.6618 32.4415C50.67 31.982 50.6291 31.7851 50.4656 31.4651C50.3511 31.2435 50.114 30.9399 49.9341 30.7758C49.7542 30.6199 49.3372 30.3655 49.0183 30.2178Z" fill="#111111"/>
<path d="M26.3033 33.8119C26.4342 33.7627 27.1374 33.4837 27.8569 33.1883C28.5765 32.9011 29.2224 32.6631 29.3042 32.6713C29.3778 32.6795 29.4187 32.7123 29.4023 32.7452C29.386 32.7862 29.3369 32.7944 29.2878 32.7698C29.2388 32.7452 29.1979 32.7616 29.1815 32.7944C29.1734 32.8354 28.74 33.057 28.2249 33.2949C27.7097 33.5329 26.8593 33.9514 26.3442 34.2222C25.8291 34.493 24.946 35.0017 24.39 35.3464C23.8421 35.691 22.9182 36.3393 22.3458 36.7988C21.7816 37.2501 21.1029 37.8574 20.8494 38.1528C20.5878 38.44 20.2934 38.8092 20.1871 38.9651C20.0726 39.121 19.9173 39.3836 19.8273 39.5395C19.7374 39.6955 19.5984 40.0319 19.5166 40.2781C19.4185 40.5899 19.3858 40.8853 19.4103 41.2217C19.4349 41.5418 19.5166 41.8454 19.6556 42.0833C19.7701 42.2885 20.0072 42.5675 20.1789 42.707C20.3507 42.8465 20.7268 43.0844 21.0048 43.2239C21.291 43.3634 21.8061 43.5522 22.1495 43.6424C22.5011 43.7327 23.1553 43.8476 23.605 43.8968C24.0547 43.9461 24.6271 44.0199 25.3221 44.1512L24.7089 44.7584C24.4719 44.9963 24.1654 45.2998 23.7692 45.692C23.605 45.8546 23.4253 46.0326 23.2289 46.2273L21.9451 46.2026C21.2419 46.1862 20.3261 46.1452 19.9255 46.1042C19.5248 46.0631 18.8952 45.9729 18.5354 45.9072C18.1756 45.8334 17.6605 45.7021 17.3907 45.6118C17.1208 45.5134 16.6793 45.3246 16.4176 45.1769C16.1478 45.0292 15.7717 44.7256 15.5754 44.504C15.3301 44.225 15.1666 43.9461 15.0848 43.6424C15.0031 43.3388 14.9785 43.0598 15.0194 42.7808C15.044 42.5511 15.1666 42.149 15.2729 41.8782C15.3874 41.6074 15.649 41.1479 15.8616 40.8525C16.066 40.5571 16.5894 39.9745 17.0227 39.5477C17.4479 39.121 18.2002 38.4728 18.699 38.1035C19.1977 37.7343 19.9991 37.1681 20.4978 36.8563C20.9966 36.5444 21.7979 36.0603 22.2967 35.7813C22.7955 35.5105 23.8421 34.9689 24.6271 34.5915C25.4121 34.214 26.1725 33.8611 26.3033 33.8119Z" fill="#111111"/>
<path d="M37.5463 41.829C36.8023 42.0915 35.8292 42.4034 35.3795 42.5264C34.9298 42.6577 34.2266 42.8465 33.8259 42.9449C33.4253 43.0434 32.951 43.1173 32.7875 43.1173C32.6158 43.1091 32.4768 43.1337 32.4768 43.1665C32.4768 43.2075 32.4522 43.2239 32.4114 43.2157C32.3786 43.2075 32.166 43.2978 31.9453 43.4127C31.736 43.5177 31.3697 43.7118 31.0835 43.8634L31.0049 43.905C30.9369 43.9411 30.8443 43.9903 30.7344 44.0488L30.7273 44.0525C30.362 44.2468 29.8096 44.5406 29.3287 44.7912C28.6991 45.1195 28.1104 45.4477 28.0204 45.5134C27.8651 45.6282 27.8651 45.6282 28.0613 45.579C28.1758 45.5462 28.4456 45.5051 28.6746 45.4805C28.8954 45.4559 29.7049 45.2918 30.4735 45.1195C31.2421 44.9472 32.3623 44.6682 32.9674 44.504C33.5724 44.3399 34.5864 44.0363 35.216 43.8312C35.8456 43.626 36.8186 43.2978 37.3828 43.0926C37.947 42.8875 38.6829 42.6085 39.0182 42.469C39.3534 42.3295 39.6723 42.2146 39.7295 42.2146C39.7786 42.2064 39.6478 42.0177 39.4433 41.7879C39.2308 41.55 39.0182 41.3612 38.9773 41.3612C38.9364 41.3612 38.2904 41.5746 37.5463 41.829Z" fill="#111111"/>
<path d="M19.394 49.9937C19.3694 49.9691 19.5166 49.7886 19.721 49.5916C19.9173 49.3865 20.0972 49.2224 20.1217 49.2224C20.1462 49.2224 20.0154 49.3701 19.8355 49.5506C19.6311 49.764 19.5575 49.887 19.6393 49.887C19.721 49.887 19.7047 49.9117 19.5984 49.9527C19.5085 49.9937 19.4185 50.0101 19.394 49.9937Z" fill="#111111"/>
<path d="M89.9558 30.9765C89.3715 31.04 88.4951 31.2937 88.0082 31.5317C87.5213 31.7696 86.7423 32.3247 86.2879 32.753C85.8497 33.1971 85.2654 33.9902 84.9895 34.5136C84.5675 35.3701 84.5188 35.6239 84.5188 37.0514C84.5188 38.4313 84.5675 38.7486 84.9408 39.5099C85.168 39.9857 85.6874 40.7312 86.0931 41.1753C86.4989 41.6036 87.2454 42.1905 87.781 42.476C88.3004 42.7456 89.2092 43.0628 89.7935 43.158C90.3778 43.2532 91.173 43.3007 91.5788 43.2373C91.9845 43.1739 92.7149 42.9677 93.2018 42.7932C93.6887 42.6029 94.2567 42.3174 94.4677 42.127L94.841 41.8098C94.208 40.3981 93.9808 39.9857 93.9321 39.9857C93.8834 39.9857 93.4452 40.2078 92.9583 40.4616C92.2117 40.8581 91.8872 40.9374 90.9296 40.9374C90.0694 40.9374 89.615 40.8422 89.0145 40.5567C88.5925 40.3664 88.0082 39.9064 87.7161 39.5733C87.4402 39.2403 87.0831 38.6375 86.9533 38.241C86.8234 37.8445 86.7098 37.3528 86.7098 37.1307C86.7098 36.9086 86.8234 36.3535 86.9533 35.8935C87.0994 35.3701 87.424 34.8467 87.8135 34.4501C88.1381 34.1012 88.7386 33.6729 89.1443 33.4985C89.5825 33.2923 90.2317 33.1654 90.7673 33.1654C91.2542 33.1654 91.9845 33.2605 92.3903 33.3874C92.796 33.5302 93.2342 33.7364 93.3641 33.8791C93.4939 34.0219 93.7049 34.1329 93.8185 34.117C93.9159 34.117 94.0782 33.9584 94.1593 33.7522C94.1821 33.6988 94.2125 33.6266 94.2478 33.5431L94.2483 33.5419L94.2488 33.5408L94.2497 33.5387C94.3398 33.3251 94.4608 33.0382 94.5651 32.8006L94.8247 32.2137C93.7536 31.5634 93.1531 31.2779 92.796 31.1827C92.439 31.0717 91.8872 30.9606 91.5788 30.9131C91.2704 30.8813 90.5401 30.8972 89.9558 30.9765Z" fill="#111111"/>
<path fill-rule="evenodd" clip-rule="evenodd" d="M111.817 31.4682C112.337 31.2461 113.083 31.0082 113.489 30.9448C113.895 30.8813 114.398 30.8496 114.625 30.8813C114.852 30.9131 115.339 30.9765 115.729 31.0241C116.102 31.0717 116.784 31.2779 117.222 31.4999C117.676 31.722 118.309 32.1344 118.634 32.404C118.958 32.6895 119.494 33.324 119.819 33.7998C120.176 34.3391 120.484 35.0687 120.614 35.7032C120.744 36.2742 120.809 37.1624 120.76 37.6858C120.711 38.241 120.5 39.0341 120.241 39.5892C119.948 40.2078 119.445 40.874 118.796 41.4926C118.05 42.1905 117.514 42.5553 116.735 42.8408C115.907 43.158 115.404 43.2373 114.382 43.2214C113.489 43.2056 112.807 43.0946 112.191 42.8725C111.639 42.6663 110.908 42.1905 110.259 41.6195C109.545 40.9691 109.091 40.3981 108.717 39.6685C108.263 38.7327 108.214 38.5106 108.214 37.0514C108.214 35.5287 108.247 35.386 108.782 34.3708C109.107 33.7522 109.675 32.9909 110.129 32.5944C110.551 32.2137 111.314 31.7061 111.817 31.4682ZM112.759 33.5302C112.32 33.7364 111.736 34.1488 111.476 34.4501C111.217 34.7515 110.892 35.2115 110.762 35.4653C110.6 35.7666 110.503 36.3535 110.503 37.0514C110.503 37.8603 110.6 38.3362 110.844 38.7961C111.022 39.1451 111.46 39.6685 111.801 39.9699C112.158 40.2712 112.677 40.6043 112.97 40.7312C113.246 40.8422 113.911 40.9374 114.43 40.9374C114.933 40.9374 115.631 40.8422 115.972 40.6995C116.297 40.5726 116.832 40.2237 117.157 39.954C117.481 39.6685 117.887 39.1768 118.033 38.8754C118.196 38.5741 118.374 38.0031 118.439 37.6065C118.52 37.1307 118.472 36.6073 118.293 36.0204C118.163 35.5446 117.806 34.8625 117.514 34.5294C117.222 34.1964 116.638 33.7364 116.216 33.546C115.664 33.2764 115.161 33.1654 114.511 33.1654C113.878 33.1654 113.31 33.2923 112.759 33.5302Z" fill="#111111"/>
<path d="M127.447 31.0558C126.862 31.1668 126.1 31.4365 125.743 31.6427C125.385 31.8489 124.866 32.1978 124.606 32.404C124.347 32.6261 123.86 33.1812 123.535 33.6571C123.211 34.1329 122.805 34.9418 122.659 35.4653C122.448 36.1473 122.399 36.7342 122.464 37.5272C122.513 38.1934 122.708 38.9865 122.951 39.5099C123.162 39.9857 123.665 40.7471 124.071 41.1753C124.477 41.6195 125.223 42.1905 125.759 42.476C126.278 42.7456 127.187 43.0628 127.771 43.158C128.356 43.2532 129.151 43.3007 129.557 43.2373C129.962 43.1739 130.66 42.9835 131.098 42.8249C131.537 42.6663 132.121 42.3649 132.364 42.1746L132.819 41.8098C132.17 40.3981 131.959 39.9857 131.91 39.9857C131.861 39.9857 131.439 40.1919 130.969 40.4616C130.254 40.8581 129.946 40.9374 128.989 40.9374C128.047 40.9533 127.706 40.874 126.96 40.4933C126.44 40.2395 125.84 39.7637 125.532 39.383C125.256 39.0182 124.931 38.4155 124.834 38.0507C124.736 37.67 124.704 37.0514 124.753 36.6549C124.817 36.2583 125.028 35.6239 125.223 35.2432C125.418 34.8625 125.84 34.355 126.148 34.117C126.457 33.8633 126.992 33.546 127.317 33.4192C127.674 33.2764 128.388 33.1654 128.989 33.1654C129.849 33.1654 130.206 33.2447 130.936 33.6412C131.423 33.895 131.861 34.117 131.91 34.117C131.959 34.117 132.17 33.7205 132.397 33.2447C132.656 32.6895 132.754 32.3089 132.656 32.182C132.575 32.0709 132.121 31.7854 131.65 31.5317C131.098 31.262 130.352 31.0558 129.638 30.9765C128.859 30.8813 128.161 30.9131 127.447 31.0558Z" fill="#111111"/>
<path fill-rule="evenodd" clip-rule="evenodd" d="M153.901 31.5317C154.388 31.2937 155.2 31.04 155.687 30.9606C155.872 30.9304 156.051 30.9024 156.204 30.8785C156.451 30.8398 156.63 30.8118 156.66 30.802C156.709 30.7862 157.18 30.8655 157.715 30.9606C158.251 31.0558 159.111 31.3413 159.614 31.5951C160.134 31.8489 160.896 32.3882 161.302 32.8164C161.708 33.2288 162.243 33.9584 162.471 34.4343C162.746 35.0053 162.925 35.6873 162.99 36.4169C163.039 37.0355 163.022 37.8286 162.957 38.2093C162.876 38.5741 162.633 39.2878 162.389 39.7954C162.146 40.2871 161.627 41.0326 161.221 41.4291C160.799 41.8257 160.166 42.3015 159.776 42.4918C159.403 42.6822 158.64 42.9518 158.072 43.0946C157.391 43.269 156.758 43.3166 156.092 43.2532C155.476 43.1897 154.697 42.9677 153.982 42.6187C153.252 42.2698 152.587 41.7939 152.116 41.3022C151.71 40.874 151.207 40.1761 150.996 39.7478C150.785 39.3037 150.542 38.5265 150.461 38.0031C150.331 37.3052 150.347 36.7817 150.477 36.0204C150.59 35.4494 150.866 34.6405 151.11 34.1964C151.337 33.7681 151.856 33.0861 152.262 32.6737C152.668 32.2771 153.414 31.7696 153.901 31.5317ZM153.95 34.2122C154.242 33.9584 154.761 33.6253 155.118 33.4667C155.508 33.2923 156.157 33.1654 156.709 33.1654C157.277 33.1654 157.894 33.2764 158.332 33.4667C158.705 33.6253 159.289 34.0377 159.614 34.3708C159.939 34.7198 160.328 35.2591 160.474 35.5922C160.604 35.9094 160.718 36.5756 160.718 37.0514C160.718 37.5272 160.604 38.1934 160.458 38.5265C160.328 38.8437 160.036 39.3354 159.841 39.5892C159.63 39.843 159.095 40.2554 158.624 40.5092C157.991 40.8264 157.553 40.9374 156.79 40.9533C155.995 40.9691 155.589 40.8898 154.924 40.5567C154.453 40.3347 153.885 39.9064 153.674 39.6368C153.447 39.3513 153.155 38.8279 152.992 38.4789C152.846 38.13 152.716 37.4955 152.716 37.0514C152.716 36.5597 152.862 35.957 153.073 35.4653C153.284 35.037 153.674 34.466 153.95 34.2122Z" fill="#111111"/>
<path d="M170.456 30.9606C169.806 31.0082 169.011 31.2303 168.362 31.5158C167.697 31.8172 167.031 32.2771 166.479 32.8481C166.009 33.324 165.473 34.0377 165.295 34.4343C165.116 34.8308 164.873 35.608 164.759 36.179C164.613 37.0038 164.613 37.3845 164.775 38.0824C164.889 38.5582 165.165 39.3513 165.392 39.8271C165.635 40.303 166.171 41.0326 166.593 41.4608C167.031 41.8732 167.762 42.3808 168.216 42.6029C168.687 42.809 169.514 43.0628 170.05 43.1739C170.585 43.269 171.348 43.3007 171.754 43.2373C172.16 43.1897 172.793 43.0311 173.166 42.9042C173.556 42.7773 174.124 42.5235 174.432 42.3332C174.74 42.127 175 41.8891 175 41.8098C175 41.7305 174.821 41.2388 174.594 40.7471L174.189 39.8271C173.377 40.414 172.874 40.6519 172.566 40.7629C172.257 40.8581 171.559 40.9374 171.024 40.9374C170.342 40.9374 169.823 40.8264 169.32 40.5726C168.93 40.3823 168.378 40.0016 168.119 39.7478C167.859 39.494 167.518 38.9865 167.356 38.6375C167.177 38.2727 167.047 37.6224 167.047 37.0831C167.047 36.5438 167.161 35.9094 167.34 35.5128C167.518 35.1322 167.973 34.5453 168.378 34.1964C168.768 33.8474 169.384 33.4667 169.742 33.3716C170.082 33.2605 170.78 33.1654 171.267 33.1654C171.819 33.1654 172.436 33.2923 172.89 33.4985C173.296 33.6729 173.75 33.9267 173.896 34.0536C174.172 34.2598 174.221 34.1964 174.594 33.3716C174.821 32.864 175 32.3564 175 32.2613C175 32.1502 174.546 31.8489 173.978 31.5792C173.426 31.3255 172.647 31.0558 172.241 30.9765C171.835 30.9131 171.04 30.8972 170.456 30.9606Z" fill="#111111"/>
<path fill-rule="evenodd" clip-rule="evenodd" d="M73.2391 31.7696C73.6448 31.5317 74.2291 31.262 74.5375 31.151C74.8945 31.0241 75.706 30.9606 76.6474 30.9765C78.0107 31.0241 78.319 31.0875 79.2441 31.5317C79.8771 31.833 80.5912 32.3406 81.0294 32.8006C81.4189 33.213 81.9545 33.9902 82.198 34.5136C82.5226 35.1798 82.6849 35.8301 82.7498 36.6549C82.8309 37.6383 82.7822 38.0189 82.4901 38.8754C82.2953 39.4465 81.9221 40.1919 81.6786 40.5409C81.4352 40.8898 80.9483 41.4133 80.6074 41.7146C80.2666 42.016 79.5363 42.4601 79.0007 42.698C78.4651 42.9518 77.5887 43.1897 77.0531 43.2373C76.5175 43.3007 75.7223 43.2532 75.2678 43.158C74.8134 43.0628 74.0831 42.809 73.6448 42.6029C73.1904 42.3808 72.5088 41.905 72.103 41.5243C71.6973 41.1436 71.113 40.3664 70.8046 39.8113C70.2528 38.8279 70.2366 38.7327 70.2366 37.1307C70.2366 35.6873 70.2853 35.3542 70.6423 34.5929C70.8695 34.1171 71.3889 33.3716 71.7784 32.9433C72.1842 32.5309 72.8334 31.9916 73.2391 31.7696ZM74.6997 33.546C74.294 33.7522 73.7097 34.1964 73.4013 34.5453C73.093 34.8943 72.7359 35.4653 72.6385 35.7983C72.5249 36.1314 72.4275 36.7024 72.4275 37.0514C72.4275 37.4003 72.5412 38.0031 72.671 38.3996C72.8171 38.7961 73.239 39.4147 73.6123 39.7954C73.9856 40.1602 74.5861 40.5885 74.9432 40.7154C75.3814 40.8898 75.9656 40.9533 76.7447 40.9057C77.6535 40.874 78.0268 40.7788 78.5624 40.4299C78.9357 40.1761 79.4713 39.6844 79.731 39.3196C80.0069 38.9389 80.299 38.3203 80.3964 37.9238C80.5262 37.3845 80.51 36.9721 80.3639 36.2583C80.2341 35.6715 79.9744 35.0687 79.666 34.6722C79.3739 34.3074 78.7734 33.8474 78.2703 33.5936C77.5724 33.2605 77.1504 33.1654 76.4039 33.1654C75.7222 33.1812 75.2191 33.2923 74.6997 33.546Z" fill="#111111"/>
<path fill-rule="evenodd" clip-rule="evenodd" d="M59.6061 42.9994H61.8782L61.9594 39.1134C64.9294 38.9706 65.9195 38.8279 66.2603 38.6851C66.5687 38.5582 67.0718 38.2093 67.3801 37.9079C67.6885 37.6065 68.0618 37.0831 68.2241 36.7342C68.4188 36.3376 68.5325 35.719 68.5325 35.0687C68.5325 34.2915 68.4351 33.8474 68.1429 33.2447C67.8833 32.7371 67.4937 32.2771 67.0555 31.9758C66.6498 31.6903 65.9519 31.4206 65.3839 31.3096C64.8321 31.1986 63.3227 31.1034 61.9918 31.1034H59.6061V42.9994ZM61.9593 33.5302C61.9106 33.6571 61.8944 34.4184 61.9106 35.2432L61.9593 36.7342C64.4425 36.7342 65.0592 36.6549 65.3676 36.4962C65.611 36.3694 65.9194 36.068 66.033 35.8301C66.1628 35.5763 66.2602 35.2115 66.2602 34.9894C66.2602 34.7674 66.1953 34.4501 66.0979 34.2757C66.0168 34.1012 65.6273 33.8157 65.254 33.6412C64.7509 33.4191 64.199 33.324 63.2902 33.324C62.3975 33.324 62.008 33.3874 61.9593 33.5302Z" fill="#111111"/>
<path d="M97.7137 37.1624C97.6974 33.9426 97.7461 31.262 97.8273 31.2144C97.9084 31.151 98.4278 31.1034 98.9958 31.1034C99.856 31.1034 100.018 31.151 100.035 31.3889C100.051 31.5316 100.051 32.5626 100.035 33.6888C100.035 34.7991 100.067 35.7349 100.132 35.7825C100.213 35.8142 101.187 34.7832 104.4 31.1034H105.699C106.413 31.1034 107.03 31.151 107.062 31.2303C107.111 31.2937 106.543 31.9916 105.812 32.7847C105.082 33.5778 103.946 34.8149 102.128 36.8135L104.806 39.8271C106.283 41.4926 107.484 42.8725 107.484 42.9201C107.484 42.9677 106.851 42.9994 104.644 42.9835L103.378 41.5243C102.696 40.7154 101.739 39.6368 101.268 39.1292C100.814 38.6058 100.359 38.2251 100.262 38.2727C100.164 38.3362 100.083 39.3196 100.051 42.9201L97.7461 42.9994L97.7137 37.1624Z" fill="#111111"/>
<path d="M136.454 31.3096C136.406 31.4048 136.016 34.006 135.562 37.0514C135.522 37.329 135.483 37.6028 135.444 37.8711L135.371 38.3797L135.371 38.385C135.02 40.8299 134.75 42.7146 134.75 42.8091C134.75 42.9359 135.091 42.9994 135.919 42.9994H137.103C137.282 42.0794 137.493 40.4774 137.704 38.8279C137.915 37.1941 138.158 35.8618 138.24 35.8618C138.321 35.8618 139.051 37.4638 139.862 39.4306L141.323 42.9994L142.459 43.0152C144.731 37.4796 145.462 35.8618 145.543 35.8618C145.624 35.8618 145.884 37.1624 146.095 38.7486C146.306 40.3506 146.517 41.9367 146.582 42.2856L146.679 42.9201C148.886 42.9994 149.032 42.9677 149.032 42.7297C149.032 42.5711 148.675 39.954 148.221 36.8928C147.766 33.8315 147.426 31.2937 147.442 31.2461C147.458 31.1827 146.922 31.151 146.257 31.1668L145.056 31.1827C143.482 34.9894 142.816 36.5914 142.557 37.21C142.297 37.8286 142.005 38.3203 141.907 38.3203C141.81 38.3203 141.161 37.0038 140.495 35.386C140.156 34.5797 139.828 33.7931 139.571 33.1754C139.312 32.5537 139.124 32.1031 139.067 31.9758C138.97 31.722 138.824 31.4048 138.759 31.3096C138.694 31.1827 138.256 31.1034 137.59 31.1034C136.892 31.1034 136.503 31.1668 136.454 31.3096Z" fill="#111111"/>
<path d="M42.199 27.9858C43.0248 27.1816 43.818 26.4185 43.957 26.2708C44.096 26.1231 44.2595 26.0082 44.3167 26C44.3658 26 44.4312 26.0328 44.4557 26.0821C44.4803 26.1231 44.4394 26.5416 44.3821 27.0011C44.3167 27.4688 44.1614 28.6915 44.0469 29.7336C43.9243 30.7676 43.7771 32.0066 43.7117 32.4826C43.6462 32.9585 43.5563 33.7134 43.5154 34.1648C43.4745 34.6161 43.4009 35.2643 43.3519 35.6008C43.3028 35.9372 43.1965 36.8398 43.0984 37.6112C43.0085 38.3825 42.9022 39.3426 42.8613 39.7447C42.8204 40.1468 42.7468 40.7622 42.6977 41.0986C42.6487 41.4351 42.5751 42.0259 42.5342 42.4116C42.4933 42.7972 42.4197 43.4045 42.3707 43.7655C42.3298 44.1266 42.2726 44.4876 42.248 44.5615C42.2235 44.6435 42.1581 44.7092 42.109 44.7092C42.0518 44.7092 41.5612 44.2086 41.0215 43.585C40.4818 42.9614 39.8522 42.2557 39.6233 42.0013C39.3943 41.7551 39.0182 41.3284 38.7974 41.0576C38.5685 40.7868 38.2905 40.475 37.9634 40.155L37.3256 40.4996C36.974 40.6801 36.4589 40.9673 36.1809 41.1315C35.8947 41.2956 35.6494 41.4269 35.6249 41.4269C35.6003 41.4269 34.8726 41.8125 34.014 42.2803C33.1473 42.748 32.0925 43.3224 31.6837 43.5522C31.2667 43.7819 30.9069 43.9707 30.8823 43.9707C30.8578 43.9707 30.4817 44.1676 30.0483 44.4138C29.6068 44.6517 28.601 45.1851 27.8161 45.5872C27.0311 45.9975 26.0581 46.5063 25.6492 46.7196C25.2486 46.933 24.7661 47.1955 24.5863 47.294C24.4064 47.3925 23.8912 47.6715 23.4415 47.9094C22.9918 48.1474 21.9697 48.6808 21.1766 49.1075C20.3752 49.5342 19.6802 49.8706 19.6312 49.8542C19.5903 49.846 19.9255 49.4603 20.3916 49.009C20.8577 48.5495 21.8879 47.532 22.6893 46.7524C23.4906 45.9647 24.4309 45.0456 24.7743 44.7092C25.1177 44.3645 25.5511 43.9707 25.731 43.8148C25.9109 43.6671 26.4097 43.2075 26.8349 42.789C27.2601 42.3787 28.1104 41.5582 28.7155 40.9756C29.3206 40.3929 30.7597 39.0062 31.9044 37.8984C33.0492 36.7906 34.521 35.371 35.1751 34.7392L35.2009 34.7142C35.8578 34.0798 36.9339 33.0403 37.6118 32.4005C38.3068 31.744 39.2799 30.8086 39.7786 30.3244C40.2856 29.8321 41.3731 28.7818 42.199 27.9858Z" stroke="#111111" stroke-width="0.689154"/>
<path d="M49.0183 30.2178C48.6912 30.0619 48.4214 29.906 48.4214 29.8567C48.4214 29.8075 48.4623 29.7747 48.5032 29.7747C48.5441 29.7747 48.8875 29.8731 49.2554 29.988C49.6316 30.1029 50.1549 30.3162 50.4165 30.4639C50.6782 30.6034 51.0707 30.9071 51.2751 31.1286C51.5204 31.3994 51.6921 31.6784 51.7657 31.9492C51.8393 32.1954 51.8638 32.5564 51.8393 32.8518C51.8148 33.1226 51.7085 33.5493 51.6022 33.7955C51.4877 34.0417 51.226 34.4848 51.0216 34.7802C50.8172 35.0756 50.3757 35.5844 50.0486 35.9208C49.7133 36.2572 49.1491 36.7742 48.7894 37.0778C48.4296 37.3732 47.7836 37.8656 47.3584 38.161C46.9332 38.4564 46.0992 38.9816 45.5187 39.3344C44.9381 39.6872 44.0877 40.155 43.638 40.3765C43.1883 40.5981 42.7958 40.8443 42.7631 40.9181C42.7222 40.992 42.7222 40.9263 42.7467 40.7704C42.7795 40.6145 42.8285 40.2042 42.8612 39.8678C42.8939 39.5313 42.9266 39.3344 42.9348 39.4329C42.9376 39.4978 42.9395 39.5404 42.9613 39.558C43.003 39.5915 43.1174 39.5341 43.4499 39.3672C43.7361 39.2195 44.2594 38.9405 44.6192 38.7354C44.979 38.5302 45.6413 38.1199 46.091 37.8245C46.5408 37.5373 47.2358 37.0286 47.6446 36.7085C48.0535 36.3803 48.6504 35.8469 48.9856 35.5105C49.3127 35.1741 49.7379 34.6817 49.9178 34.4109C50.0976 34.1401 50.3429 33.7134 50.4574 33.4673C50.6046 33.1308 50.6618 32.8682 50.6618 32.4415C50.67 31.982 50.6291 31.7851 50.4656 31.4651C50.3511 31.2435 50.114 30.9399 49.9341 30.7758C49.7542 30.6199 49.3372 30.3655 49.0183 30.2178Z" stroke="#111111" stroke-width="0.689154"/>
<path d="M26.3033 33.8119C26.4342 33.7627 27.1374 33.4837 27.8569 33.1883C28.5765 32.9011 29.2224 32.6631 29.3042 32.6713C29.3778 32.6795 29.4187 32.7123 29.4023 32.7452C29.386 32.7862 29.3369 32.7944 29.2878 32.7698C29.2388 32.7452 29.1979 32.7616 29.1815 32.7944C29.1734 32.8354 28.74 33.057 28.2249 33.2949C27.7097 33.5329 26.8593 33.9514 26.3442 34.2222C25.8291 34.493 24.946 35.0017 24.39 35.3464C23.8421 35.691 22.9182 36.3393 22.3458 36.7988C21.7816 37.2501 21.1029 37.8574 20.8494 38.1528C20.5878 38.44 20.2934 38.8092 20.1871 38.9651C20.0726 39.121 19.9173 39.3836 19.8273 39.5395C19.7374 39.6955 19.5984 40.0319 19.5166 40.2781C19.4185 40.5899 19.3858 40.8853 19.4103 41.2217C19.4349 41.5418 19.5166 41.8454 19.6556 42.0833C19.7701 42.2885 20.0072 42.5675 20.1789 42.707C20.3507 42.8465 20.7268 43.0844 21.0048 43.2239C21.291 43.3634 21.8061 43.5522 22.1495 43.6424C22.5011 43.7327 23.1553 43.8476 23.605 43.8968C24.0547 43.9461 24.6271 44.0199 25.3221 44.1512L24.7089 44.7584C24.4719 44.9963 24.1654 45.2998 23.7692 45.692C23.605 45.8546 23.4253 46.0326 23.2289 46.2273L21.9451 46.2026C21.2419 46.1862 20.3261 46.1452 19.9255 46.1042C19.5248 46.0631 18.8952 45.9729 18.5354 45.9072C18.1756 45.8334 17.6605 45.7021 17.3907 45.6118C17.1208 45.5134 16.6793 45.3246 16.4176 45.1769C16.1478 45.0292 15.7717 44.7256 15.5754 44.504C15.3301 44.225 15.1666 43.9461 15.0848 43.6424C15.0031 43.3388 14.9785 43.0598 15.0194 42.7808C15.044 42.5511 15.1666 42.149 15.2729 41.8782C15.3874 41.6074 15.649 41.1479 15.8616 40.8525C16.066 40.5571 16.5894 39.9745 17.0227 39.5477C17.4479 39.121 18.2002 38.4728 18.699 38.1035C19.1977 37.7343 19.9991 37.1681 20.4978 36.8563C20.9966 36.5444 21.7979 36.0603 22.2967 35.7813C22.7955 35.5105 23.8421 34.9689 24.6271 34.5915C25.4121 34.214 26.1725 33.8611 26.3033 33.8119Z" stroke="#111111" stroke-width="0.689154"/>
<path d="M37.5463 41.829C36.8023 42.0915 35.8292 42.4034 35.3795 42.5264C34.9298 42.6577 34.2266 42.8465 33.8259 42.9449C33.4253 43.0434 32.951 43.1173 32.7875 43.1173C32.6158 43.1091 32.4768 43.1337 32.4768 43.1665C32.4768 43.2075 32.4522 43.2239 32.4114 43.2157C32.3786 43.2075 32.166 43.2978 31.9453 43.4127C31.736 43.5177 31.3697 43.7118 31.0835 43.8634L31.0049 43.905C30.9369 43.9411 30.8443 43.9903 30.7344 44.0488L30.7273 44.0525C30.362 44.2468 29.8096 44.5406 29.3287 44.7912C28.6991 45.1195 28.1104 45.4477 28.0204 45.5134C27.8651 45.6282 27.8651 45.6282 28.0613 45.579C28.1758 45.5462 28.4456 45.5051 28.6746 45.4805C28.8954 45.4559 29.7049 45.2918 30.4735 45.1195C31.2421 44.9472 32.3623 44.6682 32.9674 44.504C33.5724 44.3399 34.5864 44.0363 35.216 43.8312C35.8456 43.626 36.8186 43.2978 37.3828 43.0926C37.947 42.8875 38.6829 42.6085 39.0182 42.469C39.3534 42.3295 39.6723 42.2146 39.7295 42.2146C39.7786 42.2064 39.6478 42.0177 39.4433 41.7879C39.2308 41.55 39.0182 41.3612 38.9773 41.3612C38.9364 41.3612 38.2904 41.5746 37.5463 41.829Z" stroke="#111111" stroke-width="0.689154"/>
<path d="M19.394 49.9937C19.3694 49.9691 19.5166 49.7886 19.721 49.5916C19.9173 49.3865 20.0972 49.2224 20.1217 49.2224C20.1462 49.2224 20.0154 49.3701 19.8355 49.5506C19.6311 49.764 19.5575 49.887 19.6393 49.887C19.721 49.887 19.7047 49.9117 19.5984 49.9527C19.5085 49.9937 19.4185 50.0101 19.394 49.9937Z" stroke="#111111" stroke-width="0.689154"/>
<path d="M89.9558 30.9765C89.3715 31.04 88.4951 31.2937 88.0082 31.5317C87.5213 31.7696 86.7423 32.3247 86.2879 32.753C85.8497 33.1971 85.2654 33.9902 84.9895 34.5136C84.5675 35.3701 84.5188 35.6239 84.5188 37.0514C84.5188 38.4313 84.5675 38.7486 84.9408 39.5099C85.168 39.9857 85.6874 40.7312 86.0931 41.1753C86.4989 41.6036 87.2454 42.1905 87.781 42.476C88.3004 42.7456 89.2092 43.0628 89.7935 43.158C90.3778 43.2532 91.173 43.3007 91.5788 43.2373C91.9845 43.1739 92.7149 42.9677 93.2018 42.7932C93.6887 42.6029 94.2567 42.3174 94.4677 42.127L94.841 41.8098C94.208 40.3981 93.9808 39.9857 93.9321 39.9857C93.8834 39.9857 93.4452 40.2078 92.9583 40.4616C92.2117 40.8581 91.8872 40.9374 90.9296 40.9374C90.0694 40.9374 89.615 40.8422 89.0145 40.5567C88.5925 40.3664 88.0082 39.9064 87.7161 39.5733C87.4402 39.2403 87.0831 38.6375 86.9533 38.241C86.8234 37.8445 86.7098 37.3528 86.7098 37.1307C86.7098 36.9086 86.8234 36.3535 86.9533 35.8935C87.0994 35.3701 87.424 34.8467 87.8135 34.4501C88.1381 34.1012 88.7386 33.6729 89.1443 33.4985C89.5825 33.2923 90.2317 33.1654 90.7673 33.1654C91.2542 33.1654 91.9845 33.2605 92.3903 33.3874C92.796 33.5302 93.2342 33.7364 93.3641 33.8791C93.4939 34.0219 93.7049 34.1329 93.8185 34.117C93.9159 34.117 94.0782 33.9584 94.1593 33.7522C94.1821 33.6988 94.2125 33.6266 94.2478 33.5431L94.2483 33.5419L94.2488 33.5408L94.2497 33.5387C94.3398 33.3251 94.4608 33.0382 94.5651 32.8006L94.8247 32.2137C93.7536 31.5634 93.1531 31.2779 92.796 31.1827C92.439 31.0717 91.8872 30.9606 91.5788 30.9131C91.2704 30.8813 90.5401 30.8972 89.9558 30.9765Z" stroke="#111111" stroke-width="0.689154"/>
<path fill-rule="evenodd" clip-rule="evenodd" d="M111.817 31.4682C112.337 31.2461 113.083 31.0082 113.489 30.9448C113.895 30.8813 114.398 30.8496 114.625 30.8813C114.852 30.9131 115.339 30.9765 115.729 31.0241C116.102 31.0717 116.784 31.2779 117.222 31.4999C117.676 31.722 118.309 32.1344 118.634 32.404C118.958 32.6895 119.494 33.324 119.819 33.7998C120.176 34.3391 120.484 35.0687 120.614 35.7032C120.744 36.2742 120.809 37.1624 120.76 37.6858C120.711 38.241 120.5 39.0341 120.241 39.5892C119.948 40.2078 119.445 40.874 118.796 41.4926C118.05 42.1905 117.514 42.5553 116.735 42.8408C115.907 43.158 115.404 43.2373 114.382 43.2214C113.489 43.2056 112.807 43.0946 112.191 42.8725C111.639 42.6663 110.908 42.1905 110.259 41.6195C109.545 40.9691 109.091 40.3981 108.717 39.6685C108.263 38.7327 108.214 38.5106 108.214 37.0514C108.214 35.5287 108.247 35.386 108.782 34.3708C109.107 33.7522 109.675 32.9909 110.129 32.5944C110.551 32.2137 111.314 31.7061 111.817 31.4682ZM112.759 33.5302C112.32 33.7364 111.736 34.1488 111.476 34.4501C111.217 34.7515 110.892 35.2115 110.762 35.4653C110.6 35.7666 110.503 36.3535 110.503 37.0514C110.503 37.8603 110.6 38.3362 110.844 38.7961C111.022 39.1451 111.46 39.6685 111.801 39.9699C112.158 40.2712 112.677 40.6043 112.97 40.7312C113.246 40.8422 113.911 40.9374 114.43 40.9374C114.933 40.9374 115.631 40.8422 115.972 40.6995C116.297 40.5726 116.832 40.2237 117.157 39.954C117.481 39.6685 117.887 39.1768 118.033 38.8754C118.196 38.5741 118.374 38.0031 118.439 37.6065C118.52 37.1307 118.472 36.6073 118.293 36.0204C118.163 35.5446 117.806 34.8625 117.514 34.5294C117.222 34.1964 116.638 33.7364 116.216 33.546C115.664 33.2764 115.161 33.1654 114.511 33.1654C113.878 33.1654 113.31 33.2923 112.759 33.5302Z" stroke="#111111" stroke-width="0.689154"/>
<path d="M127.447 31.0558C126.862 31.1668 126.1 31.4365 125.743 31.6427C125.385 31.8489 124.866 32.1978 124.606 32.404C124.347 32.6261 123.86 33.1812 123.535 33.6571C123.211 34.1329 122.805 34.9418 122.659 35.4653C122.448 36.1473 122.399 36.7342 122.464 37.5272C122.513 38.1934 122.708 38.9865 122.951 39.5099C123.162 39.9857 123.665 40.7471 124.071 41.1753C124.477 41.6195 125.223 42.1905 125.759 42.476C126.278 42.7456 127.187 43.0628 127.771 43.158C128.356 43.2532 129.151 43.3007 129.557 43.2373C129.962 43.1739 130.66 42.9835 131.098 42.8249C131.537 42.6663 132.121 42.3649 132.364 42.1746L132.819 41.8098C132.17 40.3981 131.959 39.9857 131.91 39.9857C131.861 39.9857 131.439 40.1919 130.969 40.4616C130.254 40.8581 129.946 40.9374 128.989 40.9374C128.047 40.9533 127.706 40.874 126.96 40.4933C126.44 40.2395 125.84 39.7637 125.532 39.383C125.256 39.0182 124.931 38.4155 124.834 38.0507C124.736 37.67 124.704 37.0514 124.753 36.6549C124.817 36.2583 125.028 35.6239 125.223 35.2432C125.418 34.8625 125.84 34.355 126.148 34.117C126.457 33.8633 126.992 33.546 127.317 33.4192C127.674 33.2764 128.388 33.1654 128.989 33.1654C129.849 33.1654 130.206 33.2447 130.936 33.6412C131.423 33.895 131.861 34.117 131.91 34.117C131.959 34.117 132.17 33.7205 132.397 33.2447C132.656 32.6895 132.754 32.3089 132.656 32.182C132.575 32.0709 132.121 31.7854 131.65 31.5317C131.098 31.262 130.352 31.0558 129.638 30.9765C128.859 30.8813 128.161 30.9131 127.447 31.0558Z" stroke="#111111" stroke-width="0.689154"/>
<path fill-rule="evenodd" clip-rule="evenodd" d="M153.901 31.5317C154.388 31.2937 155.2 31.04 155.687 30.9606C155.872 30.9304 156.051 30.9024 156.204 30.8785C156.451 30.8398 156.63 30.8118 156.66 30.802C156.709 30.7862 157.18 30.8655 157.715 30.9606C158.251 31.0558 159.111 31.3413 159.614 31.5951C160.134 31.8489 160.896 32.3882 161.302 32.8164C161.708 33.2288 162.243 33.9584 162.471 34.4343C162.746 35.0053 162.925 35.6873 162.99 36.4169C163.039 37.0355 163.022 37.8286 162.957 38.2093C162.876 38.5741 162.633 39.2878 162.389 39.7954C162.146 40.2871 161.627 41.0326 161.221 41.4291C160.799 41.8257 160.166 42.3015 159.776 42.4918C159.403 42.6822 158.64 42.9518 158.072 43.0946C157.391 43.269 156.758 43.3166 156.092 43.2532C155.476 43.1897 154.697 42.9677 153.982 42.6187C153.252 42.2698 152.587 41.7939 152.116 41.3022C151.71 40.874 151.207 40.1761 150.996 39.7478C150.785 39.3037 150.542 38.5265 150.461 38.0031C150.331 37.3052 150.347 36.7817 150.477 36.0204C150.59 35.4494 150.866 34.6405 151.11 34.1964C151.337 33.7681 151.856 33.0861 152.262 32.6737C152.668 32.2771 153.414 31.7696 153.901 31.5317ZM153.95 34.2122C154.242 33.9584 154.761 33.6253 155.118 33.4667C155.508 33.2923 156.157 33.1654 156.709 33.1654C157.277 33.1654 157.894 33.2764 158.332 33.4667C158.705 33.6253 159.289 34.0377 159.614 34.3708C159.939 34.7198 160.328 35.2591 160.474 35.5922C160.604 35.9094 160.718 36.5756 160.718 37.0514C160.718 37.5272 160.604 38.1934 160.458 38.5265C160.328 38.8437 160.036 39.3354 159.841 39.5892C159.63 39.843 159.095 40.2554 158.624 40.5092C157.991 40.8264 157.553 40.9374 156.79 40.9533C155.995 40.9691 155.589 40.8898 154.924 40.5567C154.453 40.3347 153.885 39.9064 153.674 39.6368C153.447 39.3513 153.155 38.8279 152.992 38.4789C152.846 38.13 152.716 37.4955 152.716 37.0514C152.716 36.5597 152.862 35.957 153.073 35.4653C153.284 35.037 153.674 34.466 153.95 34.2122Z" stroke="#111111" stroke-width="0.689154"/>
<path d="M170.456 30.9606C169.806 31.0082 169.011 31.2303 168.362 31.5158C167.697 31.8172 167.031 32.2771 166.479 32.8481C166.009 33.324 165.473 34.0377 165.295 34.4343C165.116 34.8308 164.873 35.608 164.759 36.179C164.613 37.0038 164.613 37.3845 164.775 38.0824C164.889 38.5582 165.165 39.3513 165.392 39.8271C165.635 40.303 166.171 41.0326 166.593 41.4608C167.031 41.8732 167.762 42.3808 168.216 42.6029C168.687 42.809 169.514 43.0628 170.05 43.1739C170.585 43.269 171.348 43.3007 171.754 43.2373C172.16 43.1897 172.793 43.0311 173.166 42.9042C173.556 42.7773 174.124 42.5235 174.432 42.3332C174.74 42.127 175 41.8891 175 41.8098C175 41.7305 174.821 41.2388 174.594 40.7471L174.189 39.8271C173.377 40.414 172.874 40.6519 172.566 40.7629C172.257 40.8581 171.559 40.9374 171.024 40.9374C170.342 40.9374 169.823 40.8264 169.32 40.5726C168.93 40.3823 168.378 40.0016 168.119 39.7478C167.859 39.494 167.518 38.9865 167.356 38.6375C167.177 38.2727 167.047 37.6224 167.047 37.0831C167.047 36.5438 167.161 35.9094 167.34 35.5128C167.518 35.1322 167.973 34.5453 168.378 34.1964C168.768 33.8474 169.384 33.4667 169.742 33.3716C170.082 33.2605 170.78 33.1654 171.267 33.1654C171.819 33.1654 172.436 33.2923 172.89 33.4985C173.296 33.6729 173.75 33.9267 173.896 34.0536C174.172 34.2598 174.221 34.1964 174.594 33.3716C174.821 32.864 175 32.3564 175 32.2613C175 32.1502 174.546 31.8489 173.978 31.5792C173.426 31.3255 172.647 31.0558 172.241 30.9765C171.835 30.9131 171.04 30.8972 170.456 30.9606Z" stroke="#111111" stroke-width="0.689154"/>
<path fill-rule="evenodd" clip-rule="evenodd" d="M73.2391 31.7696C73.6448 31.5317 74.2291 31.262 74.5375 31.151C74.8945 31.0241 75.706 30.9606 76.6474 30.9765C78.0107 31.0241 78.319 31.0875 79.2441 31.5317C79.8771 31.833 80.5912 32.3406 81.0294 32.8006C81.4189 33.213 81.9545 33.9902 82.198 34.5136C82.5226 35.1798 82.6849 35.8301 82.7498 36.6549C82.8309 37.6383 82.7822 38.0189 82.4901 38.8754C82.2953 39.4465 81.9221 40.1919 81.6786 40.5409C81.4352 40.8898 80.9483 41.4133 80.6074 41.7146C80.2666 42.016 79.5363 42.4601 79.0007 42.698C78.4651 42.9518 77.5887 43.1897 77.0531 43.2373C76.5175 43.3007 75.7223 43.2532 75.2678 43.158C74.8134 43.0628 74.0831 42.809 73.6448 42.6029C73.1904 42.3808 72.5088 41.905 72.103 41.5243C71.6973 41.1436 71.113 40.3664 70.8046 39.8113C70.2528 38.8279 70.2366 38.7327 70.2366 37.1307C70.2366 35.6873 70.2853 35.3542 70.6423 34.5929C70.8695 34.1171 71.3889 33.3716 71.7784 32.9433C72.1842 32.5309 72.8334 31.9916 73.2391 31.7696ZM74.6997 33.546C74.294 33.7522 73.7097 34.1964 73.4013 34.5453C73.093 34.8943 72.7359 35.4653 72.6385 35.7983C72.5249 36.1314 72.4275 36.7024 72.4275 37.0514C72.4275 37.4003 72.5412 38.0031 72.671 38.3996C72.8171 38.7961 73.239 39.4147 73.6123 39.7954C73.9856 40.1602 74.5861 40.5885 74.9432 40.7154C75.3814 40.8898 75.9656 40.9533 76.7447 40.9057C77.6535 40.874 78.0268 40.7788 78.5624 40.4299C78.9357 40.1761 79.4713 39.6844 79.731 39.3196C80.0069 38.9389 80.299 38.3203 80.3964 37.9238C80.5262 37.3845 80.51 36.9721 80.3639 36.2583C80.2341 35.6715 79.9744 35.0687 79.666 34.6722C79.3739 34.3074 78.7734 33.8474 78.2703 33.5936C77.5724 33.2605 77.1504 33.1654 76.4039 33.1654C75.7222 33.1812 75.2191 33.2923 74.6997 33.546Z" stroke="#111111" stroke-width="0.689154"/>
<path fill-rule="evenodd" clip-rule="evenodd" d="M59.6061 42.9994H61.8782L61.9594 39.1134C64.9294 38.9706 65.9195 38.8279 66.2603 38.6851C66.5687 38.5582 67.0718 38.2093 67.3801 37.9079C67.6885 37.6065 68.0618 37.0831 68.2241 36.7342C68.4188 36.3376 68.5325 35.719 68.5325 35.0687C68.5325 34.2915 68.4351 33.8474 68.1429 33.2447C67.8833 32.7371 67.4937 32.2771 67.0555 31.9758C66.6498 31.6903 65.9519 31.4206 65.3839 31.3096C64.8321 31.1986 63.3227 31.1034 61.9918 31.1034H59.6061V42.9994ZM61.9593 33.5302C61.9106 33.6571 61.8944 34.4184 61.9106 35.2432L61.9593 36.7342C64.4425 36.7342 65.0592 36.6549 65.3676 36.4962C65.611 36.3694 65.9194 36.068 66.033 35.8301C66.1628 35.5763 66.2602 35.2115 66.2602 34.9894C66.2602 34.7674 66.1953 34.4501 66.0979 34.2757C66.0168 34.1012 65.6273 33.8157 65.254 33.6412C64.7509 33.4191 64.199 33.324 63.2902 33.324C62.3975 33.324 62.008 33.3874 61.9593 33.5302Z" stroke="#111111" stroke-width="0.689154"/>
<path d="M97.7137 37.1624C97.6974 33.9426 97.7461 31.262 97.8273 31.2144C97.9084 31.151 98.4278 31.1034 98.9958 31.1034C99.856 31.1034 100.018 31.151 100.035 31.3889C100.051 31.5316 100.051 32.5626 100.035 33.6888C100.035 34.7991 100.067 35.7349 100.132 35.7825C100.213 35.8142 101.187 34.7832 104.4 31.1034H105.699C106.413 31.1034 107.03 31.151 107.062 31.2303C107.111 31.2937 106.543 31.9916 105.812 32.7847C105.082 33.5778 103.946 34.8149 102.128 36.8135L104.806 39.8271C106.283 41.4926 107.484 42.8725 107.484 42.9201C107.484 42.9677 106.851 42.9994 104.644 42.9835L103.378 41.5243C102.696 40.7154 101.739 39.6368 101.268 39.1292C100.814 38.6058 100.359 38.2251 100.262 38.2727C100.164 38.3362 100.083 39.3196 100.051 42.9201L97.7461 42.9994L97.7137 37.1624Z" stroke="#111111" stroke-width="0.689154"/>
<path d="M136.454 31.3096C136.406 31.4048 136.016 34.006 135.562 37.0514C135.522 37.329 135.483 37.6028 135.444 37.8711L135.371 38.3797L135.371 38.385C135.02 40.8299 134.75 42.7146 134.75 42.8091C134.75 42.9359 135.091 42.9994 135.919 42.9994H137.103C137.282 42.0794 137.493 40.4774 137.704 38.8279C137.915 37.1941 138.158 35.8618 138.24 35.8618C138.321 35.8618 139.051 37.4638 139.862 39.4306L141.323 42.9994L142.459 43.0152C144.731 37.4796 145.462 35.8618 145.543 35.8618C145.624 35.8618 145.884 37.1624 146.095 38.7486C146.306 40.3506 146.517 41.9367 146.582 42.2856L146.679 42.9201C148.886 42.9994 149.032 42.9677 149.032 42.7297C149.032 42.5711 148.675 39.954 148.221 36.8928C147.766 33.8315 147.426 31.2937 147.442 31.2461C147.458 31.1827 146.922 31.151 146.257 31.1668L145.056 31.1827C143.482 34.9894 142.816 36.5914 142.557 37.21C142.297 37.8286 142.005 38.3203 141.907 38.3203C141.81 38.3203 141.161 37.0038 140.495 35.386C140.156 34.5797 139.828 33.7931 139.571 33.1754C139.312 32.5537 139.124 32.1031 139.067 31.9758C138.97 31.722 138.824 31.4048 138.759 31.3096C138.694 31.1827 138.256 31.1034 137.59 31.1034C136.892 31.1034 136.503 31.1668 136.454 31.3096Z" stroke="#111111" stroke-width="0.689154"/>
</svg>
