<svg width="190" height="76" viewBox="0 0 190 76" fill="none" xmlns="http://www.w3.org/2000/svg">
<path fill-rule="evenodd" clip-rule="evenodd" d="M60.1175 42.4705C63.0665 34.7405 58.5959 26.0663 50.7361 24.2649C49.2322 23.9201 46.4952 23.9103 44.9995 24.2446C41.6814 24.9864 38.6846 27.1406 36.7487 30.1757C34.2878 34.0348 33.9816 39.2076 35.9694 43.3941C37.2942 46.1856 39.4639 48.3878 42.2228 49.7411C44.0316 50.6275 45.7036 51 47.8774 51C49.9992 51 51.5386 50.6535 53.4062 49.7558C56.5698 48.2347 58.8734 45.7347 60.1175 42.4705ZM57.0524 34.0054C56.5274 31.341 55.2327 29.0057 53.156 26.9748C52.9454 26.7699 52.7568 26.5786 52.605 26.4177C52.3371 26.1346 52.1826 25.9461 52.2249 25.9461C52.6406 25.9461 55.2901 27.7369 56.1418 28.5926C58.6834 31.1483 59.8045 33.873 59.8045 37.4886C59.8045 41.1082 58.6725 43.8559 56.1418 46.3742C53.7958 48.7088 51.1681 49.8027 47.8965 49.8073C44.7903 49.8111 42.6904 48.987 40.6533 46.9646C38.7899 45.1149 37.8042 42.4284 37.7973 39.1817C37.7932 36.5909 38.3715 34.9297 39.8617 33.2545C41.3287 31.6049 43.2017 30.7829 45.4999 30.7797C47.7092 30.7766 49.3389 31.5839 50.4517 33.2324C51.1271 34.2335 51.3554 35.3625 51.1312 36.5944C50.9234 37.7322 49.2527 39.2392 48.5199 38.9501C48.4311 38.9151 48.3326 38.7626 48.2575 38.5612C48.2137 38.4427 48.1768 38.3075 48.1536 38.1691C47.8569 36.3541 47.295 35.6095 46.2245 35.6095C45.4876 35.6095 44.5142 36.455 44.2284 37.3439C43.9386 38.2479 44.1068 40.1908 44.5538 41.0906C45.4288 42.851 47.3182 43.8923 49.6055 43.8755C54.828 43.8373 58.1297 39.4624 57.0524 34.0054Z" fill="#111111"/>
<path d="M79.2482 32.9252V28.0933H63.921V32.9252H68.624V47.4208H74.5451V32.9252H79.2482Z" fill="#111111"/>
<path d="M109.566 37.1309L109.555 28.0933H103.981V47.4208H109.555V43.3773L110.901 42.0276L113.932 47.4208H116.968C118.711 47.4208 120.006 47.3503 120.006 47.255C120.006 47.0914 118.583 44.6825 116.036 40.5363L114.72 38.394L119.916 33.2833H113.215L109.566 37.1309Z" fill="#111111"/>
<path d="M142.386 33.5517L142.289 29.1672H136.911L136.814 33.5517L134.984 33.6599V36.6834H136.726L136.728 40.4862C136.728 42.5875 136.81 44.5914 136.911 44.9649C137.165 45.9085 137.988 46.8023 138.955 47.1853C139.333 47.3353 139.719 47.4211 140.3 47.4635C140.687 47.4919 141.16 47.5007 141.776 47.4965C142.878 47.4894 143.995 47.4274 144.259 47.3591L144.738 47.2351V43.4838H143.867C143.228 43.4838 142.903 43.3881 142.647 43.1257C142.327 42.796 142.3 42.5293 142.3 39.7255V36.6834H146.654L146.657 40.6653C146.66 43.5297 146.689 44.4397 146.855 45.0241C146.891 45.1488 146.932 45.2589 146.981 45.3699C147.36 46.2277 148.136 46.9418 149.044 47.2691C149.759 47.5269 152.919 47.5844 154.013 47.3598L154.666 47.2256V43.4838H153.795C153.157 43.4838 152.831 43.3881 152.576 43.1257C152.368 42.9123 152.283 42.7256 152.249 41.8618C152.23 41.3899 152.227 40.7161 152.227 39.7255V36.6834H154.666V33.6575L152.314 33.5517L152.216 29.1672H146.839L146.741 33.5517H142.386Z" fill="#111111"/>
<path fill-rule="evenodd" clip-rule="evenodd" d="M91.0645 35.3411C90.3645 34.0415 88.9892 33.23 86.9808 32.9318C85.816 32.7587 84.1453 32.7268 83.2539 32.8603C81.0391 33.1929 79.6993 33.7563 78.7765 34.744C78.2201 35.34 77.6814 36.5825 77.6814 37.2675C77.6814 37.475 77.7115 37.5601 77.9425 37.5692C78.0779 37.5745 78.2843 37.5535 78.5947 37.5153C79.0978 37.4529 80.2298 37.4014 81.1089 37.4007C82.5526 37.3993 82.7194 37.3646 82.8192 37.0422C83.0325 36.3499 83.4112 36.1466 84.4857 36.1466C85.6451 36.1466 86.2152 36.5251 86.2152 37.2949C86.2152 37.7854 85.7654 37.9277 83.0803 38.2865C79.9085 38.7104 78.3035 39.5556 77.5214 41.2143C76.9842 42.3548 77.0224 44.0269 77.6117 45.2431C78.4142 46.898 79.7704 47.6086 82.1438 47.6177C83.783 47.624 84.7756 47.3955 85.8228 46.7722L86.5638 46.3321V47.4208H89.264C90.7487 47.4208 91.9627 47.3563 91.9627 47.2775C91.9627 47.199 91.8657 47.0339 91.7453 46.911C91.5854 46.7463 91.5047 45.2673 91.4405 41.283C91.3666 36.695 91.3092 35.797 91.0645 35.3411ZM83.9102 41.5955C84.4598 41.4389 85.1051 41.242 85.3443 41.1583C86.0757 40.9032 86.2152 40.9533 86.2152 41.4733C86.2152 43.2347 83.6408 44.7757 82.5581 43.6625C81.8061 42.8906 82.3639 42.0377 83.9102 41.5955Z" fill="#111111"/>
<path fill-rule="evenodd" clip-rule="evenodd" d="M134.565 39.9866C134.254 36.4693 132.86 34.3523 130.134 33.2591C128.734 32.6974 125.73 32.6074 124.318 33.0846C122.26 33.7798 120.968 34.9578 120.046 36.9813C119.609 37.9392 119.57 38.2027 119.574 40.173C119.578 42.6527 119.896 43.7529 121.042 45.2413C123.174 48.0119 127.646 48.7582 131.249 46.9446C132.186 46.4737 134.44 44.2963 134.223 44.0732C134.163 44.0118 133.136 43.542 131.941 43.0283L129.769 42.0949L129.428 42.6888C128.559 44.2017 126.272 44.2992 125.406 42.8598C125.213 42.5402 125.056 42.0665 125.056 41.8072V41.3363H134.684L134.565 39.9866ZM125.319 37.6228C125.466 37.2539 125.749 36.811 125.95 36.6386C126.062 36.5415 126.225 36.4637 126.419 36.4098C126.617 36.3551 126.847 36.3253 127.092 36.3253C127.719 36.3253 127.968 36.4266 128.38 36.8485C128.678 37.1561 128.888 37.5615 128.888 37.8327V38.2938H125.052L125.319 37.6228Z" fill="#111111"/>
<path d="M102.588 37.757V32.9252L101.761 32.9311C100.762 32.9381 99.3536 33.4133 98.6563 33.9784L98.1464 34.3926L98.0917 33.7486L98.0384 33.1042H92.8336V47.4208H98.2093L98.2653 43.5283C98.3145 40.0184 98.3542 39.5766 98.6686 39.03C99.1813 38.139 100.003 37.757 101.41 37.757H102.588Z" fill="#111111"/>
</svg>
