<svg width="190" height="76" viewBox="0 0 190 76" fill="none" xmlns="http://www.w3.org/2000/svg">
<path d="M38.0889 56.9989C33.7465 56.7348 29.6801 54.9229 26.2527 51.7098C24.067 49.6631 22.0701 46.34 21.206 43.3324C21.039 42.7529 20.6977 41.2564 20.6977 41.117C20.6977 41.1096 21.1769 41.0803 21.7651 41.0656C22.6002 41.0363 22.9487 40.9923 23.3409 40.8676C23.6168 40.7722 23.8637 40.7282 23.8927 40.7649C23.9218 40.7942 24.0017 41.1023 24.067 41.4471C24.4591 43.3691 25.6645 45.9879 26.9353 47.6678C27.9519 49.0103 29.0121 50.0006 30.537 51.0203C31.0961 51.3944 31.953 51.9079 32.4395 52.1573C33.427 52.6561 35.1335 53.2577 35.6055 53.2797H35.8607L35.8741 39.0997H30.065V31.3237H44.1522V42.1073C44.1522 51.6878 44.1667 52.8909 44.2611 52.8909C44.3192 52.8909 44.6533 52.7735 45.0018 52.6341C45.6263 52.3847 46.0112 52.0913 46.3379 51.6291L46.4831 51.4311L45.8006 50.7122C45.4302 50.316 44.9728 49.8245 44.7912 49.6265L44.4499 49.2523L45.4665 48.1667C46.0184 47.5651 46.4759 47.0516 46.4759 47.0223C46.4759 47.0003 46.0184 46.4941 45.452 45.8999L44.4282 44.8215L45.452 43.7432C46.0184 43.149 46.4759 42.6428 46.4759 42.6208C46.4759 42.5988 46.0184 42.0853 45.4665 41.4838L44.4572 40.3907L45.1107 39.6718C45.4738 39.2757 45.7933 38.9309 45.8224 38.9163C45.8587 38.8942 46.0184 38.7182 46.1782 38.5201L46.4759 38.168L45.4593 37.075L44.4499 35.982L44.7259 35.6885C44.8711 35.5271 45.3286 35.0356 45.7352 34.5955C46.1491 34.1553 46.4759 33.7739 46.4614 33.7372C46.4468 33.7079 46.1201 33.3337 45.7352 32.9083L45.0236 32.1453L45.6408 31.5952L46.2508 31.045L46.9261 31.7492C47.2964 32.138 47.8773 32.7469 48.2114 33.099L48.8141 33.7445L47.7829 34.8449C47.2166 35.4464 46.7663 35.9746 46.7809 36.0113C46.7881 36.048 47.1657 36.4588 47.6014 36.9136C48.0444 37.3757 48.4946 37.8599 48.6108 37.9846L48.8213 38.212L47.8919 39.1657C47.3836 39.6865 46.9188 40.1853 46.8607 40.2734C46.7591 40.4201 46.8027 40.4788 47.7829 41.5205L48.8141 42.6208L47.8047 43.6918C47.2529 44.2787 46.8027 44.7849 46.8027 44.8215C46.8027 44.8509 47.2529 45.3644 47.8047 45.9513L48.8068 47.0296L47.7902 48.1153C47.2238 48.7168 46.7663 49.2303 46.7663 49.2597C46.7663 49.3697 48.1751 50.7635 48.2913 50.7635C48.4655 50.7635 49.5475 49.8612 50.2736 49.113C52.6118 46.6995 54.1803 43.5598 54.6378 40.3467C55.0952 37.1777 54.6233 34.0967 53.2363 31.2137C50.1211 24.7289 43.1429 21.2224 36.1646 22.6382C32.5121 23.3791 28.9394 25.6605 26.7683 28.6389C26.2309 29.3724 25.8461 30.0326 25.2942 31.1624C25.0328 31.6905 24.8077 32.1307 24.7859 32.1307C24.7714 32.1307 24.539 32.0206 24.2703 31.8813C23.6386 31.5585 23.0286 31.3604 22.3388 31.2504C22.0338 31.199 21.7869 31.1183 21.7869 31.0743C21.7869 30.9203 22.9415 28.6389 23.3481 27.986C25.0981 25.191 27.5017 22.9243 30.3917 21.3324C32.2507 20.3054 34.0225 19.6892 36.2735 19.2858C37.37 19.0877 39.9043 19.0143 41.1169 19.139C46.73 19.7332 51.8566 22.9096 54.9936 27.7292C55.7125 28.8369 56.7146 30.9203 57.0631 32.0426C57.7094 34.0967 57.9708 35.8279 57.9708 38.036C57.9708 39.6938 57.8473 40.8309 57.5061 42.3934C57.2301 43.6698 57.0195 44.3301 56.4822 45.5478C54.4199 50.272 50.6803 53.8885 45.8804 55.7885C43.4842 56.7348 40.7538 57.153 38.0889 56.9989Z" fill="#111111"/>
<path d="M37.8775 33.3045C37.1348 33.3045 36.5328 33.9144 36.5328 34.6668C36.5328 35.043 36.8378 35.348 37.214 35.348H38.541C38.9172 35.348 39.2222 35.043 39.2222 34.6668C39.2222 33.9144 38.6202 33.3045 37.8775 33.3045Z" fill="white"/>
<path d="M108.787 45.4228C108.387 44.7112 107.618 43.2954 107.618 43.2587C107.618 43.2367 107.857 43.1487 108.148 43.0607C108.801 42.8553 109.005 42.7526 109.368 42.4225C109.709 42.107 109.898 41.7622 110.05 41.1754C110.116 40.9406 110.29 39.1801 110.45 37.2654C110.784 33.2234 110.871 32.2404 110.929 31.7123L110.965 31.3235H121.197V45.4081H117.203V34.1844H114.531L114.487 34.5365C114.465 34.7273 114.378 35.7102 114.298 36.7152C113.899 41.7622 113.666 42.8699 112.752 44.0803C112.105 44.9313 110.726 45.6575 109.346 45.8703C109.07 45.9143 109.07 45.9143 108.787 45.4228Z" fill="#111111"/>
<path d="M93.022 31.324H97.0885V34.8819C97.0885 37.8015 97.103 38.4397 97.1829 38.4397C97.2918 38.4397 98.6787 37.244 100.356 35.6961C104.096 32.241 105.57 30.9572 105.78 30.9572H105.947V45.4087H101.881V41.8142C101.881 39.8409 101.859 38.2197 101.823 38.2197C101.729 38.2197 97.0449 42.3864 95.3094 44.0149C94.1476 45.1006 93.3996 45.7021 93.2036 45.7021H93.022V31.324Z" fill="#111111"/>
<path d="M151.259 42.0709C149.255 40.0756 147.57 38.4397 147.512 38.4397C147.425 38.4397 147.41 38.9312 147.41 41.9242V45.4087L145.399 45.394L143.38 45.372L143.358 38.1683L143.344 30.9572H143.533C143.758 30.9572 143.816 31.0086 145.994 33.1213C147.374 34.4564 149.48 36.4737 150.656 37.5888C150.903 37.8235 151.143 37.9922 151.179 37.9629C151.237 37.9336 151.259 36.8625 151.259 34.6178V31.324H155.325V45.7021H155.115C154.926 45.7021 154.403 45.2033 151.259 42.0709Z" fill="#111111"/>
<path d="M68.5506 31.3235H78.4262V34.3311L75.5071 34.3458L72.5807 34.3678L72.5589 39.8916L72.5444 45.4081H68.5506V31.3235Z" fill="#111111"/>
<path d="M80.1691 31.3235H83.0955C84.7002 31.3235 86.3196 31.3601 86.6899 31.3968C87.4814 31.4848 88.331 31.6976 88.7812 31.925C89.5654 32.3138 90.4513 33.2454 90.8435 34.0817C91.4534 35.3581 91.4171 36.994 90.7636 38.2998C90.4223 38.9893 89.4493 39.943 88.7376 40.2878C87.8299 40.7279 87.4306 40.8013 85.7096 40.8379L84.1629 40.8746V45.4081H80.1691V31.3235ZM86.2179 37.7863C87.2127 37.3975 87.6048 36.3631 87.1546 35.3361C86.8206 34.5805 86.2978 34.3165 85.0561 34.2724L84.1629 34.2431V36.0697C84.1629 37.0747 84.1847 37.9256 84.221 37.955C84.3299 38.0797 85.7822 37.9477 86.2179 37.7863Z" fill="#111111"/>
<path d="M123.956 31.3235H128.022V36.6052H129.25C132.786 36.6052 134.427 37.2654 135.277 39.0333C136.417 41.4175 135.567 44.007 133.33 44.9606C132.452 45.3348 132.256 45.3494 127.971 45.3861L123.956 45.4228V31.3235ZM130.687 42.4371C130.949 42.3564 131.138 42.2317 131.355 41.997C131.515 41.8209 131.653 41.6449 131.653 41.6155C131.66 41.5789 131.689 41.4101 131.726 41.2267C131.835 40.6692 131.697 40.2217 131.297 39.8256C130.825 39.3635 130.498 39.2828 129.148 39.2828H128.059L128.037 40.9186L128.022 42.5472H129.17C129.983 42.5472 130.426 42.5178 130.687 42.4371Z" fill="#111111"/>
<path d="M166.29 42.7673H169.558V39.4295C169.558 36.7373 169.536 36.0917 169.463 36.0917C169.412 36.0917 168.737 36.3558 167.96 36.6786C167.19 37.0013 166.501 37.2801 166.421 37.3094C166.297 37.3461 166.29 37.2654 166.29 35.7249V34.1037L166.711 33.913C166.936 33.8103 168.12 33.2748 169.34 32.7173C170.56 32.1597 171.627 31.6829 171.722 31.6536C171.816 31.6242 172.136 31.4922 172.433 31.3528C172.731 31.2134 173.058 31.1034 173.159 31.1034H173.334V42.7673H176.311V45.4081H166.29V42.7673Z" fill="#111111"/>
<path d="M156.705 38.5127H163.676V40.5667H156.705V38.5127Z" fill="#111111"/>
<path d="M158.825 37.4121C158.121 37.2214 157.649 36.9573 157.22 36.4951C156.581 35.8129 156.298 35.028 156.364 34.0817C156.451 32.7172 157.213 31.6976 158.477 31.2501C159.072 31.0373 159.864 30.9346 160.503 30.986C162.333 31.14 163.567 32.1597 163.836 33.7369C164.061 35.0573 163.4 36.4291 162.231 37.0673C161.359 37.5515 159.9 37.6982 158.825 37.4121ZM160.822 35.3728C161.316 35.0207 161.483 34.0597 161.149 33.5095C160.815 32.9666 159.958 32.7759 159.479 33.1354C159.116 33.4141 159 33.6489 158.97 34.1697C158.941 34.7786 159.145 35.2334 159.537 35.4461C159.878 35.6369 160.51 35.6002 160.822 35.3728Z" fill="#111111"/>
<path d="M20.8429 39.7455C18.9476 39.5548 17.1758 38.6745 15.6872 37.178C14.8812 36.371 13.7484 34.8599 13.3418 34.0676L13.2256 33.8402L13.821 34.0383C14.4528 34.2583 15.6001 34.4784 16.0648 34.4784C16.2246 34.4784 16.8418 34.383 17.4445 34.2583C19.3034 33.8842 20.0151 33.9796 21.7796 34.8452C22.3968 35.1533 22.8543 35.3367 22.8906 35.3C22.9342 35.256 22.7817 35.0726 22.5348 34.8452C21.2858 33.7155 20.0659 33.224 18.737 33.3267C18.4321 33.3487 18.1198 33.3927 18.0472 33.4147C17.9673 33.4367 18.2287 33.29 18.6354 33.0846C19.5866 32.6078 20.2983 32.4244 21.1987 32.4244C22.9196 32.4244 24.1831 33.0479 25.5919 34.5811C26.347 35.4027 26.7246 35.7108 27.1821 35.8795C27.3273 35.9309 27.4508 35.9969 27.4508 36.0263C27.4508 36.0923 26.3906 36.5691 25.9259 36.7085C24.8948 37.0166 23.3045 37.134 22.3097 36.9726C22.0555 36.9286 21.5981 36.8112 21.2931 36.7158C20.9881 36.6205 20.7194 36.5544 20.6976 36.5764C20.5742 36.7085 22.0555 37.5374 22.8761 37.7868C23.6022 38.0069 24.5462 38.0069 25.4829 37.7868C25.8533 37.6988 26.1728 37.6401 26.1873 37.6475C26.2381 37.7061 25.2869 38.4397 24.7132 38.7845C23.3408 39.6208 22.2588 39.8849 20.8429 39.7455Z" fill="#111111"/>
<path d="M38.3677 56.9989C34.0254 56.7348 29.959 54.9229 26.5315 51.7098C24.3458 49.6631 22.3489 46.34 21.4848 43.3324C21.3178 42.7529 20.9765 41.2564 20.9765 41.117C20.9765 41.1096 21.4558 41.0803 22.044 41.0656C22.879 41.0363 23.2276 40.9923 23.6197 40.8676C23.8956 40.7722 24.1425 40.7282 24.1716 40.7649C24.2006 40.7942 24.2805 41.1023 24.3458 41.4471C24.738 43.3691 25.9434 45.9879 27.2141 47.6678C28.2307 49.0103 29.2909 50.0006 30.8158 51.0203C31.3749 51.3944 32.2318 51.9079 32.7183 52.1573C33.7059 52.6561 35.4123 53.2577 35.8843 53.2797H36.1395L36.153 39.0997H30.3438V31.3237H44.4311V42.1073C44.4311 51.6878 44.4456 52.8909 44.54 52.8909C44.5981 52.8909 44.9321 52.7735 45.2806 52.6341C45.9051 52.3847 46.29 52.0913 46.6168 51.6291L46.762 51.4311L46.0794 50.7122C45.7091 50.316 45.2516 49.8245 45.0701 49.6265L44.7288 49.2523L45.7454 48.1667C46.2973 47.5651 46.7547 47.0516 46.7547 47.0223C46.7547 47.0003 46.2973 46.4941 45.7309 45.8999L44.707 44.8215L45.7309 43.7432C46.2973 43.149 46.7547 42.6428 46.7547 42.6208C46.7547 42.5988 46.2973 42.0853 45.7454 41.4838L44.736 40.3907L45.3896 39.6718C45.7526 39.2757 46.0721 38.9309 46.1012 38.9163C46.1375 38.8942 46.2972 38.7182 46.457 38.5201L46.7547 38.168L45.7381 37.075L44.7288 35.982L45.0047 35.6885C45.1499 35.5271 45.6074 35.0356 46.0141 34.5955C46.428 34.1553 46.7547 33.7739 46.7402 33.7372C46.7257 33.7079 46.3989 33.3337 46.0141 32.9083L45.3024 32.1453L45.9197 31.5952L46.5296 31.045L47.2049 31.7492C47.5753 32.138 48.1562 32.7469 48.4902 33.099L49.0929 33.7445L48.0618 34.8449C47.4954 35.4464 47.0452 35.9746 47.0597 36.0113C47.067 36.048 47.4446 36.4588 47.8802 36.9136C48.3232 37.3757 48.7734 37.8599 48.8896 37.9846L49.1002 38.212L48.1707 39.1657C47.6624 39.6865 47.1977 40.1853 47.1396 40.2734C47.0379 40.4201 47.0815 40.4788 48.0618 41.5205L49.0929 42.6208L48.0836 43.6918C47.5317 44.2787 47.0815 44.7849 47.0815 44.8215C47.0815 44.8509 47.5317 45.3644 48.0836 45.9513L49.0857 47.0296L48.069 48.1153C47.5027 48.7168 47.0452 49.2303 47.0452 49.2597C47.0452 49.3697 48.4539 50.7635 48.5701 50.7635C48.7444 50.7635 49.8263 49.8612 50.5525 49.113C52.8907 46.6995 54.4591 43.5598 54.9166 40.3467C55.3741 37.1777 54.9021 34.0967 53.5151 31.2137C50.4 24.7289 43.4217 21.2224 36.4434 22.6382C32.7909 23.3791 29.2183 25.6605 27.0471 28.6389C26.5098 29.3724 26.1249 30.0326 25.573 31.1624C25.3116 31.6905 25.0865 32.1307 25.0647 32.1307C25.0502 32.1307 24.8178 32.0206 24.5492 31.8813C23.9174 31.5585 23.3074 31.3604 22.6176 31.2504C22.3126 31.199 22.0657 31.1183 22.0657 31.0743C22.0657 30.9203 23.2203 28.6389 23.627 27.986C25.377 25.191 27.7805 22.9243 30.6706 21.3324C32.5295 20.3054 34.3013 19.6892 36.5524 19.2858C37.6488 19.0877 40.1831 19.0143 41.3958 19.139C47.0089 19.7332 52.1355 22.9096 55.2724 27.7292C55.9913 28.8369 56.9934 30.9203 57.3419 32.0426C57.9882 34.0967 58.2496 35.8279 58.2496 38.036C58.2496 39.6938 58.1262 40.8309 57.7849 42.3934C57.509 43.6698 57.2984 44.3301 56.761 45.5478C54.6988 50.272 50.9591 53.8885 46.1593 55.7885C43.763 56.7348 41.0327 57.153 38.3677 56.9989Z" fill="#111111"/>
<path d="M38.1563 33.3045C37.4136 33.3045 36.8116 33.9144 36.8116 34.6668C36.8116 35.043 37.1165 35.348 37.4927 35.348H38.8198C39.196 35.348 39.501 35.043 39.501 34.6668C39.501 33.9144 38.8989 33.3045 38.1563 33.3045Z" fill="white"/>
<path d="M109.066 45.4228C108.666 44.7112 107.896 43.2954 107.896 43.2587C107.896 43.2367 108.136 43.1487 108.426 43.0607C109.08 42.8553 109.283 42.7526 109.646 42.4225C109.988 42.107 110.177 41.7622 110.329 41.1754C110.394 40.9406 110.569 39.1801 110.728 37.2654C111.062 33.2234 111.15 32.2404 111.208 31.7123L111.244 31.3235H121.475V45.4081H117.482V34.1844H114.809L114.766 34.5365C114.744 34.7273 114.657 35.7102 114.577 36.7152C114.178 41.7622 113.945 42.8699 113.03 44.0803C112.384 44.9313 111.004 45.6575 109.625 45.8703C109.349 45.9143 109.349 45.9143 109.066 45.4228Z" fill="#111111"/>
<path d="M93.3008 31.324H97.3672V34.8819C97.3672 37.8015 97.3818 38.4397 97.4616 38.4397C97.5706 38.4397 98.9575 37.244 100.635 35.6961C104.375 32.241 105.849 30.9572 106.059 30.9572H106.226V45.4087H102.16V41.8142C102.16 39.8409 102.138 38.2197 102.102 38.2197C102.007 38.2197 97.3237 42.3864 95.5882 44.0149C94.4263 45.1006 93.6784 45.7021 93.4823 45.7021H93.3008V31.324Z" fill="#111111"/>
<path d="M151.538 42.0709C149.534 40.0756 147.849 38.4397 147.791 38.4397C147.704 38.4397 147.689 38.9312 147.689 41.9242V45.4087L145.678 45.394L143.659 45.372L143.637 38.1683L143.623 30.9572H143.812C144.037 30.9572 144.095 31.0086 146.273 33.1213C147.653 34.4564 149.759 36.4737 150.935 37.5888C151.182 37.8235 151.422 37.9922 151.458 37.9629C151.516 37.9336 151.538 36.8625 151.538 34.6178V31.324H155.604V45.7021H155.394C155.205 45.7021 154.682 45.2033 151.538 42.0709Z" fill="#111111"/>
<path d="M68.8294 31.3235H78.705V34.3311L75.7859 34.3458L72.8595 34.3678L72.8377 39.8916L72.8232 45.4081H68.8294V31.3235Z" fill="#111111"/>
<path d="M80.448 31.3235H83.3744C84.9792 31.3235 86.5985 31.3601 86.9688 31.3968C87.7603 31.4848 88.6099 31.6976 89.0601 31.925C89.8444 32.3138 90.7303 33.2454 91.1224 34.0817C91.7324 35.3581 91.6961 36.994 91.0425 38.2998C90.7012 38.9893 89.7282 39.943 89.0166 40.2878C88.1089 40.7279 87.7095 40.8013 85.9885 40.8379L84.4418 40.8746V45.4081H80.448V31.3235ZM86.4968 37.7863C87.4917 37.3975 87.8838 36.3631 87.4336 35.3361C87.0995 34.5805 86.5767 34.3165 85.335 34.2724L84.4418 34.2431V36.0697C84.4418 37.0747 84.4636 37.9256 84.4999 37.955C84.6089 38.0797 86.0611 37.9477 86.4968 37.7863Z" fill="#111111"/>
<path d="M124.235 31.3235H128.301V36.6052H129.528C133.065 36.6052 134.706 37.2654 135.555 39.0333C136.695 41.4175 135.846 44.007 133.609 44.9606C132.731 45.3348 132.535 45.3494 128.25 45.3861L124.235 45.4228V31.3235ZM130.966 42.4371C131.227 42.3564 131.416 42.2317 131.634 41.997C131.794 41.8209 131.932 41.6449 131.932 41.6155C131.939 41.5789 131.968 41.4101 132.004 41.2267C132.113 40.6692 131.975 40.2217 131.576 39.8256C131.104 39.3635 130.777 39.2828 129.427 39.2828H128.337L128.316 40.9186L128.301 42.5472H129.448C130.262 42.5472 130.705 42.5178 130.966 42.4371Z" fill="#111111"/>
<path d="M166.569 42.7673H169.837V39.4295C169.837 36.7373 169.815 36.0917 169.742 36.0917C169.691 36.0917 169.016 36.3558 168.239 36.6786C167.469 37.0013 166.78 37.2801 166.7 37.3094C166.576 37.3461 166.569 37.2654 166.569 35.7249V34.1037L166.99 33.913C167.215 33.8103 168.399 33.2748 169.619 32.7173C170.839 32.1597 171.906 31.6829 172.001 31.6536C172.095 31.6242 172.414 31.4922 172.712 31.3528C173.01 31.2134 173.337 31.1034 173.438 31.1034H173.613V42.7673H176.59V45.4081H166.569V42.7673Z" fill="#111111"/>
<path d="M156.984 38.5127H163.955V40.5667H156.984V38.5127Z" fill="#111111"/>
<path d="M159.104 37.4121C158.4 37.2214 157.928 36.9573 157.499 36.4951C156.86 35.8129 156.577 35.028 156.642 34.0817C156.729 32.7172 157.492 31.6976 158.755 31.2501C159.351 31.0373 160.142 30.9346 160.781 30.986C162.611 31.14 163.846 32.1597 164.114 33.7369C164.34 35.0573 163.679 36.4291 162.51 37.0673C161.638 37.5515 160.179 37.6982 159.104 37.4121ZM161.101 35.3728C161.595 35.0207 161.762 34.0597 161.428 33.5095C161.094 32.9666 160.237 32.7759 159.758 33.1354C159.394 33.4141 159.278 33.6489 159.249 34.1697C159.22 34.7786 159.423 35.2334 159.816 35.4461C160.157 35.6369 160.789 35.6002 161.101 35.3728Z" fill="#111111"/>
<path d="M21.1215 39.7455C19.2263 39.5548 17.4545 38.6745 15.9659 37.178C15.1599 36.371 14.0271 34.8599 13.6204 34.0676L13.5042 33.8402L14.0997 34.0383C14.7314 34.2583 15.8787 34.4784 16.3435 34.4784C16.5032 34.4784 17.1205 34.383 17.7232 34.2583C19.5821 33.8842 20.2937 33.9796 22.0583 34.8452C22.6755 35.1533 23.1329 35.3367 23.1693 35.3C23.2128 35.256 23.0603 35.0726 22.8134 34.8452C21.5645 33.7155 20.3445 33.224 19.0157 33.3267C18.7107 33.3487 18.3985 33.3927 18.3259 33.4147C18.246 33.4367 18.5074 33.29 18.914 33.0846C19.8653 32.6078 20.5769 32.4244 21.4773 32.4244C23.1983 32.4244 24.4618 33.0479 25.8705 34.5811C26.6257 35.4027 27.0033 35.7108 27.4608 35.8795C27.606 35.9309 27.7295 35.9969 27.7295 36.0263C27.7295 36.0923 26.6693 36.5691 26.2045 36.7085C25.1734 37.0166 23.5832 37.134 22.5883 36.9726C22.3342 36.9286 21.8767 36.8112 21.5717 36.7158C21.2668 36.6205 20.9981 36.5544 20.9763 36.5764C20.8528 36.7085 22.3342 37.5374 23.1547 37.7868C23.8809 38.0069 24.8249 38.0069 25.7616 37.7868C26.1319 37.6988 26.4514 37.6401 26.466 37.6475C26.5168 37.7061 25.5655 38.4397 24.9919 38.7845C23.6195 39.6208 22.5375 39.8849 21.1215 39.7455Z" fill="#111111"/>
</svg>
