<svg width="32" height="32" viewBox="0 0 32 32" fill="none" xmlns="http://www.w3.org/2000/svg">
<path d="M14.35 20.6052L20.3105 16.7763C20.6035 16.5903 20.75 16.332 20.75 16.0013C20.75 15.6706 20.6035 15.4114 20.3105 15.2237L14.35 11.3948C14.043 11.1842 13.7281 11.1674 13.4053 11.3442C13.0825 11.521 12.9211 11.7966 12.9211 12.1711V19.8289C12.9211 20.2034 13.0825 20.479 13.4053 20.6558C13.7281 20.8326 14.043 20.8158 14.35 20.6052ZM16.0023 29C14.2043 29 12.5142 28.6588 10.9321 27.9764C9.35004 27.294 7.97384 26.368 6.80354 25.1982C5.63321 24.0284 4.70671 22.6528 4.02403 21.0714C3.34134 19.49 3 17.8003 3 16.0023C3 14.2043 3.34119 12.5142 4.02358 10.9321C4.70597 9.35004 5.63205 7.97384 6.80183 6.80354C7.97162 5.63322 9.34722 4.70671 10.9286 4.02403C12.51 3.34134 14.1997 3 15.9977 3C17.7957 3 19.4858 3.3412 21.0679 4.02358C22.65 4.70597 24.0262 5.63205 25.1965 6.80183C26.3668 7.97162 27.2933 9.34722 27.976 10.9286C28.6587 12.51 29 14.1997 29 15.9977C29 17.7957 28.6588 19.4858 27.9764 21.0679C27.294 22.65 26.368 24.0262 25.1982 25.1965C24.0284 26.3668 22.6528 27.2933 21.0714 27.976C19.49 28.6587 17.8003 29 16.0023 29ZM16 26.9474C19.0561 26.9474 21.6448 25.8869 23.7658 23.7658C25.8869 21.6448 26.9474 19.0561 26.9474 16C26.9474 12.9439 25.8869 10.3552 23.7658 8.23419C21.6448 6.11313 19.0561 5.0526 16 5.0526C12.9439 5.0526 10.3552 6.11313 8.23419 8.23419C6.11313 10.3552 5.0526 12.9439 5.0526 16C5.0526 19.0561 6.11313 21.6448 8.23419 23.7658C10.3552 25.8869 12.9439 26.9474 16 26.9474Z" fill="#111111"/>
</svg>
