<svg width="190" height="76" viewBox="0 0 190 76" fill="none" xmlns="http://www.w3.org/2000/svg">
<path d="M103.949 49.4946V43.3428H101.176C99.6029 43.3428 98.2851 42.7561 97.224 41.5806C96.1619 40.4051 95.6318 39.0292 95.6318 37.4529C95.6318 35.7274 96.2871 34.2716 97.5977 33.0819C98.9094 31.8939 100.414 31.3011 102.113 31.3011H105.409L111.741 25H102.412C98.816 25 95.7068 26.2207 93.0834 28.6639C90.4611 31.1068 89.1504 34.0487 89.1504 37.4898C89.1504 40.8058 90.2678 43.6353 92.5031 45.9802C94.7381 48.3232 97.5045 49.4946 100.802 49.4946H103.949Z" fill="#111111"/>
<path d="M109.812 44.9667H117.057V49.4947H110.718L109.812 44.9667ZM105.478 35.9717L109.812 30.4768V44.9667L110.718 49.4947L105.478 49.4948V35.9717Z" fill="#111111"/>
<path d="M117.961 35.7034L122.489 30.4768V49.4948H117.961V35.7034Z" fill="#111111"/>
<path d="M135.17 44.9667L135.202 49.4948H132.739C130.095 49.4948 127.877 48.5855 126.085 46.7662C124.294 44.9457 123.397 42.7486 123.397 40.1741C123.397 37.5025 124.448 35.2184 126.551 33.3215C128.654 31.4247 131.147 30.4768 134.03 30.4768H141.51L136.982 35.0049H133.812C132.45 35.0049 131.243 35.4652 130.192 36.3874C129.141 37.3113 128.594 38.8058 128.594 40.1457C128.594 41.3693 129.019 42.4374 129.87 43.3503C130.721 44.2628 131.746 44.9667 133.008 44.9667H135.17Z" fill="#111111"/>
<path d="M141.511 38.6274L149.501 30.4768H156.001L147.685 39.0004L151.46 42.8559V49.4659L144.562 42.464L141.511 45.8723V38.6274ZM136.983 35.9105L141.511 31.3824V49.4948H136.983V35.9105Z" fill="#111111"/>
<path d="M46.7234 43.406V43.3433H44.0261C42.4525 43.3433 41.1346 42.7567 40.0736 41.5811C39.0114 40.4056 38.4814 39.0297 38.4814 37.4535C38.4814 35.7279 39.1367 34.2721 40.4473 33.0824C41.759 31.8944 43.2639 31.3016 44.963 31.3016H48.259L54.5906 25.0005H45.2617C41.6656 25.0005 38.5564 26.2213 35.9329 28.6644C33.3106 31.1074 32 34.0493 32 37.4903C32 40.8063 33.1174 43.6358 35.3526 45.9808C37.5877 48.3238 40.3541 49.4952 43.6512 49.4952H46.7234V49.4718L58.6444 37.5785V42.5175H55.1433L50.5504 47.0594H58.6444V49.4718H63.7785V30.8232H59.3289L46.7234 43.406Z" fill="#111111"/>
<path d="M79.3862 40.6404C80.4777 39.5209 81.0233 38.1177 81.0233 36.4312C81.0233 34.4581 80.4729 32.9778 79.3717 31.9921C78.2701 31.0049 76.7866 30.5118 74.9206 30.5118H70.0498L65.0102 35.691V49.3581H70.0498V35.3651H73.5768C74.4165 35.3651 75.0091 35.54 75.3544 35.8865C75.6998 36.2344 75.8725 36.7178 75.8725 37.3352C75.8725 37.9539 75.6768 38.4642 75.2844 38.8704C74.8931 39.2767 74.3235 39.4783 73.5768 39.4783H71.1413L81.4996 50.5158V44.3921L78.7456 41.2037C78.9709 41.035 79.1845 40.8473 79.3862 40.6404Z" fill="#111111"/>
</svg>
