<svg width="190" height="76" viewBox="0 0 190 76" fill="none" xmlns="http://www.w3.org/2000/svg">
<path d="M21 35.7547V46.5094H24.6098V25H21V35.7547ZM135.743 35.7547V46.5094H139.293V25H135.743V35.7547ZM79.4958 30.4396C79.3005 30.4679 78.91 30.5528 78.62 30.6321C78.3359 30.7113 77.9099 30.8642 77.6791 30.9774C77.4424 31.0906 77.0873 31.2887 76.892 31.4245C76.6968 31.5547 76.3299 31.8717 76.0813 32.1264C75.6553 32.5509 75.602 32.5849 75.383 32.5849H75.1463V30.7736H71.5366C71.5366 50.7151 71.5484 51.9491 71.6254 51.9717C71.6727 51.9887 72.4657 52 73.3888 52C74.306 52 75.0872 51.9774 75.1286 51.9547C75.1818 51.9264 75.2055 50.2396 75.2174 44.5849L75.2351 37.2547C75.4718 36.4226 75.6553 35.9755 75.7854 35.7264C75.9216 35.4774 76.1346 35.1547 76.2529 35.0132C76.3772 34.8717 76.6139 34.6453 76.7737 34.5151C76.9394 34.3849 77.2471 34.1868 77.472 34.0792C77.6909 33.9717 78.0756 33.8302 78.3241 33.7623C78.7147 33.6547 78.9277 33.6321 79.7029 33.6321C80.484 33.6321 80.6912 33.6547 81.0936 33.7623C81.3539 33.8358 81.7267 33.9774 81.922 34.0736C82.1173 34.1755 82.4428 34.4075 82.6499 34.5943C82.857 34.7811 83.1233 35.0755 83.2417 35.2453C83.36 35.4151 83.5316 35.7491 83.6263 35.9811C83.721 36.2132 83.8512 36.6377 83.9104 36.9151C83.9695 37.1925 84.0405 37.7302 84.0583 38.1038C84.082 38.4943 84.0701 39.0321 84.0287 39.3774C83.9932 39.7057 83.9104 40.1755 83.8393 40.4245C83.7743 40.6736 83.6204 41.0698 83.502 41.3019C83.3482 41.6132 83.1707 41.8396 82.8452 42.1509C82.5848 42.4 82.2416 42.6547 82.0404 42.7566C81.8451 42.8585 81.4723 42.9943 81.2119 43.0623C80.7858 43.1755 80.5728 43.1925 79.0342 43.2094L77.3359 43.2264V46.5377C80.342 46.4755 81.2119 46.4302 81.5078 46.3792C81.7682 46.334 82.1942 46.2377 82.4546 46.1698C82.715 46.0962 83.0996 45.9717 83.3127 45.8811C83.5257 45.7962 83.8808 45.6264 84.1056 45.5075C84.3246 45.3887 84.7152 45.1283 84.9696 44.9302C85.23 44.7321 85.6028 44.3811 85.8099 44.1547C86.017 43.9226 86.3188 43.5264 86.4786 43.2717C86.6443 43.0113 86.8633 42.6094 86.9639 42.3774C87.0645 42.1453 87.2183 41.7377 87.2952 41.4717C87.3781 41.2057 87.4846 40.7472 87.5438 40.4528C87.597 40.1585 87.6562 39.4962 87.674 38.9811C87.6976 38.4151 87.6799 37.7925 87.6385 37.3962C87.597 37.0396 87.5142 36.4906 87.4491 36.1792C87.384 35.8679 87.2479 35.3811 87.1532 35.1038C87.0526 34.8264 86.8633 34.3792 86.7271 34.1132C86.5851 33.8472 86.3425 33.4396 86.1827 33.2075C86.017 32.9755 85.662 32.5679 85.3839 32.2962C85.0998 32.0189 84.6501 31.6623 84.3483 31.4755C84.0524 31.2943 83.5908 31.0509 83.3127 30.9377C83.0345 30.8245 82.5966 30.6774 82.3363 30.6151C82.0759 30.5472 81.638 30.4679 81.3599 30.434C81.0817 30.4057 80.632 30.383 80.3539 30.383C80.0757 30.3887 79.6911 30.4113 79.4958 30.4396ZM151.543 30.8302C151.543 30.8585 153.076 34.034 154.946 37.8774L158.348 44.8679C155.786 50.2396 155.028 51.8472 155.011 51.9038C154.975 51.9943 155.094 52 156.881 52H158.792C166.592 35.7943 168.888 31.0226 168.929 30.9321L169 30.7736L165.006 30.7792C162.136 36.8925 161.195 38.9358 161.059 39.2642C160.922 39.5925 160.739 40.0849 160.65 40.3679L160.49 40.8774L160.035 40.9113C159.733 40.0057 159.443 39.2925 159.189 38.7434C158.94 38.1887 157.999 36.1736 157.106 34.2547L155.478 30.7736C152.235 30.7736 151.543 30.7962 151.543 30.8302ZM44.3451 30.4113C44.2504 30.4226 43.9545 30.4623 43.6941 30.4962C43.4337 30.5302 42.9722 30.6208 42.6704 30.6943C42.3745 30.7679 41.8952 30.9264 41.6052 31.0453C41.3212 31.1585 40.8773 31.3849 40.617 31.5377C40.3566 31.6906 39.9187 32.0245 39.6465 32.2736C39.3802 32.5226 39.0369 32.8906 38.9008 33.0943C38.7588 33.2981 38.5635 33.6264 38.4689 33.8302C38.3683 34.034 38.2321 34.4075 38.1671 34.6623C38.096 34.9226 38.0428 35.183 38.0428 35.2453C38.0428 35.3585 38.0842 35.3585 39.966 35.3585H41.8892C41.9898 35.0302 42.0964 34.8208 42.1851 34.6792C42.2798 34.5377 42.4692 34.3226 42.6112 34.2038C42.7473 34.0792 43.0254 33.9094 43.2207 33.8189C43.416 33.734 43.7474 33.6208 43.9604 33.5642C44.2385 33.4962 44.5818 33.4679 45.1735 33.4679C45.6469 33.4679 46.1559 33.4962 46.3571 33.5415C46.5523 33.5811 46.8956 33.7 47.1264 33.8019C47.3571 33.9038 47.6589 34.1019 47.8069 34.2377C47.9548 34.3792 48.1442 34.617 48.2329 34.7698C48.3217 34.9226 48.4341 35.2 48.4815 35.3868C48.5643 35.6755 48.5762 36.1849 48.5762 38.7264V41.7264C47.8187 42.417 47.44 42.7283 47.2447 42.8585C47.0494 42.9943 46.718 43.1925 46.505 43.3057C46.292 43.4132 45.8955 43.583 45.6174 43.6736C45.3392 43.7642 44.9013 43.866 44.6409 43.9057C44.3451 43.9509 43.9131 43.9679 43.487 43.9453C43.0136 43.9283 42.7 43.883 42.4514 43.7981C42.2561 43.7302 41.9839 43.6113 41.8419 43.5377C41.7058 43.4585 41.4987 43.3 41.3803 43.1811C41.262 43.0679 41.1022 42.8528 41.0253 42.7C40.9483 42.5528 40.8596 42.2868 40.8359 42.1057C40.8063 41.9302 40.8063 41.6019 40.8359 41.3868C40.8655 41.166 40.9483 40.8604 41.0194 40.7075C41.0963 40.5491 41.2679 40.317 41.404 40.1811C41.5401 40.0509 41.7946 39.8755 41.9603 39.7962C42.1319 39.7113 42.4455 39.6094 42.6585 39.5698C42.9307 39.5132 43.5343 39.4906 44.712 39.4906H46.3866V37C42.3804 37.0396 42.0194 37.0566 41.5342 37.1585C41.2265 37.2208 40.759 37.3396 40.4986 37.4245C40.2382 37.5038 39.8536 37.6623 39.6405 37.7698C39.4275 37.8774 39.0725 38.0981 38.8417 38.2623C38.6168 38.4208 38.2913 38.7208 38.1138 38.9245C37.9422 39.1283 37.6936 39.4962 37.5694 39.7453C37.4392 39.9943 37.2794 40.4019 37.2084 40.6509C37.1019 41.0189 37.0782 41.2623 37.0782 41.9245C37.0782 42.5925 37.1019 42.8302 37.2084 43.1981C37.2794 43.4472 37.4214 43.8264 37.5279 44.0472C37.6345 44.2623 37.8179 44.5679 37.9244 44.7264C38.0369 44.8792 38.2736 45.1509 38.457 45.3208C38.6345 45.4962 38.9541 45.7453 39.1671 45.8868C39.3802 46.0226 39.7766 46.2321 40.0548 46.3453C40.3329 46.4585 40.7826 46.6057 41.0608 46.6736C41.3389 46.7358 41.8715 46.8151 42.2443 46.8434C42.6526 46.8717 43.1734 46.8717 43.5462 46.8434C43.8894 46.8151 44.4338 46.7302 44.7593 46.6566C45.0848 46.5774 45.5582 46.4415 45.8067 46.3453C46.0612 46.2491 46.4636 46.0792 46.6944 45.966C46.9311 45.8528 47.3453 45.6208 47.6116 45.4566C47.9962 45.2132 48.156 45.1509 48.3395 45.1509H48.5762V46.5094L52.1563 46.4811C52.1859 38.0811 52.1682 35.7321 52.1327 35.3019C52.0972 34.8717 52.0143 34.4019 51.9196 34.0962C51.8368 33.8245 51.6829 33.434 51.5705 33.2189C51.464 33.0094 51.2509 32.6868 51.103 32.5C50.961 32.3132 50.6947 32.0415 50.5231 31.9C50.3455 31.7585 50.0437 31.5434 49.8485 31.4245C49.6532 31.3057 49.3218 31.1358 49.1088 31.0509C48.8957 30.966 48.5525 30.8415 48.3395 30.7792C48.1264 30.7113 47.6471 30.6038 47.2743 30.5415C46.8246 30.4679 46.2446 30.4226 45.5582 30.4057C44.9901 30.3943 44.4397 30.3943 44.3451 30.4113ZM60.8848 30.4396C60.6067 30.4736 60.0741 30.5755 59.7013 30.666C59.222 30.7792 58.8078 30.9321 58.3107 31.1698C57.9201 31.3566 57.4289 31.6453 57.2159 31.8094C57.0029 31.9736 56.6774 32.2849 56.488 32.5057C56.2987 32.7208 56.0442 33.1 55.914 33.3491C55.7898 33.5981 55.6418 33.9547 55.5886 34.1415C55.5353 34.3283 55.4761 34.7868 55.4584 35.1604C55.4347 35.6811 55.4465 35.9528 55.5235 36.3208C55.5826 36.5868 55.7188 36.9943 55.8371 37.2264C55.9495 37.4585 56.1685 37.7981 56.3164 37.9792C56.4703 38.166 56.7248 38.4094 56.8904 38.5283C57.0502 38.6415 57.3047 38.8113 57.4526 38.8962C57.6006 38.9868 57.9024 39.1283 58.1331 39.2189C58.3639 39.3094 58.7308 39.4283 58.9616 39.4906C59.1924 39.5528 59.6126 39.6377 59.9084 39.683C60.2043 39.734 61.2281 39.8472 62.1867 39.9434C63.1454 40.034 64.0922 40.1528 64.2875 40.2038C64.4828 40.2547 64.7076 40.3283 64.7905 40.3679C64.8733 40.4075 65.0272 40.5094 65.1396 40.6C65.2461 40.6906 65.3941 40.866 65.4651 40.9906C65.5598 41.1717 65.5834 41.3245 65.5894 41.7547C65.5894 42.1792 65.5657 42.3434 65.4651 42.5472C65.4 42.6887 65.2402 42.9151 65.11 43.0453C64.9799 43.1868 64.7254 43.3623 64.5242 43.4528C64.3289 43.5434 63.9857 43.6623 63.7549 43.7132C63.4413 43.7868 63.098 43.8151 62.3643 43.8094C61.5417 43.8094 61.3109 43.7925 60.9144 43.6849C60.6541 43.617 60.2812 43.4811 60.0919 43.3792C59.9025 43.2774 59.6362 43.1075 59.506 43C59.3699 42.8925 59.1687 42.6604 59.0504 42.4906C58.9379 42.3208 58.79 42.0434 58.7249 41.8792L58.6066 41.5849H54.908C54.908 41.8283 54.9495 42.0547 54.9968 42.2472C55.0441 42.4453 55.1684 42.8132 55.2749 43.0679C55.3755 43.3283 55.6122 43.7528 55.8016 44.0189C55.985 44.2849 56.346 44.6925 56.6064 44.9302C56.8609 45.1623 57.2396 45.4679 57.4526 45.6038C57.6657 45.7396 58.074 45.9604 58.3699 46.0906C58.6657 46.2264 59.1391 46.3962 59.435 46.4811C59.7309 46.5604 60.2043 46.6679 60.5002 46.7245C60.8908 46.7925 61.3642 46.8208 62.3051 46.8208C63.4058 46.8208 63.6661 46.8038 64.2579 46.6849C64.6307 46.617 65.1633 46.4811 65.4414 46.3849C65.7196 46.2943 66.1515 46.1075 66.406 45.983C66.6664 45.8528 67.0747 45.5925 67.3232 45.4057C67.5777 45.2189 67.9209 44.8962 68.0925 44.6981C68.2641 44.4943 68.5245 44.0981 68.6725 43.8208C68.8145 43.5377 68.992 43.1075 69.063 42.8585C69.1636 42.5019 69.1873 42.2358 69.1932 41.6132C69.1932 40.9509 69.1695 40.7472 69.0571 40.3679C68.9861 40.1189 68.85 39.7623 68.7553 39.5755C68.6606 39.3887 68.4594 39.0887 68.3115 38.9075C68.1635 38.7321 67.8913 38.4717 67.702 38.3302C67.5185 38.1887 67.1635 37.9736 66.9208 37.8547C66.6782 37.7358 66.2581 37.566 65.9858 37.4868C65.7196 37.4075 65.2521 37.3 64.9503 37.2547C64.6544 37.2094 63.7253 37.1075 62.8968 37.0283C62.0684 36.9491 61.1748 36.8472 60.9144 36.7962C60.6541 36.7453 60.2931 36.6547 60.1156 36.5868C59.938 36.5189 59.6836 36.3887 59.5593 36.2925C59.4291 36.2019 59.2634 36.0094 59.1865 35.8679C59.0859 35.6811 59.0504 35.5226 59.0504 35.2736C59.0504 35.0868 59.0977 34.8038 59.151 34.6509C59.2161 34.4755 59.3581 34.2717 59.5238 34.1132C59.6717 33.9717 59.938 33.7906 60.1156 33.7057C60.2931 33.6264 60.6126 33.5132 60.8257 33.4566C61.1038 33.383 61.4352 33.3547 62.0388 33.3547C62.6601 33.3547 62.9619 33.3774 63.2519 33.4509C63.4649 33.5075 63.7845 33.6208 63.962 33.7C64.1395 33.7849 64.4354 33.9943 64.6189 34.1642C64.8497 34.3849 64.9858 34.5774 65.0745 34.8038C65.1455 34.9849 65.2047 35.183 65.2047 35.2453C65.2047 35.3585 65.2461 35.3585 66.9504 35.3585H68.6961C68.6429 34.9849 68.5896 34.6736 68.5423 34.4245C68.489 34.1755 68.3707 33.7906 68.2819 33.5755C68.1872 33.3547 68.0038 33.0264 67.8795 32.8396C67.7552 32.6528 67.5185 32.3642 67.3587 32.1943C67.199 32.0302 66.909 31.7755 66.7137 31.6396C66.5184 31.4981 66.1338 31.2774 65.8557 31.1415C65.5775 31.0113 65.181 30.8472 64.968 30.7792C64.755 30.717 64.3171 30.6094 63.9916 30.5472C63.5892 30.4679 63.0803 30.4226 62.3938 30.4057C61.8376 30.3943 61.163 30.4113 60.8848 30.4396ZM96.9232 30.4396C96.58 30.4679 96.0238 30.5585 95.6805 30.6377C95.3373 30.7113 94.8225 30.8698 94.5266 30.983C94.2307 31.0962 93.8046 31.2887 93.5798 31.4075C93.3549 31.5321 92.9643 31.7755 92.7217 31.9509C92.4791 32.1264 92.1181 32.4264 91.9228 32.6132C91.7275 32.8057 91.4553 33.1 91.3192 33.2698C91.1831 33.4396 90.9346 33.7906 90.7689 34.0566C90.6032 34.3226 90.3665 34.7925 90.2363 35.1038C90.112 35.4151 89.9463 35.8962 89.8812 36.1792C89.8102 36.4566 89.7156 36.9547 89.6682 37.283C89.6268 37.6113 89.5854 38.2226 89.5854 38.6415C89.5854 39.0604 89.6268 39.6717 89.6682 40C89.7156 40.3283 89.8102 40.8208 89.8812 41.1038C89.9463 41.3811 90.112 41.8679 90.2363 42.1792C90.3665 42.4906 90.6032 42.9604 90.7689 43.2264C90.9346 43.4925 91.1831 43.8491 91.3192 44.0189C91.4553 44.1887 91.7571 44.5057 91.9879 44.7264C92.2187 44.9415 92.6211 45.2642 92.8756 45.4396C93.13 45.6208 93.5798 45.8755 93.8756 46.017C94.1715 46.1585 94.6449 46.3509 94.9408 46.4472C95.2367 46.5377 95.6805 46.6566 95.9291 46.7019C96.1835 46.7528 96.6924 46.8151 97.0534 46.8434C97.4677 46.8774 97.9825 46.8774 98.4026 46.8434C98.7755 46.8151 99.3199 46.7358 99.6158 46.6679C99.9116 46.6057 100.314 46.4925 100.515 46.4189C100.722 46.3453 101.083 46.1925 101.314 46.0792C101.551 45.966 101.947 45.7453 102.19 45.5868C102.433 45.4283 102.876 45.0717 103.166 44.7887C103.462 44.5057 103.853 44.0585 104.036 43.7925C104.22 43.5264 104.468 43.1075 104.592 42.8585C104.711 42.6094 104.859 42.2642 104.924 42.0943C104.983 41.9245 105.03 41.7377 105.03 41.6811C105.03 41.5906 104.906 41.5849 103.255 41.5849H101.48C101.178 42.1396 100.929 42.4509 100.711 42.6604C100.48 42.8811 100.154 43.1132 99.9116 43.2377C99.6808 43.3509 99.308 43.4981 99.0832 43.566C98.7814 43.6566 98.4618 43.7019 97.8996 43.7189C97.3375 43.7415 97.012 43.7245 96.6865 43.6623C96.4439 43.6113 96.0829 43.5151 95.8876 43.4472C95.6924 43.3736 95.3314 43.1868 95.0888 43.034C94.8343 42.8642 94.5207 42.5925 94.3372 42.3774C94.1597 42.1736 93.9289 41.8453 93.8224 41.6415C93.71 41.4377 93.5561 41.0698 93.4733 40.8208C93.3904 40.5717 93.2898 40.1642 93.2484 39.9151C93.207 39.666 93.1774 39.0943 93.1774 38.6415C93.1774 38.1887 93.207 37.617 93.2484 37.3679C93.2898 37.1189 93.3904 36.7113 93.4733 36.4623C93.5561 36.2132 93.7336 35.8057 93.8697 35.5623C93.9999 35.3132 94.2721 34.9453 94.4733 34.7415C94.6686 34.5377 94.9882 34.266 95.1834 34.1472C95.3728 34.0226 95.6924 33.8585 95.8876 33.7849C96.0829 33.7113 96.4143 33.6151 96.6273 33.5698C96.8404 33.5245 97.3434 33.4906 97.7517 33.4906C98.302 33.4906 98.6098 33.5189 98.9648 33.6038C99.2252 33.666 99.6098 33.7962 99.8229 33.8981C100.089 34.017 100.35 34.2094 100.651 34.5038C100.9 34.7415 101.166 35.0585 101.255 35.217C101.344 35.3698 101.48 35.7151 101.557 35.9811C101.634 36.2472 101.717 36.5811 101.74 36.7283L101.776 37H95.3255V39.4906H105.326C105.326 37.9792 105.297 37.2943 105.267 37C105.238 36.7057 105.172 36.2698 105.125 36.0377C105.072 35.8057 104.965 35.4094 104.877 35.1604C104.794 34.9113 104.634 34.5151 104.521 34.283C104.403 34.0509 104.16 33.6434 103.977 33.3774C103.794 33.1113 103.439 32.7038 103.196 32.466C102.953 32.2283 102.604 31.934 102.427 31.8094C102.249 31.6849 101.941 31.4981 101.746 31.3906C101.551 31.283 101.202 31.1132 100.977 31.017C100.752 30.9208 100.308 30.7792 100 30.7C99.6927 30.6208 99.237 30.5302 98.9944 30.4962C98.7518 30.4679 98.3257 30.4283 98.0476 30.417C97.7695 30.4 97.2665 30.4113 96.9232 30.4396ZM115.653 30.434C115.457 30.4623 115.126 30.5245 114.913 30.5755C114.7 30.6264 114.339 30.7566 114.114 30.8585C113.889 30.966 113.522 31.1925 113.297 31.3679C113.078 31.5377 112.735 31.883 112.528 32.1321C112.185 32.5623 112.149 32.5906 111.936 32.5849H111.717V30.7736H108.108V46.5094L111.688 46.4811C111.753 37.1528 111.753 37.0792 111.883 36.6321C111.954 36.383 112.12 35.9755 112.244 35.7264C112.374 35.4774 112.599 35.1434 112.741 34.9906C112.883 34.8321 113.155 34.6057 113.351 34.4811C113.54 34.3623 113.925 34.1811 114.203 34.0906C114.706 33.9208 114.712 33.9151 116.333 33.8868L117.96 33.8585L117.99 30.3774C116.451 30.3887 115.848 30.4113 115.653 30.434ZM125.091 30.434C124.849 30.4623 124.393 30.5415 124.085 30.6094C123.777 30.6717 123.286 30.8189 122.99 30.9264C122.695 31.034 122.245 31.2434 121.984 31.3906C121.683 31.5604 121.328 31.8321 120.978 32.1604C120.688 32.4377 120.357 32.8113 120.256 32.9811C120.15 33.1509 119.99 33.4566 119.907 33.6604C119.819 33.8642 119.712 34.2038 119.665 34.4245C119.6 34.7075 119.582 35.0415 119.606 35.5849C119.623 36.2245 119.653 36.4226 119.789 36.8019C119.878 37.0509 120.049 37.4075 120.168 37.5943C120.286 37.7811 120.535 38.0755 120.712 38.2453C120.89 38.4208 121.209 38.6698 121.422 38.8C121.635 38.9302 122.073 39.1396 122.399 39.2585C122.724 39.383 123.257 39.5358 123.582 39.6038C123.908 39.6717 125.038 39.8075 126.097 39.9151C127.156 40.017 128.21 40.1528 128.435 40.2038C128.659 40.2604 128.967 40.3849 129.115 40.4811C129.257 40.5717 129.441 40.7415 129.512 40.8491C129.589 40.9566 129.677 41.1887 129.713 41.3585C129.748 41.5283 129.766 41.817 129.742 41.9925C129.725 42.1736 129.665 42.417 129.612 42.5302C129.565 42.6491 129.458 42.8302 129.376 42.9264C129.299 43.0283 129.109 43.1925 128.949 43.2943C128.796 43.3962 128.5 43.5321 128.287 43.6C128.074 43.6679 127.636 43.7528 127.31 43.7925C126.961 43.8377 126.476 43.8491 126.127 43.8321C125.801 43.8151 125.334 43.7472 125.091 43.6906C124.849 43.6283 124.476 43.4981 124.263 43.3962C124.05 43.2943 123.73 43.0679 123.547 42.8925C123.328 42.683 123.138 42.4283 122.996 42.1509C122.878 41.9189 122.783 41.6925 122.783 41.6528C122.783 41.6019 122.363 41.5849 120.89 41.5849H118.996C119.049 41.8679 119.12 42.1566 119.185 42.4057C119.25 42.6547 119.392 43.0509 119.511 43.283C119.623 43.5151 119.836 43.883 119.99 44.1038C120.144 44.3189 120.458 44.6755 120.688 44.8962C120.919 45.1113 121.292 45.4113 121.517 45.5585C121.742 45.7 122.18 45.9377 122.487 46.0792C122.795 46.2151 123.286 46.3962 123.582 46.4811C123.878 46.5604 124.351 46.6679 124.647 46.7245C125.05 46.7981 125.494 46.8208 126.482 46.8151C127.606 46.8151 127.867 46.7981 128.405 46.6849C128.748 46.617 129.228 46.4981 129.47 46.4245C129.713 46.3453 130.139 46.1755 130.417 46.0396C130.695 45.9094 131.08 45.683 131.275 45.5472C131.47 45.4113 131.766 45.1679 131.932 45.0094C132.092 44.8566 132.346 44.5623 132.488 44.3585C132.63 44.1547 132.82 43.8377 132.914 43.6509C133.003 43.4642 133.127 43.1189 133.192 42.8868C133.252 42.6547 133.323 42.2302 133.346 41.9528C133.37 41.6415 133.358 41.2566 133.317 40.9623C133.281 40.6962 133.186 40.2887 133.11 40.0566C133.027 39.7962 132.849 39.4566 132.654 39.1849C132.482 38.9358 132.204 38.6189 132.033 38.4774C131.861 38.3302 131.553 38.1208 131.352 38.0019C131.145 37.883 130.766 37.7132 130.506 37.617C130.245 37.5208 129.808 37.3962 129.529 37.334C129.251 37.2774 128.239 37.1528 127.281 37.0566C126.322 36.9604 125.322 36.8472 125.062 36.7962C124.801 36.7453 124.44 36.6547 124.263 36.5868C124.085 36.5189 123.831 36.3887 123.701 36.2925C123.57 36.1962 123.405 36.0094 123.328 35.8679C123.209 35.6528 123.192 35.5453 123.209 35.1547C123.227 34.7642 123.251 34.6623 123.405 34.4189C123.505 34.266 123.718 34.0453 123.878 33.9264C124.044 33.8132 124.322 33.6604 124.499 33.5981C124.677 33.5302 125.05 33.4396 125.328 33.3943C125.677 33.3321 126.02 33.3151 126.452 33.3434C126.795 33.3604 127.233 33.417 127.429 33.4679C127.624 33.5189 127.938 33.6321 128.121 33.7226C128.31 33.8132 128.577 33.983 128.707 34.0962C128.843 34.2151 129.015 34.4132 129.091 34.5377C129.168 34.6623 129.263 34.9 129.305 35.0642L129.381 35.3585H132.814C132.749 34.7245 132.672 34.3453 132.607 34.1132C132.536 33.8811 132.376 33.4849 132.246 33.2358C132.121 32.9868 131.861 32.6019 131.672 32.3868C131.482 32.166 131.145 31.8547 130.914 31.6962C130.689 31.5321 130.305 31.2943 130.062 31.1755C129.819 31.0509 129.405 30.8811 129.145 30.8019C128.884 30.717 128.417 30.5981 128.109 30.5415C127.742 30.4736 127.192 30.4226 126.541 30.4113C125.991 30.3943 125.334 30.4057 125.091 30.434ZM31.4565 31.0113C31.344 31.1472 30.1782 32.6245 28.8527 34.2943L26.4561 37.334L26.4442 39.3774L31.7997 46.5094C35.1727 46.5094 36.161 46.4925 36.1787 46.4642C36.1906 46.4415 34.8058 44.6075 33.1016 42.3887C31.3914 40.1755 29.9948 38.3528 29.9948 38.3415C29.9948 38.3358 31.3381 36.6491 32.9773 34.5943C34.6224 32.5396 35.9539 30.8415 35.942 30.8132C35.9243 30.7906 34.9538 30.7736 33.788 30.7736H31.6577L31.4565 31.0113ZM144.406 33.2189C143.335 34.5604 142.164 36.0434 141.803 36.5019L141.14 37.3453L141.128 39.3151L146.483 46.4472L150.981 46.4528C150.744 46.1642 149.336 44.3358 147.697 42.2019C145.158 38.8962 144.732 38.3132 144.791 38.2283C144.826 38.1717 146.164 36.4962 147.756 34.5038C149.353 32.5113 150.655 30.8585 150.655 30.8245C150.655 30.7906 149.898 30.7679 148.501 30.7679H146.353L144.406 33.2189Z" fill="#111111"/>
</svg>
