<svg width="190" height="76" viewBox="0 0 190 76" fill="none" xmlns="http://www.w3.org/2000/svg">
<path d="M152.139 46.5956C152.076 46.5321 152.055 42.4209 152.055 37.4197V28.371H156.872L159.092 33.6052C160.327 36.5085 161.416 38.9455 161.5 39.0727C161.625 39.1998 161.688 37.0171 161.688 28.371H165.667V46.7016L163.426 46.6592C162.17 46.6168 161.165 46.5744 161.144 46.5532C161.144 46.5109 160.139 44.1586 158.924 41.2978C157.709 38.4369 156.6 36.0846 156.474 36.0423C156.306 36.0211 156.244 37.5045 156.244 46.5956L154.233 46.638C153.123 46.6804 152.181 46.6592 152.139 46.5956Z" fill="#111111"/>
<path fill-rule="evenodd" clip-rule="evenodd" d="M142.423 28.0107C143.533 28.0531 144.475 28.2226 144.936 28.4345C145.333 28.6252 146.087 29.1338 146.59 29.5789C147.134 30.0663 147.742 30.8927 148.098 31.6556C148.496 32.4821 148.768 33.5841 148.935 34.8343C149.082 35.9575 149.124 37.5257 149.04 38.6488C148.956 39.6872 148.789 41.0435 148.663 41.6156C148.537 42.209 148.223 43.099 147.972 43.6288C147.7 44.1586 147.176 44.8791 146.778 45.2394C146.401 45.6208 145.668 46.1294 145.145 46.3837C144.538 46.7016 143.658 46.8923 142.632 46.9771C141.522 47.0406 140.706 46.9771 139.847 46.7228C138.926 46.4685 138.402 46.1294 137.522 45.2817C136.727 44.4765 136.266 43.7983 135.952 42.9507C135.722 42.2726 135.428 41.1282 135.303 40.4077C135.198 39.666 135.093 38.3098 135.093 37.3773C135.093 36.4449 135.198 35.0675 135.324 34.3046C135.428 33.5417 135.784 32.3549 136.099 31.6768C136.475 30.8504 137.02 30.1086 137.711 29.4941C138.297 28.9643 139.177 28.4133 139.7 28.2438C140.287 28.0531 141.292 27.9683 142.423 28.0107ZM140.056 33.2238C139.763 33.9231 139.7 34.7284 139.7 37.5892C139.7 40.2382 139.784 41.2554 140.014 41.7852C140.182 42.1454 140.601 42.6328 140.957 42.8447C141.292 43.0355 141.878 43.205 142.213 43.205C142.611 43.205 143.093 42.9931 143.491 42.6328C143.826 42.2938 144.224 41.7004 144.37 41.2978C144.496 40.8951 144.6 39.1786 144.6 37.4833C144.6 35.6608 144.496 34.1138 144.349 33.6688C144.224 33.2662 143.889 32.7152 143.637 32.4397C143.365 32.1642 142.8 31.9311 142.318 31.8675C141.815 31.804 141.271 31.8675 140.957 32.0371C140.664 32.2066 140.266 32.7364 140.056 33.2238ZM23.667 28.371H35.6242V31.9735H31.8549V46.7016L27.7714 46.638L27.6667 31.9735L23.7926 31.8675L23.667 28.371ZM38.1371 28.371H47.1417V31.9735H42.3253V35.5761H46.5135V38.9667H42.3253V42.9931H47.7699L47.6652 46.6168H38.2418L38.1371 28.371ZM50.7017 28.371H54.8898V42.9931H57.2561C58.5335 42.9719 59.6434 43.0143 59.7062 43.0778C59.769 43.1202 59.7691 43.9467 59.6015 46.6168H50.8064L50.7017 28.371ZM62.2191 28.371H71.4331L71.3284 31.8675L66.6167 31.9735V35.5761H70.8049V38.9667H66.6167V42.9931L71.9566 43.099V46.5956H62.3238L62.2191 28.371ZM75.8516 28.371H81.1706L82.092 33.6264C82.5737 36.5085 83.0344 39.0515 83.0972 39.2846C83.16 39.5389 83.2647 39.6236 83.3694 39.4965C83.4532 39.3905 83.9976 36.8475 85.5682 28.371H88.2486C89.7145 28.371 90.9081 28.4557 90.9081 28.5405C90.9081 28.6252 91.2431 31.9311 91.662 35.8939C92.0598 39.8567 92.4787 43.8619 92.5834 44.7944C92.6881 45.7268 92.73 46.5321 92.6881 46.5744C92.6671 46.6168 91.7458 46.638 90.6778 46.638C89.5888 46.6168 88.7093 46.5956 88.6884 46.5532C88.6884 46.532 88.4999 43.6924 88.3114 40.2382C88.123 36.8052 87.9136 33.6688 87.8717 33.245C87.8089 32.8424 87.7251 32.5669 87.6623 32.6092C87.6204 32.6728 86.9712 35.8304 86.1964 39.6024C85.4426 43.3957 84.7934 46.5321 84.7515 46.5744C84.6887 46.6168 84.0186 46.6592 83.2438 46.6592C82.448 46.6592 81.7779 46.5744 81.757 46.4685C81.7151 46.3625 81.1497 43.3745 80.5005 39.7932C79.8304 36.233 79.2231 33.2238 79.1394 33.1178C79.0556 33.0119 78.9509 32.9907 78.909 33.0331C78.8671 33.0967 78.7624 33.9655 78.6996 34.9403C78.6158 35.9363 78.4274 38.9455 78.2389 41.6156C78.0504 44.3069 77.8619 46.5321 77.841 46.5744C77.7991 46.6168 76.8777 46.638 75.8098 46.638C73.8832 46.638 73.8413 46.638 73.9041 46.1506C73.9251 45.8751 74.3229 42.0818 74.8046 37.6952C75.2653 33.3298 75.6841 29.4517 75.7469 29.0703L75.8516 28.371ZM95.3057 28.371H104.52V31.9735H99.7033V35.5761H103.891V38.9667H99.7033V42.9931L105.043 43.099V46.6168H95.4104L95.3057 28.371ZM106.823 28.371H118.78V31.9735H115.011V39.221C115.011 43.2262 114.969 46.532 114.927 46.5956C114.864 46.6592 113.922 46.6804 110.823 46.5956V31.9735L106.949 31.8675L106.823 28.371ZM121.314 28.3286L125.23 28.4133C128.874 28.4769 129.209 28.5193 130.256 29.0067C130.884 29.3034 131.659 29.8332 131.994 30.2146C132.329 30.5961 132.748 31.4649 132.915 32.1218C133.153 32.9412 133.223 33.6688 133.125 34.3046C133.041 34.8344 132.748 35.6608 132.476 36.1482C132.183 36.6568 131.512 37.3561 129.942 38.4369L131.575 42.3573C132.455 44.5189 133.209 46.3625 133.209 46.4897C133.209 46.6168 132.413 46.7016 131.177 46.7016C130.047 46.7016 129.062 46.5956 129 46.4897C128.916 46.3625 128.225 44.5612 127.45 42.4633C126.675 40.3653 125.984 38.5429 125.921 38.4369C125.837 38.3098 125.733 40.111 125.565 46.6168L121.377 46.6592L121.314 28.3286ZM125.691 36.6144C126.905 36.4237 127.471 36.233 127.743 36.0635C127.994 35.8939 128.309 35.5337 128.413 35.237C128.539 34.9403 128.623 34.241 128.623 33.6476C128.623 32.7576 128.518 32.5033 127.994 31.9523C127.513 31.4649 127.178 31.3166 126.529 31.3166H125.691V36.6144Z" fill="#111111"/>
</svg>
