<svg width="190" height="76" viewBox="0 0 190 76" fill="none" xmlns="http://www.w3.org/2000/svg">
<path d="M31.8831 41.1153H28.1705C26.1216 41.1153 24.4579 39.4952 24.4579 37.5C24.4579 35.509 26.1216 33.8847 28.1705 33.8847C29.1599 33.8847 30.0925 34.2599 30.793 34.942C31.4935 35.6241 31.8787 36.5322 31.8787 37.4957V41.1153H31.8831ZM34.9259 44.0783V37.5C34.9259 35.7435 34.2254 34.0936 32.947 32.8487C31.673 31.6081 29.9743 30.9217 28.1705 30.9217C24.4448 30.9217 21.4151 33.8719 21.4151 37.4957C21.4151 41.1195 24.4448 44.074 28.1705 44.074H34.9259V44.0783ZM37.9686 47.037V37.5C37.9686 34.9505 36.9485 32.5588 35.101 30.7555C33.2491 28.9563 30.7886 27.963 28.1749 27.963C22.7723 27.963 18.3811 32.2433 18.3767 37.5C18.3767 42.7609 22.7723 47.037 28.1749 47.037H37.9686ZM28.1705 50C21.0824 50 15.334 44.4023 15.334 37.5C15.334 30.5977 21.0824 25 28.1705 25C35.2586 25 41.007 30.5977 41.007 37.5V50H28.1705Z" fill="#111111"/>
<path d="M126.13 31.3864H120.977C118.971 31.3864 117.343 32.9681 117.343 34.925V43.4814H120.771V35.5559C120.771 34.8653 121.344 34.3068 122.054 34.3068H125.053C125.762 34.3068 126.335 34.8653 126.335 35.5559V43.4814H129.763V34.925C129.763 32.9681 128.135 31.3864 126.13 31.3864ZM160.06 43.4814H163.488V31.3864H160.06V43.4814ZM168.26 36.707L173.334 31.3864H169.052L164.714 35.9354C164.039 36.6431 164.017 37.824 164.665 38.553L169.048 43.4771H173.33L168.238 37.7515C167.98 37.4616 167.988 36.9927 168.26 36.707ZM153.528 31.3864H150.529C147.928 31.3864 145.818 33.4413 145.818 35.9737V43.4814H149.246V40.9788H153.528C156.124 40.9788 158.225 38.9367 158.238 36.4086V35.9737C158.238 33.4371 156.133 31.3864 153.528 31.3864ZM154.815 36.8051C154.815 37.4957 154.241 38.0542 153.532 38.0542H149.25V35.5517C149.25 34.861 149.824 34.3025 150.533 34.3025H153.532C154.241 34.3025 154.815 34.861 154.815 35.5517V36.8051ZM139.29 31.3864H136.291C133.691 31.3864 131.58 33.4413 131.58 35.9737V43.4814H135.008V40.9788H140.577V43.4814H144.005V35.9737C144.001 33.4371 141.891 31.3864 139.29 31.3864ZM140.577 38.05H135.008V35.5602C135.008 34.8695 135.582 34.3068 136.291 34.3068H139.29C139.999 34.3068 140.573 34.8653 140.573 35.5602V38.05H140.577ZM82.2219 31.3864H79.2229C76.6223 31.3864 74.5121 33.4413 74.5121 35.9737V43.4814H77.9401V40.9788H82.2219C84.8181 40.9788 86.9195 38.9367 86.9327 36.4086V35.9737C86.9327 33.4371 84.8224 31.3864 82.2219 31.3864ZM83.5046 36.8051C83.5046 37.4957 82.9311 38.0585 82.2219 38.0585H77.9401V35.5517C77.9401 34.861 78.5136 34.3025 79.2229 34.3025H82.2219C82.9311 34.3025 83.5046 34.861 83.5046 35.5517V36.8051ZM113.284 31.3864H113.192C112.435 31.3864 111.717 31.7104 111.231 32.2732L106.004 38.2844V31.3864H102.576V41.3966C102.576 42.5477 103.534 43.4814 104.716 43.4814H104.808C105.566 43.4814 106.284 43.1574 106.77 42.5946L111.997 36.5791V43.4814H115.425V33.4712C115.425 32.3201 114.466 31.3864 113.284 31.3864ZM107.286 30.5508H110.728C111.428 30.5508 112.002 29.9966 112.002 29.3144V28.0482H106.017V29.3102C106.017 29.9966 106.586 30.5508 107.286 30.5508ZM96.3718 31.3864H92.9438C90.3432 31.3864 88.233 33.4413 88.233 35.9737V38.8941C88.233 41.4265 90.3432 43.4814 92.9438 43.4814H96.3718C98.9724 43.4814 101.083 41.4265 101.083 38.8941V35.9737C101.083 33.4413 98.9724 31.3864 96.3718 31.3864ZM97.6546 39.3076C97.6546 39.9983 97.081 40.5568 96.3718 40.5568H92.9438C92.2345 40.5568 91.661 39.9983 91.661 39.3076V35.5559C91.661 34.8653 92.2345 34.3068 92.9438 34.3068H96.3718C97.081 34.3068 97.6546 34.8653 97.6546 35.5559V39.3076ZM53.007 39.3076V35.5559C53.007 34.8653 53.5805 34.3068 54.2941 34.3068H59.8586V31.3864H54.2897C51.6892 31.3864 49.5789 33.4413 49.5789 35.9737V38.8941C49.5789 41.4265 51.6892 43.4814 54.2897 43.4814H59.8586V40.561H54.2897C53.5805 40.561 53.007 39.9983 53.007 39.3076ZM61.5792 34.3068H65.8172V43.4814H69.2452V34.3068H73.527V31.3864H61.5836V34.3068H61.5792Z" fill="#111111"/>
</svg>
