<svg width="190" height="76" viewBox="0 0 190 76" fill="none" xmlns="http://www.w3.org/2000/svg">
<mask id="mask0_5294_12121" style="mask-type:luminance" maskUnits="userSpaceOnUse" x="25" y="29" width="140" height="19">
<path d="M165 29H25V47.5542H165V29Z" fill="white"/>
</mask>
<g mask="url(#mask0_5294_12121)">
<path fill-rule="evenodd" clip-rule="evenodd" d="M65.1482 35.6954C65.3237 34.5421 65.802 33.639 66.6328 32.9381C67.4379 32.2612 68.4203 31.9099 69.5781 31.9099C70.7359 31.9099 71.7681 32.2612 72.5732 32.9638C73.3783 33.6664 73.8566 34.5678 74.008 35.6971H65.1482V35.6954ZM73.6811 30.0025C72.4735 29.3256 71.1144 29 69.5781 29C68.0418 29 66.6587 29.3256 65.4251 30.0025C64.2175 30.6794 63.261 31.6322 62.5556 32.861C61.8761 34.064 61.5234 35.4178 61.5234 36.9481C61.5234 38.4785 61.8761 39.8563 62.5815 41.061C63.2868 42.2898 64.319 43.2168 65.6023 43.8938C66.9116 44.5964 68.422 44.9219 70.1578 44.9219C71.4911 44.9219 72.7005 44.7215 73.7826 44.2947C74.8406 43.8681 75.7215 43.2168 76.4251 42.3891L74.4621 40.1579C73.3543 41.2855 71.9453 41.8373 70.2335 41.8373C68.9003 41.8373 67.7666 41.5117 66.86 40.8348C65.9533 40.1579 65.3993 39.2548 65.174 38.1014H77.4315C77.4573 37.6507 77.4813 37.2737 77.4813 37.0235C77.4813 35.4435 77.1545 34.04 76.4749 32.8113C75.7954 31.6082 74.8647 30.6554 73.6811 30.0025Z" fill="#111111"/>
<path fill-rule="evenodd" clip-rule="evenodd" d="M107.033 42.0635H102.83V38.0775H107.134C108.141 38.0775 108.872 38.2522 109.324 38.5796C109.802 38.9309 110.029 39.4313 110.029 40.1099C110.029 41.4141 109.023 42.0652 107.035 42.0652L107.033 42.0635ZM102.83 31.8088H106.682C108.569 31.8088 109.501 32.46 109.501 33.7144C109.501 34.9688 108.571 35.6697 106.682 35.6697H102.83V31.8088ZM110.684 36.6225C111.439 36.2969 112.016 35.8445 112.445 35.243C112.873 34.6655 113.075 33.9886 113.075 33.1866C113.075 31.9082 112.547 30.9056 111.465 30.203C110.406 29.5261 108.898 29.1748 106.985 29.1748H99.3584V44.7215H107.313C109.377 44.7215 110.938 44.3462 111.994 43.5938C113.052 42.8415 113.581 41.7636 113.581 40.3601C113.581 38.4545 112.598 37.2001 110.685 36.6243L110.684 36.6225Z" fill="#111111"/>
<path fill-rule="evenodd" clip-rule="evenodd" d="M119.693 39.4313V29.1748H116.019V44.7215H119.39L127.975 34.4667V44.7215H131.65V29.1748H128.302L119.693 39.4313Z" fill="#111111"/>
<path fill-rule="evenodd" clip-rule="evenodd" d="M148.488 29.1748H144.586L139.955 35.4692H138.596V29.1748H134.947V44.7215H138.596V38.4785H139.879L144.586 44.7215H148.89L142.824 36.6482L148.488 29.1748Z" fill="#111111"/>
<path fill-rule="evenodd" clip-rule="evenodd" d="M159.993 40.4592C159.112 41.3624 158.004 41.8131 156.671 41.8131C155.337 41.8131 154.204 41.3624 153.348 40.4592C152.468 39.5819 152.04 38.4028 152.04 36.9496C152.04 35.4964 152.468 34.3174 153.348 33.4142C154.204 32.5368 155.312 32.0861 156.671 32.0861C158.03 32.0861 159.112 32.5368 159.993 33.4142C160.873 34.3174 161.301 35.4947 161.301 36.9496C161.301 38.4045 160.873 39.5819 159.993 40.4592ZM163.918 32.8367C163.213 31.6337 162.233 30.6809 160.947 30.004C159.688 29.3271 158.254 29.0015 156.669 29.0015C155.084 29.0015 153.648 29.3271 152.39 30.004C151.131 30.6809 150.125 31.6337 149.421 32.8367C148.716 34.0397 148.363 35.4193 148.363 36.9496C148.363 38.4799 148.716 39.8577 149.421 41.0625C150.127 42.2912 151.133 43.2183 152.39 43.8952C153.65 44.5978 155.084 44.9234 156.669 44.9234C158.254 44.9234 159.69 44.5978 160.947 43.8952C162.231 43.2183 163.213 42.2912 163.918 41.0625C164.648 39.8595 165.001 38.4799 165.001 36.9496C165.001 35.4193 164.624 34.0415 163.918 32.8367Z" fill="#111111"/>
<path fill-rule="evenodd" clip-rule="evenodd" d="M91.4519 40.4595C90.5711 41.3627 89.4633 41.8134 88.13 41.8134C87.2492 41.8134 86.4681 41.6128 85.7645 41.2119C85.0592 40.8108 84.5052 40.259 84.1026 39.5067C83.6743 38.7801 83.473 37.9267 83.473 36.9499C83.473 35.973 83.6743 35.1196 84.1026 34.393C84.5052 33.6407 85.0592 33.0889 85.7645 32.6879C86.4698 32.2869 87.2492 32.0864 88.13 32.0864C89.4633 32.0864 90.5711 32.5371 91.4519 33.4145C92.307 34.3176 92.7611 35.4949 92.7611 36.9499C92.7611 38.4048 92.3086 39.5821 91.4519 40.4595ZM92.6097 29.9785C91.4261 29.3273 90.067 29 88.5325 29C87.4745 29 86.4939 29.1748 85.6131 29.5518C84.7065 29.9031 83.977 30.4789 83.3732 31.2072V29.1748H79.874V47.5542H83.5487V42.8398C84.7564 44.2193 86.444 44.9203 88.5325 44.9203C90.0688 44.9203 91.4279 44.5946 92.6097 43.9418C93.8174 43.2648 94.7499 42.3377 95.4294 41.133C96.1348 39.9043 96.4616 38.5247 96.4616 36.9464C96.4616 35.3681 96.1348 33.9886 95.4294 32.7838C94.7499 31.5808 93.8191 30.628 92.6097 29.9751V29.9785Z" fill="#111111"/>
<path fill-rule="evenodd" clip-rule="evenodd" d="M30.5642 45.3726H33.685C33.685 41.1106 37.1583 37.6507 41.4368 37.6507V34.542C35.4465 34.542 30.5625 39.4055 30.5625 45.3743L30.5642 45.3726Z" fill="#111111"/>
<path fill-rule="evenodd" clip-rule="evenodd" d="M26.5363 32.0847H31.847C27.6941 35.0682 25 39.9077 25 45.3726H28.0966C28.0966 38.0517 34.0869 32.0829 41.4379 32.0829V29H26.5363V32.0847Z" fill="#111111"/>
<path fill-rule="evenodd" clip-rule="evenodd" d="M49.3152 43.8938C50.5987 44.5964 52.0592 44.9219 53.6695 44.9219C55.2797 44.9219 56.539 44.6204 57.6968 43.9692C58.8545 43.342 59.7354 42.4388 60.3392 41.2855L57.5454 39.6558C57.0929 40.3824 56.539 40.9102 55.8595 41.2598C55.18 41.6351 54.4505 41.8116 53.6437 41.8116C52.2588 41.8116 51.1268 41.3609 50.246 40.4835C49.3651 39.6061 48.9127 38.427 48.9127 36.9481C48.9127 35.4692 49.3651 34.2902 50.246 33.4128C51.1526 32.5097 52.2846 32.0847 53.6437 32.0847H59.2812V29H53.0897C51.6807 29.0754 50.4215 29.401 49.3135 30.0025C48.0302 30.6794 47.0238 31.6322 46.3184 32.8353C45.589 34.0383 45.2363 35.4178 45.2363 36.9481C45.2363 38.4785 45.589 39.8563 46.3184 41.061C47.0238 42.2898 48.0302 43.2168 49.3135 43.8938H49.3152Z" fill="#111111"/>
</g>
</svg>
