<svg width="40" height="41" viewBox="0 0 40 41" fill="none" xmlns="http://www.w3.org/2000/svg">
<path d="M18.6507 20.8041L28.4976 30.1064C28.8325 30.4228 28.9944 30.792 28.9833 31.2139C28.9721 31.6357 28.799 32.0049 28.4641 32.3213C28.1292 32.6377 27.7384 32.7959 27.2919 32.7959C26.8453 32.7959 26.4545 32.6377 26.1196 32.3213L15.8038 22.6076C15.5359 22.3545 15.3349 22.0697 15.201 21.7533C15.067 21.4369 15 21.1205 15 20.8041C15 20.4877 15.067 20.1713 15.201 19.8548C15.3349 19.5384 15.5359 19.2537 15.8038 19.0005L26.1196 9.2552C26.4545 8.93879 26.8509 8.78586 27.3086 8.79641C27.7663 8.80696 28.1627 8.97043 28.4976 9.28684C28.8325 9.60325 29 9.97239 29 10.3943C29 10.8161 28.8325 11.1853 28.4976 11.5017L18.6507 20.8041Z" fill="#111111"/>
</svg>
