<svg width="48" height="48" viewBox="0 0 48 48" fill="none" xmlns="http://www.w3.org/2000/svg">
<path d="M24.3181 4.44125C23.8469 2.73161 22.7474 1.88478 21.7578 2.0126C21.1556 2.0705 20.5767 2.27871 20.0725 2.61875C19.5683 2.95879 19.1545 3.42016 18.8676 3.96191C17.4854 7.1575 20.4384 16.4566 20.8153 18.0065C18.2393 25.9156 9.96148 40.8709 4.95079 44.2582C4.82395 44.3387 4.6761 44.3781 4.52678 44.3712C4.37746 44.3643 4.23371 44.3115 4.11454 44.2197C3.99538 44.1279 3.9064 44.0015 3.85939 43.8572C3.81238 43.7128 3.80955 43.5574 3.85126 43.4114C4.3539 41.8136 5.94036 39.321 10.3699 36.429C10.6801 36.097 10.9687 35.7448 11.2338 35.3745C5.97178 37.9789 -0.845271 42.1811 3.25438 45.3128C3.54878 45.5197 3.87166 45.6813 4.21254 45.7921C7.35403 46.9745 11.7521 43.1078 16.1659 34.3359C20.8301 32.6531 25.6356 31.407 30.5226 30.6131C36.6014 34.8153 40.6696 35.6781 43.4341 34.5916C43.9808 34.3497 44.4708 33.9924 44.8715 33.5434C45.2723 33.0944 45.5747 32.564 45.7588 31.9872C43.5127 34.7993 38.2506 32.834 34.0568 30.1497C37.9208 29.7183 41.9105 29.4627 43.654 30.0219C45.8531 30.7249 45.7745 31.8274 45.7588 31.9872C45.9179 31.614 46 31.2116 46 30.8048C46 30.3981 45.9179 29.9956 45.7588 29.6225C43.9053 26.5547 35.4076 28.3442 32.3132 28.6638C27.9262 25.754 24.5688 21.4935 22.7317 16.5046C24.004 11.5514 25.3548 7.95639 24.3024 4.39332M22.1976 14.763C21.4751 12.1266 20.4855 6.58229 21.6164 3.96191C21.6622 3.85323 21.7325 3.75707 21.8217 3.68127C21.9109 3.60546 22.0165 3.55216 22.1298 3.52568C22.243 3.49921 22.3609 3.50032 22.4736 3.52892C22.5864 3.55753 22.691 3.61281 22.7788 3.69029C25.3391 6.00708 23.3442 10.5608 22.1976 14.763ZM28.9047 29.3348C24.6272 30.1988 20.4519 31.5217 16.4487 33.2814C18.5287 28.7313 20.2616 24.0253 21.6321 19.2048C23.3874 23.0289 25.8637 26.4652 28.9204 29.3189" fill="#111111"/>
</svg>
