<svg width="391" height="395" viewBox="0 0 391 395" fill="none" xmlns="http://www.w3.org/2000/svg">
<path d="M82 194L65 188.5L72.5 176.5L87.5 185.5L82 194Z" stroke="#FEC227" stroke-width="2"/>
<path d="M125.5 179.5L111 186.5L112 198.5L131.5 194L125.5 179.5Z" stroke="#FEC227" stroke-width="2"/>
<path d="M261.5 25.5L226.5 38.5L246 25.5H226.5L251.5 21L232 12.5L254.5 18.5L244 1.5L261.5 18.5L264 1.5L266.5 23L274.5 18.5L268 31.5L261.5 25.5Z" stroke="#FEC227" stroke-width="2"/>
<path d="M67 316.5H47C37.6667 337.167 18.2 379.2 15 382H378L343.5 319.5H286.5L252.5 333.5L269.5 336V363L199 346L172 356L167 333.5L176.5 326.5L167 316.5H75" stroke="#FEC227" stroke-width="2"/>
<path d="M16.401 381.748L11.8213 383.754M11.8213 383.754L9.76011 384.034M11.8213 383.754L6.15571 389.512L9.76011 384.034M1 385.22L9.76011 384.034" stroke="#FEC227" stroke-width="2"/>
<path d="M378 382L380.75 386M383.5 390L380.75 386M380.75 386V394.5M380.75 386L390 390" stroke="#FEC227" stroke-width="2"/>
<path d="M47.5 316.5L43.5 315.5M43.5 315.5L35.5 316.5M43.5 315.5L38.5 320.5M43.5 315.5L33 312" stroke="#FEC227" stroke-width="2"/>
<path d="M344 319.5L348 318.5M348 318.5L356 319.5M348 318.5L353 323.5M348 318.5L358.5 315" stroke="#FEC227" stroke-width="2"/>
<path d="M125.5 348.5L136 341L131 338L125.5 339.5L123 343.5M125.5 348.5L129 350L125.5 351M125.5 348.5V351M125.5 348.5L123 343.5M125.5 351L120.5 354.5L114.5 356.5L120 361.5L112 363.5L104 361.5L109.5 356.5L101 354L87.5 345.5L80 343.5L81 341L92 344L98.5 345.5L104.5 343.5L107 341L110 339.5L110.5 335H113.5L114 339.5L118 341L123 343.5" stroke="#FEC227" stroke-width="2"/>
<path d="M58 300.5L77.5 335.5L72.5 300.5L95.5 277.5V250L131 207.5L125.5 203.5L141.5 192L145 173L135.5 142.5L120 135.5L107 130.5L100.5 140H90L79.5 132L58 135.5L40.5 164.5V179.5L62.5 192L52.5 233L84 273L58 300.5Z" stroke="#FEC227" stroke-width="2"/>
<path d="M73 120L75.5 118.5L76 119L76.5 121.5L75 122.5L73.5 122L73 120Z" stroke="#FEC227"/>
<path d="M79 245.5L68.5 253L74.5 262L79 257.5L96 260V250L79 245.5Z" stroke="#FEC227" stroke-width="2"/>
<circle cx="309.5" cy="60.5" r="6.5" stroke="#FEC227" stroke-width="2"/>
<circle cx="309.5" cy="60.5" r="6.5" stroke="#FEC227" stroke-width="2"/>
<circle cx="321.5" cy="55.5" r="6.5" stroke="#FEC227" stroke-width="2"/>
<circle cx="321.5" cy="55.5" r="6.5" stroke="#FEC227" stroke-width="2"/>
<path d="M327 52L331.5 48L334 50" stroke="#FEC227" stroke-width="2"/>
<path d="M324.923 110L319 148H320L325.5 110H324.923Z" stroke="#FEC227"/>
<path d="M261.5 73L271 73.5L263 75.5M254.5 74L248.5 75.5L254.5 77M258 71L264.5 65.5L259 74.5M266.5 77L274 79L266.5 79.5M256.5 78L249 83L258 79.5M256 82.5V90L258.5 82.5" stroke="#FEC227"/>
<path d="M267 68H257.5L250.5 73.5L253 88L263 82.5L273.5 83.5L267 68Z" stroke="#FEC227"/>
<path d="M267 100L274 107L263 102.5M260 113.5L264.5 125L263 111M250 110L235.5 111L251 106M256.5 101L258.5 95V101M247.5 117L242.5 119.5L248.5 120.5M254.5 108L253 117L258.5 108M254.5 123L253 132.5L258.5 123M251 95L264.5 89L277 96.5L260 130.5L237 123L251 95Z" stroke="#FEC227"/>
<path d="M194 219L184.5 208L204.5 194L207 197.5L213 205L221 210.5L222.5 259.091L204 256.5L201 239.5L194 219Z" stroke="#FEC227" stroke-width="2"/>
<path d="M251 234L248 254.5L229.5 258V212L234 205L240 194.5L246.5 196.5L255 200.5L266 209L257 220.5L251 234Z" stroke="#FEC227" stroke-width="2"/>
</svg>
