<svg width="40" height="41" viewBox="0 0 40 41" fill="none" xmlns="http://www.w3.org/2000/svg">
<path d="M23.3493 20.8041L13.5024 30.1064C13.1675 30.4228 13.0056 30.792 13.0167 31.2139C13.0279 31.6357 13.201 32.0049 13.5359 32.3213C13.8708 32.6377 14.2616 32.7959 14.7081 32.7959C15.1547 32.7959 15.5455 32.6377 15.8804 32.3213L26.1962 22.6076C26.4641 22.3545 26.6651 22.0697 26.799 21.7533C26.933 21.4369 27 21.1205 27 20.8041C27 20.4877 26.933 20.1713 26.799 19.8548C26.6651 19.5384 26.4641 19.2537 26.1962 19.0005L15.8804 9.2552C15.5455 8.93879 15.1491 8.78586 14.6914 8.79641C14.2337 8.80696 13.8373 8.97043 13.5024 9.28684C13.1675 9.60325 13 9.97239 13 10.3943C13 10.8161 13.1675 11.1853 13.5024 11.5017L23.3493 20.8041Z" fill="#111111"/>
</svg>
