<svg width="53" height="46" viewBox="0 0 53 46" fill="none" xmlns="http://www.w3.org/2000/svg">
<path d="M22.6439 39.0117C22.3586 39.4846 22.5106 40.0992 22.9835 40.3845L30.6897 45.0337C31.1626 45.319 31.7772 45.1669 32.0625 44.694C32.3478 44.2211 32.1958 43.6065 31.7229 43.3212L24.8729 39.1886L29.0055 32.3387C29.2908 31.8658 29.1387 31.2512 28.6658 30.9659C28.193 30.6806 27.5783 30.8326 27.293 31.3055L22.6439 39.0117ZM0.443379 2.02664C13.3781 2.77287 24.2554 4.79247 32.5342 7.57011C40.8585 10.363 46.3955 13.8688 48.863 17.4687C50.0761 19.2385 50.5245 20.9936 50.2589 22.7115C49.991 24.4445 48.9748 26.2782 46.994 28.1442C43.0056 31.9014 35.3368 35.5695 23.2599 38.5576L23.7403 40.499C35.9132 37.4871 43.9943 33.7177 48.3654 29.5999C50.5643 27.5285 51.8802 25.3152 52.2355 23.017C52.5931 20.7036 51.9557 18.4431 50.5127 16.3379C47.668 12.1878 41.6116 8.5061 33.1704 5.67399C24.6838 2.82663 13.6238 0.783723 0.558576 0.0299603L0.443379 2.02664Z" fill="#7A4BDA"/>
</svg>
