<svg width="159" height="159" viewBox="0 0 159 159" fill="none" xmlns="http://www.w3.org/2000/svg">
<g clip-path="url(#clip0_5401_10107)">
<path d="M107.219 68.3029C106.814 67.8837 101.766 61.3342 100.929 60.2339C100.016 59.1598 99.61 59.3432 99.0266 59.4218C98.4432 59.5004 92.0768 60.6531 91.3412 60.7055C90.631 60.8365 90.1491 61.1247 90.631 61.7796C91.0368 62.3822 95.222 68.4863 96.1351 69.901L79.3945 74.0402L66.1289 51.0647C65.5963 50.2525 65.4694 49.9906 64.3027 50.0429C63.1359 50.0953 53.8779 50.9337 53.2184 50.9337C52.5589 51.0123 51.8487 51.2743 52.5082 52.8985C53.1677 54.5228 63.6686 77.8389 63.9222 78.5201C64.1759 79.2012 64.9622 80.2753 66.7377 79.8823C68.5639 79.4108 74.8797 77.7079 78.3546 76.7648C80.1808 80.1443 83.8587 87.0606 84.5942 88.0823C85.5074 89.4446 86.1668 89.1564 87.5365 88.7634C88.6526 88.4229 104.734 82.4497 105.444 82.1092C106.154 81.7686 106.636 81.559 106.103 80.8255C105.697 80.2753 101.512 74.3808 99.2803 71.3418C100.802 70.9227 106.23 69.4556 106.839 69.246C107.473 69.0626 107.6 68.722 107.219 68.3029ZM76.8327 74.7476C76.6298 74.8262 67.245 77.1316 66.7884 77.2626C66.2557 77.3935 66.2557 77.3412 66.2557 77.1316C66.1289 76.922 55.0954 53.3439 54.8925 53.0819C54.7656 52.8199 54.7656 52.5318 54.8925 52.5318C55.0193 52.5318 63.7447 51.7196 64.0237 51.7196C64.3534 51.7196 64.2773 51.7982 64.4295 51.9816C64.4295 51.9816 76.7059 73.883 76.9088 74.2236C77.1625 74.538 77.0103 74.669 76.8327 74.7476ZM103.212 79.83C103.339 80.0919 103.541 80.2491 103.009 80.3801C102.552 80.5897 87.1814 85.9341 86.877 86.0651C86.5473 86.196 86.3444 86.2746 85.9639 85.6459C85.5581 85.0433 80.5867 76.1622 80.5867 76.1622L96.9214 71.761C97.3272 71.63 97.454 71.5514 97.7077 71.9706C97.9613 72.4421 103.085 79.6204 103.212 79.83ZM104.252 67.9099C103.846 67.9885 97.8852 69.5342 97.8852 69.5342L92.9645 62.6179C92.8377 62.4084 92.7109 62.1988 93.0406 62.1464C93.3703 62.094 98.9505 61.0723 99.2042 60.9937C99.4578 60.9151 99.6607 60.8627 99.9905 61.3342C100.32 61.7534 104.531 67.3074 104.708 67.4907C104.911 67.7003 104.658 67.8313 104.252 67.9099Z" fill="#FB503B"/>
<path d="M40.2878 108.373C40.1103 108.19 40.0342 108.006 40.0342 107.744V91.9995C40.0342 91.8948 40.0595 91.8162 40.1356 91.7638C40.1864 91.7114 40.2878 91.659 40.3639 91.659H41.6321C41.7336 91.659 41.8097 91.6852 41.8604 91.7638C41.9111 91.8162 41.9619 91.921 41.9619 91.9995V106.749H47.9732C48.0747 106.749 48.1508 106.775 48.2015 106.854C48.2523 106.932 48.303 107.011 48.303 107.09V108.295C48.303 108.399 48.2776 108.478 48.2015 108.53C48.1254 108.609 48.0493 108.635 47.9732 108.635H40.9219C40.6683 108.635 40.4654 108.53 40.2878 108.373Z" fill="#FB503B"/>
<path d="M51.575 107.875C50.8141 107.168 50.4082 106.225 50.4082 105.072C50.4082 103.998 50.7633 103.107 51.4482 102.4C52.1584 101.693 53.1222 101.274 54.3904 101.09L57.4595 100.645C57.9161 100.592 58.2458 100.409 58.4488 100.173C58.6517 99.9113 58.7531 99.5707 58.7531 99.0992V98.9158C58.7531 98.1299 58.4488 97.5011 57.8654 97.0295C57.282 96.558 56.5464 96.3222 55.6587 96.3222C54.9738 96.3222 54.3651 96.4532 53.8578 96.7414C53.3505 97.0295 52.9447 97.4225 52.6403 97.9203C52.5135 98.1299 52.3613 98.2346 52.1584 98.2346C52.0569 98.2346 51.9555 98.1822 51.854 98.1037L51.2199 97.6583C51.0677 97.5273 51.017 97.3963 51.017 97.2391C51.017 97.1867 51.0423 97.0819 51.0931 97.0033C51.5496 96.2174 52.1837 95.6149 52.97 95.1695C53.7563 94.7241 54.6948 94.4883 55.7348 94.4883C56.6733 94.4883 57.5103 94.6717 58.2712 95.0385C59.0068 95.4053 59.5902 95.9292 59.996 96.5842C60.4018 97.2391 60.6047 98.0251 60.6047 98.8896V108.268C60.6047 108.373 60.5794 108.452 60.5033 108.504C60.4526 108.583 60.3511 108.609 60.275 108.609H59.2858C59.1843 108.609 59.1082 108.583 59.0575 108.504C58.9814 108.452 58.956 108.347 58.956 108.268V106.592C58.4741 107.325 57.84 107.902 57.0791 108.321C56.3181 108.74 55.4811 108.95 54.5934 108.95C53.3505 108.95 52.3359 108.583 51.575 107.875ZM56.8508 106.592C57.4849 106.173 57.9668 105.649 58.3219 104.994C58.677 104.339 58.8546 103.71 58.8546 103.107V102.112C58.4741 102.164 57.2566 102.322 55.2275 102.636L54.568 102.741C52.9954 102.976 52.2091 103.762 52.2091 105.046C52.2091 105.701 52.4374 106.251 52.9193 106.644C53.4012 107.063 54.01 107.247 54.7709 107.247C55.5065 107.247 56.2167 107.037 56.8508 106.592Z" fill="#FB503B"/>
<path d="M63.6231 108.53C63.547 108.478 63.5216 108.373 63.5216 108.295V107.168C63.5216 107.063 63.547 106.985 63.6231 106.932C63.6738 106.88 63.7753 106.828 63.8514 106.828H65.8044V96.558H63.8514C63.7499 96.558 63.6738 96.5318 63.6231 96.4532C63.547 96.4008 63.5216 96.296 63.5216 96.2174V95.1695C63.5216 95.0647 63.547 94.9861 63.6231 94.9337C63.6738 94.8813 63.7753 94.8289 63.8514 94.8289H66.7937C67.0219 94.8289 67.2249 94.9075 67.4024 95.0909C67.58 95.2743 67.6561 95.4577 67.6561 95.7197V96.9509L69.0257 95.8506C69.5837 95.4053 70.0657 95.0909 70.3954 94.9337C70.7505 94.7765 71.131 94.6979 71.5114 94.6979H72.2217C72.3231 94.6979 72.4246 94.7241 72.4753 94.8027C72.526 94.8551 72.5514 94.9599 72.5514 95.0385V96.2436C72.5514 96.3484 72.526 96.427 72.4499 96.4794C72.3738 96.5318 72.2977 96.5842 72.2217 96.5842H71.7144C71.3085 96.5842 70.9534 96.6628 70.5983 96.8462C70.2432 97.0295 69.7359 97.3963 69.0511 97.9465L67.6561 99.0992V106.854H70.3954C70.4969 106.854 70.573 106.88 70.6237 106.959C70.6744 107.011 70.7252 107.116 70.7252 107.194V108.321C70.7252 108.426 70.6998 108.504 70.6237 108.557C70.573 108.635 70.4715 108.661 70.3954 108.661H63.8514C63.7753 108.635 63.6992 108.583 63.6231 108.53Z" fill="#FB503B"/>
<path d="M75.519 107.875C74.7581 107.168 74.3523 106.225 74.3523 105.072C74.3523 103.998 74.7074 103.107 75.3922 102.4C76.1024 101.693 77.0663 101.274 78.3345 101.09L81.4036 100.645C81.8601 100.592 82.1899 100.409 82.3928 100.173C82.5957 99.9113 82.6972 99.5707 82.6972 99.0992V98.9158C82.6972 98.1299 82.3928 97.5011 81.8094 97.0295C81.226 96.558 80.4905 96.3222 79.6027 96.3222C78.9179 96.3222 78.3091 96.4532 77.8018 96.7414C77.2945 97.0295 76.8887 97.4225 76.5843 97.9203C76.4575 98.1299 76.3053 98.2346 76.1024 98.2346C76.001 98.2346 75.8995 98.1822 75.798 98.1037L75.1639 97.6583C75.0117 97.5273 74.961 97.3963 74.961 97.2391C74.961 97.1867 74.9864 97.0819 75.0371 97.0033C75.4937 96.2174 76.1278 95.6149 76.9141 95.1695C77.7004 94.7241 78.6389 94.4883 79.6788 94.4883C80.6173 94.4883 81.4543 94.6717 82.2152 95.0385C82.9508 95.4053 83.5342 95.9292 83.94 96.5842C84.3459 97.2391 84.5488 98.0251 84.5488 98.8896V108.268C84.5488 108.373 84.5234 108.452 84.4473 108.504C84.3966 108.583 84.2951 108.609 84.219 108.609H83.2298C83.1284 108.609 83.0523 108.583 83.0015 108.504C82.9254 108.452 82.9001 108.347 82.9001 108.268V106.592C82.4182 107.325 81.784 107.902 81.0231 108.321C80.2622 108.74 79.4252 108.95 78.5374 108.95C77.2692 108.95 76.28 108.583 75.519 107.875ZM80.7695 106.592C81.4036 106.173 81.8855 105.649 82.2406 104.994C82.5957 104.339 82.7733 103.71 82.7733 103.107V102.112C82.3928 102.164 81.1753 102.322 79.1461 102.636L78.4867 102.741C76.9141 102.976 76.1278 103.762 76.1278 105.046C76.1278 105.701 76.3561 106.251 76.838 106.644C77.3199 107.063 77.9287 107.247 78.6896 107.247C79.4505 107.247 80.1354 107.037 80.7695 106.592Z" fill="#FB503B"/>
<path d="M91.6254 108.53C91.5493 108.478 91.4733 108.399 91.4479 108.295L87.0091 95.3267C86.9838 95.3005 86.9838 95.2481 86.9838 95.1433C86.9838 95.0385 87.0091 94.9599 87.0852 94.8813C87.1613 94.8027 87.2374 94.7765 87.3642 94.7765H88.4549C88.5564 94.7765 88.6325 94.8027 88.7339 94.8551C88.81 94.9075 88.8861 94.9861 88.9115 95.0909L92.64 106.225L96.2925 95.0909C96.3179 94.9861 96.394 94.9075 96.4701 94.8551C96.5462 94.8027 96.6476 94.7765 96.7491 94.7765H97.789C97.9412 94.7765 98.0427 94.8289 98.1187 94.9337C98.1948 95.0385 98.1948 95.1695 98.1441 95.3005L93.7053 108.268C93.68 108.373 93.6039 108.452 93.5278 108.504C93.4517 108.557 93.3502 108.583 93.2488 108.583H91.9045C91.803 108.635 91.7269 108.609 91.6254 108.53Z" fill="#FB503B"/>
<path d="M102.735 107.928C101.949 107.456 101.315 106.801 100.858 105.989C100.402 105.177 100.173 104.286 100.173 103.317V99.8327C100.173 98.8634 100.402 97.9727 100.858 97.1605C101.315 96.3484 101.949 95.6934 102.735 95.2219C103.521 94.7503 104.384 94.5145 105.322 94.5145C106.261 94.5145 107.098 94.7503 107.909 95.2219C108.696 95.6934 109.33 96.3484 109.786 97.1605C110.243 97.9727 110.471 98.8634 110.471 99.8327V101.483C110.471 101.719 110.395 101.929 110.218 102.112C110.04 102.295 109.862 102.374 109.609 102.374H102.05V103.448C102.05 104.077 102.202 104.627 102.481 105.151C102.76 105.675 103.166 106.094 103.674 106.382C104.181 106.67 104.739 106.828 105.322 106.828H108.746C108.848 106.828 108.924 106.854 108.975 106.932C109.025 106.985 109.076 107.09 109.076 107.168V108.295C109.076 108.399 109.051 108.478 108.975 108.53C108.899 108.609 108.823 108.635 108.746 108.635H105.297C104.358 108.635 103.521 108.399 102.735 107.928ZM108.594 100.592V99.7017C108.594 99.073 108.442 98.5228 108.163 97.9989C107.884 97.4749 107.478 97.0557 106.971 96.7676C106.464 96.4794 105.906 96.3222 105.322 96.3222C104.713 96.3222 104.181 96.4794 103.674 96.7676C103.166 97.0557 102.76 97.4749 102.481 97.9989C102.177 98.5228 102.05 99.0992 102.05 99.7017V100.592H108.594Z" fill="#FB503B"/>
<path d="M114.809 108.373C114.631 108.19 114.555 108.006 114.555 107.744V91.921H112.348C112.247 91.921 112.171 91.8948 112.12 91.8162C112.069 91.7638 112.018 91.659 112.018 91.5804V90.4539C112.018 90.3491 112.044 90.2705 112.12 90.2181C112.171 90.1657 112.272 90.1133 112.348 90.1133H115.544C115.772 90.1133 115.975 90.1919 116.153 90.3753C116.33 90.5587 116.407 90.7421 116.407 91.004V106.828H118.918C119.019 106.828 119.095 106.854 119.146 106.932C119.197 107.011 119.247 107.09 119.247 107.168V108.295C119.247 108.399 119.222 108.478 119.146 108.53C119.095 108.609 118.994 108.635 118.918 108.635H115.417C115.164 108.635 114.961 108.53 114.809 108.373Z" fill="#FB503B"/>
</g>
<defs>
<clipPath id="clip0_5401_10107">
<rect width="158.426" height="158.426" fill="white" transform="translate(0.426758 0.52832)"/>
</clipPath>
</defs>
</svg>
