<svg width="160" height="160" viewBox="0 0 160 160" fill="none" xmlns="http://www.w3.org/2000/svg">
<g clip-path="url(#clip0_5487_12501)">
<g clip-path="url(#clip1_5487_12501)">
<path d="M109.799 42.4295H49.665C45.6345 42.4295 42.3672 45.6968 42.3672 49.7273V109.861C42.3672 113.892 45.6345 117.159 49.665 117.159H109.799C113.829 117.159 117.097 113.892 117.097 109.861V49.7273C117.097 45.6968 113.829 42.4295 109.799 42.4295Z" fill="#3178C6"/>
<path d="M109.799 42.4295H49.665C45.6345 42.4295 42.3672 45.6968 42.3672 49.7273V109.861C42.3672 113.892 45.6345 117.159 49.665 117.159H109.799C113.829 117.159 117.097 113.892 117.097 109.861V49.7273C117.097 45.6968 113.829 42.4295 109.799 42.4295Z" fill="#3178C6"/>
<path fill-rule="evenodd" clip-rule="evenodd" d="M88.6262 101.895V109.202C89.814 109.811 91.2188 110.268 92.8406 110.572C94.4625 110.877 96.1718 111.029 97.9688 111.029C99.7201 111.029 101.384 110.861 102.96 110.526C104.536 110.192 105.918 109.64 107.106 108.871C108.294 108.102 109.234 107.098 109.927 105.857C110.62 104.616 110.966 103.083 110.966 101.256C110.966 99.9317 110.768 98.7711 110.372 97.7741C109.976 96.7771 109.405 95.8904 108.659 95.114C107.913 94.3377 107.018 93.6412 105.975 93.0247C104.932 92.4082 103.756 91.8259 102.446 91.278C101.487 90.8822 100.626 90.4979 99.8648 90.125C99.1033 89.7519 98.4561 89.3714 97.9231 88.9833C97.3901 88.5951 96.9789 88.1841 96.6896 87.7503C96.4004 87.3163 96.2556 86.8255 96.2556 86.2774C96.2556 85.7752 96.385 85.3223 96.644 84.9189C96.9029 84.5155 97.2684 84.1692 97.7404 83.88C98.2125 83.5908 98.7911 83.3662 99.4764 83.2064C100.162 83.0466 100.923 82.9667 101.761 82.9667C102.37 82.9667 103.013 83.0124 103.691 83.1036C104.369 83.195 105.05 83.3358 105.735 83.526C106.421 83.7163 107.087 83.9561 107.734 84.2453C108.381 84.5346 108.979 84.8694 109.527 85.25V78.4228C108.416 77.9966 107.201 77.6808 105.884 77.4753C104.567 77.2698 103.055 77.167 101.35 77.167C99.6134 77.167 97.9688 77.3535 96.4155 77.7265C94.8623 78.0994 93.4955 78.6816 92.3152 79.4731C91.135 80.2648 90.2023 81.2732 89.5171 82.4986C88.8318 83.7239 88.4891 85.189 88.4891 86.8939C88.4891 89.0707 89.1173 90.9279 90.3737 92.4654C91.6299 94.0027 93.5373 95.3042 96.0957 96.3698C97.1008 96.7809 98.0374 97.1841 98.9054 97.58C99.7734 97.9758 100.523 98.3868 101.155 98.813C101.787 99.2392 102.286 99.7035 102.652 100.206C103.017 100.708 103.2 101.279 103.2 101.918C103.2 102.39 103.086 102.828 102.857 103.231C102.629 103.635 102.282 103.985 101.818 104.282C101.353 104.578 100.775 104.81 100.082 104.978C99.3888 105.145 98.578 105.229 97.649 105.229C96.0652 105.229 94.4968 104.951 92.9434 104.396C91.3901 103.84 89.951 103.007 88.6262 101.895ZM76.3427 83.893H85.7159V77.8968H59.5898V83.893H68.9173V110.591H76.3427V83.893Z" fill="white"/>
</g>
</g>
<defs>
<clipPath id="clip0_5487_12501">
<rect width="158.426" height="158.426" fill="white" transform="translate(0.705078 0.954605)"/>
</clipPath>
<clipPath id="clip1_5487_12501">
<rect width="74.7294" height="74.7294" fill="white" transform="translate(42.3672 42.4295)"/>
</clipPath>
</defs>
</svg>
