<svg width="159" height="159" viewBox="0 0 159 159" fill="none" xmlns="http://www.w3.org/2000/svg">
<g clip-path="url(#clip0_5401_10133)">
<g clip-path="url(#clip1_5401_10133)">
<path fill-rule="evenodd" clip-rule="evenodd" d="M86.8629 38.1546C86.2968 38.1586 85.7352 38.2556 85.2002 38.4417C86.1861 39.0971 86.8944 40.0971 87.1877 41.2476C87.1877 41.3912 87.2526 41.5087 87.2786 41.6522C87.3046 41.7958 87.2786 41.9132 87.2786 42.0438C87.3566 43.9492 86.785 44.1841 86.3693 45.3065C86.0742 45.9851 85.9472 46.7255 85.9992 47.4642C86.0512 48.2029 86.2808 48.918 86.6681 49.5481C86.7343 49.7127 86.8169 49.8701 86.9149 50.0179C86.1615 44.5887 90.6949 43.7665 91.5263 42.0699C91.4709 41.4023 91.2459 40.7602 90.873 40.2049C90.5 39.6497 89.9914 39.1998 89.396 38.8985C88.6195 38.404 87.7173 38.1457 86.798 38.1546H86.8629ZM93.6826 39.4597C93.6624 39.668 93.6624 39.8778 93.6826 40.0861V40.6473L93.5397 41.1693C93.5397 41.339 93.4228 41.5087 93.3579 41.6783L93.0331 42.0699L92.8642 42.3309L92.7343 42.5266L92.4616 43.0095C92.3416 43.1496 92.2113 43.2805 92.0719 43.4011C91.916 43.5185 91.8121 43.6621 91.6692 43.7665C91.2145 44.1189 90.6949 44.3668 90.2273 44.6931C90.076 44.7902 89.9327 44.8993 89.7986 45.0194C89.6527 45.1226 89.5178 45.2407 89.396 45.3717C89.2491 45.4932 89.1142 45.6287 88.9933 45.7763C88.8728 45.9102 88.7642 46.0543 88.6685 46.207L88.3828 46.6638L88.1489 47.1467L87.9671 47.6426L87.8242 48.1908C87.8377 48.2816 87.8377 48.374 87.8242 48.4648C87.8315 48.5517 87.8315 48.639 87.8242 48.7258V49.274C87.8242 49.3914 87.8242 49.522 87.8242 49.6655C87.8067 49.8434 87.8067 50.0227 87.8242 50.2006C87.8242 50.3964 87.8242 50.553 87.9411 50.7226L88.11 51.2447L88.2529 51.5318L83.3167 49.6133L80.7707 48.9738L79.4717 48.6475C78.1833 48.3866 76.8827 48.1906 75.5748 48.0602H75.4709L71.5739 47.8645L68.7551 47.9689C67.4562 48.0602 66.1572 48.2299 64.8582 48.4387L63.884 48.5953L61.9485 49.013L60.9742 49.274L59.987 49.6916L59.2856 50.0179C59.2856 50.0179 59.1946 50.0179 59.1687 50.0179L58.5711 50.3181C58.5214 50.3348 58.4735 50.3566 58.4282 50.3833L57.7658 50.7226C57.6099 50.7879 57.467 50.8793 57.3371 50.9445C57.2748 50.9841 57.2097 51.019 57.1422 51.0489L56.5707 51.3752L56.0641 51.7015L55.6354 52.0016L55.1678 52.341L54.8041 52.6411C54.8041 52.6411 54.7131 52.6411 54.6742 52.7325L54.3494 53.0066C54.3494 53.0066 54.2845 53.0718 54.2585 53.0979L53.8688 53.4633L53.4401 53.8679L53.0764 54.2725L52.9335 54.39C52.8166 54.5335 52.6867 54.664 52.5698 54.7815C52.4529 54.899 52.5698 54.8467 52.4789 54.899L51.9853 55.4079L50.8292 56.5303C50.4477 56.8742 50.0442 57.1924 49.6211 57.483L48.3222 58.2922C47.8969 58.5686 47.4543 58.817 46.9972 59.0361C46.5426 59.2188 46.0749 59.4015 45.6073 59.5451C44.7533 59.8015 43.8861 60.0106 43.0093 60.1715C42.8405 60.1715 42.6456 60.1715 42.4638 60.2368L41.9312 60.3673L41.4116 60.5631C41.2327 60.6279 41.059 60.7065 40.892 60.798C40.7491 60.9154 40.5672 60.9938 40.4244 61.0982C40.2695 61.205 40.1259 61.3275 39.9957 61.4636C39.8658 61.5941 39.6969 61.7116 39.567 61.8551L39.2033 62.2466C39.0994 62.4163 38.9695 62.5729 38.8786 62.7426C38.7876 62.9122 38.6707 63.0689 38.5798 63.2385L38.346 63.7997L38.1511 64.3609L38.0472 64.8829C37.9869 65.1063 37.9392 65.3329 37.9043 65.5616C37.8913 65.7092 37.8913 65.8577 37.9043 66.0053C37.8979 66.0966 37.8979 66.1882 37.9043 66.2794C37.9256 66.4161 37.956 66.5513 37.9953 66.684L38.1381 67.0886C38.208 67.2307 38.2906 67.3661 38.3849 67.4931L38.6577 67.8847L39.0474 68.1718C39.1774 68.2951 39.3164 68.4085 39.4631 68.5111C39.8413 68.8979 40.2802 69.2197 40.7621 69.4638L41.1128 69.6335C41.153 69.6691 41.1842 69.7139 41.2037 69.764C41.2271 69.9401 41.2618 70.1145 41.3077 70.286C41.3523 70.4594 41.4087 70.6294 41.4765 70.795L41.6454 71.1866L41.7103 71.304L41.9701 71.7738L42.2949 72.2306L42.6586 72.6352L43.0613 73.0006L43.4899 73.3922L43.9576 73.6793C44.1201 73.7707 44.2895 73.8492 44.4642 73.9142C44.6007 73.9795 44.7446 74.0277 44.8928 74.0578C45.0357 74.0578 45.1656 74.1491 45.2566 74.1622C45.1529 75.0313 45.1792 75.9111 45.3345 76.7724C45.5293 77.2031 46.4776 75.8849 47.4259 74.371C47.2435 75.6172 47.2435 76.8835 47.4259 78.1297C47.6337 78.6387 48.9457 76.9812 50.0238 75.1279C53.4932 74.2756 57.1049 74.1858 60.612 74.8648C64.1191 75.5438 67.4389 76.9756 70.3446 79.0623C73.2503 81.1489 75.6733 83.8413 77.4481 86.9554C79.2228 90.0695 80.3074 93.5318 80.6278 97.1058C80.4112 96.1071 79.8418 95.221 79.0251 94.6116C78.2083 94.0022 77.1995 93.7106 76.1853 93.7908C75.4987 95.7255 74.2887 97.4295 72.6911 98.711C72.8382 97.2726 72.7637 95.8199 72.4702 94.4042C71.9895 96.3882 71.0804 98.2417 69.8073 99.8334C68.8177 99.9069 67.8254 99.7333 66.9188 99.3279C66.0122 98.9226 65.2195 98.2982 64.6114 97.5104C64.5205 97.5104 64.4945 97.3015 64.4295 97.2232L64.2607 96.7664C64.1979 96.625 64.1542 96.4758 64.1308 96.3227C64.1308 96.1531 64.1308 96.0225 64.1308 95.8398V95.5788C64.1545 95.4285 64.1892 95.2802 64.2347 95.1351L64.3776 94.6783C64.4685 94.5217 64.5335 94.3781 64.6374 94.2215C65.0011 93.2296 65.0011 92.3422 64.3386 91.8593C64.215 91.7674 64.0795 91.6928 63.9359 91.6374L63.6631 91.5461H63.4813L63.0396 91.4417C62.8887 91.4227 62.7359 91.4227 62.585 91.4417C62.4251 91.4282 62.2643 91.4282 62.1044 91.4417H61.7926C61.6303 91.4432 61.4689 91.4651 61.312 91.5069L60.8573 91.5852L60.4157 91.7418L59.987 91.6635L59.5713 91.8854C54.5703 95.1612 57.5579 102.835 60.9742 105.054C59.9532 105.178 58.9556 105.451 58.0126 105.863C58.9088 106.461 59.867 106.96 60.8703 107.351L64.3386 108.33C66.1159 108.722 67.9392 108.863 69.7554 108.747C74.4028 108.429 78.802 106.523 82.2233 103.347C85.6445 100.171 87.882 95.9147 88.5646 91.285L88.6945 91.8462L88.8894 93.0469L88.9803 93.6342V94.2737V94.9785V95.3308C88.9803 95.4353 88.9803 95.5658 88.9803 95.6702C88.9803 95.7746 88.9803 95.9312 88.9803 96.0748V96.3619C88.9803 96.5185 88.9803 96.649 88.9803 96.7926C88.992 96.8879 88.992 96.9843 88.9803 97.0797V97.5495C88.9677 97.6141 88.9677 97.6806 88.9803 97.7453V98.2412C88.9867 98.3063 88.9867 98.3719 88.9803 98.437L88.9023 99.0634L88.7724 99.6638L88.6426 100.303L88.4737 100.969L88.2918 101.648L88.084 102.339L87.6034 103.644L87.3566 104.271L87.0578 104.871C87.0623 104.919 87.0623 104.967 87.0578 105.015C85.5735 107.921 83.4176 110.427 80.7707 112.323L80.2641 112.689C80.2641 112.689 80.1472 112.689 80.1082 112.806L79.6406 113.132L79.7056 113.25L80.6148 113.132L82.2905 112.832L82.7582 112.728H83.0569L83.5116 112.636L83.9013 112.532C86.0259 112.004 88.1062 111.31 90.1234 110.457C86.6918 115.147 82.1335 118.887 76.8738 121.328C79.3508 121.156 81.8024 120.718 84.187 120.023C92.7945 117.474 100.068 111.642 104.451 103.775C103.566 108.767 101.592 113.5 98.6707 117.635C100.758 116.266 102.684 114.664 104.412 112.858C109.238 107.824 112.411 101.424 113.505 94.5217C114.235 97.9505 114.446 101.471 114.129 104.962C129.625 83.2326 115.428 60.7066 109.465 54.7815C109.465 54.7815 109.465 54.7162 109.465 54.6771C109.421 54.932 109.391 55.189 109.374 55.4471C109.374 55.943 109.257 56.4259 109.166 56.8958C109.076 57.3656 108.933 57.8354 108.803 58.3183C108.665 58.792 108.491 59.2545 108.283 59.7017C108.088 60.1585 107.88 60.5892 107.647 61.0068C107.414 61.4298 107.158 61.8393 106.88 62.2336C106.594 62.6512 106.296 63.0428 105.997 63.4082C105.698 63.7736 105.334 64.139 104.984 64.4784L104.36 65.0265L103.867 65.4572C103.485 65.7651 103.081 66.0443 102.659 66.2924C102.241 66.5667 101.807 66.8151 101.36 67.0363L100.061 67.6367C99.593 67.8064 99.1383 67.963 98.6577 68.0935C98.1771 68.224 97.6965 68.3284 97.2288 68.4198C96.7612 68.5111 96.2416 68.5372 95.761 68.5894C95.2803 68.6416 95.0725 68.5894 94.7867 68.5894C94.2931 68.5894 93.7995 68.5894 93.3189 68.4981C92.8297 68.4551 92.3438 68.381 91.864 68.2762C91.3755 68.1883 90.8937 68.0662 90.4222 67.9108C90.8898 67.9108 91.3574 67.8194 91.838 67.7411C92.3187 67.6628 92.8123 67.5453 93.2799 67.4148C93.7476 67.2843 94.2152 67.1277 94.6698 66.958C95.1245 66.7884 95.5921 66.5665 95.9688 66.3577C96.3455 66.1489 96.8261 65.9009 97.2678 65.6529C97.7094 65.405 98.0732 65.0918 98.4629 64.7785C98.8503 64.4847 99.215 64.1619 99.554 63.8128C99.9113 63.4799 100.25 63.1269 100.567 62.7556C100.892 62.3902 101.191 61.9856 101.476 61.5941C101.527 61.5246 101.57 61.4503 101.606 61.3722L102.23 60.3934C102.464 59.9627 102.672 59.532 102.866 59.0883C103.061 58.6446 103.23 58.1747 103.386 57.7049C103.542 57.2351 103.633 56.7783 103.737 56.3085C103.847 55.832 103.921 55.3477 103.958 54.8598C104.014 54.3745 104.044 53.8866 104.048 53.3981C104.048 53.0457 104.048 52.7064 104.048 52.4062C104.048 52.106 103.932 51.4404 103.88 50.9576C103.828 50.4747 103.685 49.9918 103.555 49.522C103.425 49.0521 103.256 48.5953 103.074 48.1386C102.898 47.6933 102.698 47.2577 102.477 46.8335C102.258 46.3828 102.011 45.9469 101.736 45.5284C101.476 45.1238 101.178 44.7323 100.879 44.3407L99.9047 43.2444L99.2163 42.7224C98.2563 41.9678 97.2591 41.2622 96.2286 40.6081C96.0857 40.5168 95.9428 40.4646 95.7999 40.3863C95.1675 39.9815 94.4807 39.6695 93.7605 39.4597H93.6826Z" fill="#EA2845"/>
</g>
</g>
<defs>
<clipPath id="clip0_5401_10133">
<rect width="158.426" height="158.426" fill="white" transform="translate(0.279297 0.52832)"/>
</clipPath>
<clipPath id="clip1_5401_10133">
<rect width="83.1738" height="83.1738" fill="white" transform="translate(37.9053 38.1546)"/>
</clipPath>
</defs>
</svg>
