<svg width="159" height="160" viewBox="0 0 159 160" fill="none" xmlns="http://www.w3.org/2000/svg">
<g clip-path="url(#clip0_5401_10155)">
<g clip-path="url(#clip1_5401_10155)">
<path d="M84.9762 38.609L110.485 38.5808L67.6947 81.3708L56.5349 92.4462L43.8447 79.7404L84.9762 38.609ZM84.7388 76.8013C85.0699 76.3641 85.6758 76.5796 86.1412 76.5234H110.463L88.2869 98.668L75.5312 85.9903L84.7388 76.8013Z" fill="#44D1FD"/>
<path d="M62.8252 98.6961L75.5404 85.9965L88.2962 98.6742L88.3493 98.7305L75.5435 111.418L62.8252 98.6961Z" fill="#1FBCFD"/>
<path d="M75.5439 111.418L88.3497 98.7304L110.472 120.875C102.139 120.894 93.8093 120.875 85.4856 120.875C85.0108 120.981 84.7172 120.563 84.4143 120.278L75.5439 111.418Z" fill="#08589C"/>
</g>
</g>
<defs>
<clipPath id="clip0_5401_10155">
<rect width="158.426" height="158.426" fill="white" transform="translate(0.279297 0.954605)"/>
</clipPath>
<clipPath id="clip1_5401_10155">
<rect width="66.6399" height="82.3223" fill="white" transform="translate(43.8447 38.5808)"/>
</clipPath>
</defs>
</svg>
