<svg width="160" height="159" viewBox="0 0 160 159" fill="none" xmlns="http://www.w3.org/2000/svg">
<g clip-path="url(#clip0_5401_10110)">
<g clip-path="url(#clip1_5401_10110)">
<path d="M79.2447 113.882C78.8657 113.882 78.4935 113.783 78.1647 113.594L74.7299 111.56C74.216 111.272 74.4672 111.174 74.6372 111.112C75.1792 110.94 75.6982 110.703 76.1826 110.405C76.223 110.385 76.2677 110.377 76.3125 110.38C76.3572 110.383 76.4004 110.397 76.4377 110.422L79.0766 111.989C79.1261 112.014 79.1806 112.027 79.236 112.027C79.2913 112.027 79.3459 112.014 79.3953 111.989L89.6864 106.049C89.7342 106.02 89.7738 105.979 89.8012 105.93C89.8286 105.881 89.843 105.826 89.8429 105.77V93.8952C89.8431 93.8385 89.8286 93.7827 89.8008 93.7333C89.7731 93.6839 89.733 93.6425 89.6845 93.6131L79.405 87.6784C79.357 87.6501 79.3023 87.6351 79.2466 87.6351C79.1909 87.6351 79.1361 87.6501 79.0882 87.6784L68.8049 93.6131C68.7553 93.6413 68.714 93.682 68.6852 93.7312C68.6564 93.7804 68.641 93.8363 68.6406 93.8933V105.768C68.6406 105.824 68.6555 105.879 68.6837 105.927C68.7119 105.976 68.7523 106.015 68.801 106.043L71.6196 107.671C73.1496 108.444 74.0846 107.534 74.0846 106.628V94.9036C74.0844 94.8646 74.0919 94.8259 74.1068 94.7898C74.1217 94.7536 74.1436 94.7209 74.1713 94.6933C74.199 94.6658 74.2319 94.6441 74.2681 94.6295C74.3043 94.6148 74.3431 94.6075 74.3821 94.608H75.6862C75.725 94.6078 75.7636 94.6153 75.7996 94.63C75.8356 94.6448 75.8682 94.6665 75.8957 94.694C75.9232 94.7215 75.945 94.7542 75.9598 94.7902C75.9745 94.8262 75.982 94.8647 75.9817 94.9036V106.63C75.9817 108.67 74.869 109.841 72.9352 109.841C72.3402 109.841 71.8707 109.841 70.5628 109.198L67.8582 107.642C67.5299 107.451 67.2574 107.177 67.0679 106.847C66.8784 106.518 66.7786 106.145 66.7783 105.765V93.8933C66.7778 93.5133 66.8773 93.1399 67.0669 92.8106C67.2564 92.4813 67.5294 92.2077 67.8582 92.0174L78.1589 86.075C78.4909 85.8944 78.8629 85.7998 79.2408 85.7998C79.6187 85.7998 79.9906 85.8944 80.3226 86.075L90.6098 92.0213C90.9381 92.2117 91.2107 92.4851 91.4002 92.8139C91.5897 93.1428 91.6896 93.5156 91.6897 93.8952V105.77C91.6889 106.15 91.5888 106.523 91.3994 106.852C91.21 107.181 90.9378 107.455 90.6098 107.646L80.3226 113.589C79.9921 113.778 79.6178 113.877 79.2369 113.876" fill="#689F63"/>
<path d="M82.4264 105.699C77.9252 105.699 76.9805 103.634 76.9805 101.899C76.9805 101.86 76.9882 101.821 77.0031 101.785C77.0181 101.749 77.0401 101.717 77.0677 101.689C77.0954 101.662 77.1282 101.64 77.1643 101.625C77.2004 101.611 77.239 101.603 77.278 101.603H78.6071C78.6779 101.603 78.7464 101.629 78.8002 101.675C78.8541 101.721 78.8897 101.785 78.9007 101.854C79.0939 103.207 79.6986 103.893 82.4225 103.893C84.5901 103.893 85.5135 103.402 85.5135 102.252C85.5135 101.59 85.2508 101.093 81.8816 100.769C79.063 100.491 77.3224 99.8705 77.3224 97.616C77.3224 95.5392 79.0727 94.3028 82.0072 94.3028C85.301 94.3028 86.9354 95.4465 87.1402 97.9038C87.1439 97.9451 87.139 97.9867 87.1258 98.026C87.1125 98.0653 87.0912 98.1013 87.0632 98.1319C87.0352 98.1625 87.0011 98.1868 86.9631 98.2034C86.9251 98.22 86.8841 98.2285 86.8426 98.2284H85.5058C85.4383 98.2286 85.3727 98.2058 85.32 98.1636C85.2673 98.1214 85.2306 98.0625 85.216 97.9965C84.8953 96.5728 84.1168 96.1168 82.0014 96.1168C79.6349 96.1168 79.3586 96.9417 79.3586 97.5599C79.3586 98.3095 79.6831 98.5259 82.8785 98.9509C86.0409 99.3701 87.542 99.9632 87.542 102.185C87.542 104.406 85.6681 105.722 82.4071 105.722M94.941 93.1282H95.2868C95.3305 93.1337 95.3749 93.1294 95.4168 93.1159C95.4587 93.1023 95.4971 93.0797 95.5294 93.0497C95.5616 93.0197 95.5869 92.983 95.6034 92.9421C95.6199 92.9013 95.6272 92.8573 95.6249 92.8133C95.6249 92.51 95.4163 92.51 95.3004 92.51H94.9449L94.941 93.1282ZM94.5218 92.1623H95.2946C95.5573 92.1623 96.0673 92.1623 96.0673 92.7419C96.0779 92.8691 96.0406 92.9957 95.9627 93.0969C95.8848 93.198 95.7719 93.2664 95.6462 93.2886C95.9533 93.3079 95.9746 93.5088 96.0152 93.7928C96.0274 93.9903 96.0664 94.1853 96.1311 94.3724H95.6597C95.6462 94.27 95.5747 93.702 95.5747 93.6711C95.5438 93.5455 95.4993 93.4779 95.3429 93.4779H94.9565V94.3685H94.5257L94.5218 92.1623ZM93.6023 93.2693C93.6011 93.5988 93.6979 93.9213 93.8803 94.1957C94.0627 94.4702 94.3225 94.6843 94.6268 94.8108C94.9311 94.9374 95.2661 94.9707 95.5894 94.9066C95.9126 94.8424 96.2095 94.6837 96.4424 94.4505C96.6753 94.2174 96.8337 93.9203 96.8975 93.5969C96.9612 93.2736 96.9275 92.9386 96.8006 92.6345C96.6737 92.3304 96.4593 92.0708 96.1847 91.8887C95.91 91.7066 95.5874 91.6102 95.2579 91.6117C94.8191 91.6138 94.3988 91.7891 94.0887 92.0996C93.7786 92.41 93.6038 92.8305 93.6023 93.2693ZM97.2496 93.2693C97.2496 93.6617 97.1333 94.0453 96.9152 94.3715C96.6972 94.6978 96.3874 94.9521 96.0248 95.1023C95.6623 95.2524 95.2634 95.2917 94.8785 95.2152C94.4937 95.1386 94.1401 94.9497 93.8627 94.6722C93.5852 94.3947 93.3962 94.0412 93.3197 93.6563C93.2431 93.2715 93.2824 92.8725 93.4326 92.51C93.5828 92.1475 93.837 91.8376 94.1633 91.6196C94.4896 91.4016 94.8732 91.2852 95.2656 91.2852C95.7913 91.2868 96.2951 91.4963 96.6668 91.868C97.0386 92.2398 97.2481 92.7435 97.2496 93.2693Z" fill="#689F63"/>
<path fill-rule="evenodd" clip-rule="evenodd" d="M47.3784 67.419C47.379 67.1872 47.3185 66.9594 47.2028 66.7586C47.0871 66.5577 46.9204 66.391 46.7196 66.2753L35.8104 59.9967C35.6273 59.8908 35.4209 59.8317 35.2095 59.8248H35.0956C34.8836 59.832 34.6767 59.8911 34.4928 59.9967L23.5855 66.2753C23.3846 66.3915 23.2178 66.5586 23.1018 66.7597C22.9858 66.9607 22.9248 67.1888 22.9248 67.4209L22.948 84.3286C22.9455 84.4458 22.9747 84.5616 23.0325 84.6636C23.0903 84.7656 23.1745 84.8501 23.2764 84.9082C23.3746 84.9687 23.4876 85.0007 23.6029 85.0007C23.7182 85.0007 23.8312 84.9687 23.9294 84.9082L30.4166 81.1874C30.6165 81.0706 30.7824 80.9037 30.898 80.7031C31.0135 80.5025 31.0746 80.2752 31.0754 80.0437V72.1405C31.0748 71.9092 31.1354 71.682 31.2511 71.4818C31.3668 71.2816 31.5335 71.1156 31.7341 71.0007L34.4948 69.403C34.6949 69.2879 34.9217 69.2273 35.1526 69.2273C35.3834 69.2273 35.6102 69.2879 35.8104 69.403L38.5729 70.9987C38.7738 71.114 38.9407 71.2803 39.0567 71.4808C39.1727 71.6813 39.2338 71.9088 39.2336 72.1405V80.0379C39.2335 80.2701 39.294 80.4983 39.4093 80.7C39.5245 80.9016 39.6903 81.0696 39.8905 81.1874L46.3719 84.9004C46.4717 84.9592 46.5854 84.9902 46.7013 84.9902C46.8171 84.9902 46.9308 84.9592 47.0306 84.9004C47.13 84.8422 47.2124 84.7589 47.2697 84.6589C47.327 84.559 47.3571 84.4458 47.3571 84.3305L47.3784 67.419ZM98.8607 76.2225C98.8608 76.2804 98.8456 76.3372 98.8168 76.3874C98.788 76.4376 98.7465 76.4793 98.6965 76.5084L94.9487 78.676C94.8986 78.7044 94.842 78.7194 94.7845 78.7194C94.7269 78.7194 94.6703 78.7044 94.6202 78.676L90.8724 76.5161C90.8219 76.4874 90.7799 76.4458 90.7507 76.3956C90.7216 76.3454 90.7062 76.2883 90.7063 76.2302V71.897C90.706 71.8394 90.7209 71.7826 90.7493 71.7325C90.7778 71.6823 90.8189 71.6405 90.8686 71.6111L94.6144 69.4474C94.6649 69.4181 94.7222 69.4026 94.7806 69.4026C94.839 69.4026 94.8963 69.4181 94.9467 69.4474L98.6945 71.6111C98.7447 71.6401 98.7863 71.6818 98.8151 71.732C98.844 71.7822 98.859 71.8391 98.8588 71.897L98.8607 76.2225ZM99.873 44.1786C99.7724 44.1226 99.6589 44.0938 99.5438 44.0953C99.4286 44.0968 99.3159 44.1285 99.2168 44.1871C99.1177 44.2457 99.0357 44.3293 98.979 44.4295C98.9223 44.5297 98.8928 44.643 98.8935 44.7582V61.4978C98.8934 61.5787 98.8721 61.6582 98.8316 61.7282C98.7912 61.7983 98.733 61.8565 98.6629 61.897C98.5929 61.9375 98.5134 61.9589 98.4325 61.959C98.3516 61.9591 98.2721 61.938 98.2019 61.8977L95.4683 60.3232C95.2685 60.2074 95.0415 60.1464 94.8105 60.1464C94.5795 60.1464 94.3526 60.2074 94.1527 60.3232L83.2377 66.6211C83.0376 66.7366 82.8714 66.9028 82.7557 67.1028C82.6401 67.3029 82.5791 67.5298 82.5789 67.7609V80.3605C82.5792 80.5919 82.6402 80.8191 82.7558 81.0194C82.8714 81.2198 83.0376 81.3863 83.2377 81.5023L94.1527 87.806C94.3533 87.9208 94.5804 87.9813 94.8115 87.9813C95.0426 87.9813 95.2697 87.9208 95.4703 87.806L106.381 81.5004C106.582 81.3843 106.748 81.2178 106.863 81.0175C106.979 80.8171 107.04 80.5899 107.04 80.3586V48.9542C107.041 48.7182 106.979 48.4862 106.86 48.2824C106.741 48.0786 106.57 47.9103 106.364 47.7951L99.873 44.1786ZM136.217 71.7831C136.416 71.6667 136.582 71.5003 136.696 71.3004C136.811 71.1004 136.872 70.8739 136.872 70.6433V67.589C136.872 67.3582 136.811 67.1315 136.696 66.9315C136.58 66.7316 136.415 66.5653 136.215 66.4492L125.372 60.1552C125.171 60.0384 124.943 59.9769 124.711 59.9769C124.479 59.9769 124.251 60.0384 124.05 60.1552L113.143 66.453C112.942 66.568 112.775 66.734 112.659 66.9341C112.543 67.1343 112.482 67.3615 112.482 67.5928V80.1886C112.483 80.4214 112.544 80.65 112.661 80.8515C112.777 81.0529 112.945 81.2201 113.147 81.3361L123.988 87.5181C124.186 87.6297 124.409 87.6883 124.636 87.6883C124.862 87.6883 125.085 87.6297 125.283 87.5181L131.84 83.8746C131.941 83.8172 132.026 83.7339 132.085 83.6331C132.144 83.5323 132.175 83.4176 132.175 83.3008C132.175 83.1841 132.144 83.0694 132.085 82.9686C132.026 82.8678 131.941 82.7845 131.84 82.7271L120.87 76.4311C120.77 76.3739 120.686 76.291 120.628 76.1909C120.569 76.0908 120.538 75.9771 120.538 75.8612V71.9144C120.536 71.7971 120.566 71.6814 120.624 71.5794C120.682 71.4775 120.767 71.393 120.869 71.3349L124.284 69.3644C124.384 69.3065 124.497 69.2761 124.612 69.2761C124.728 69.2761 124.841 69.3065 124.941 69.3644L128.351 71.3349C128.451 71.3924 128.534 71.4753 128.592 71.5754C128.65 71.6755 128.681 71.7891 128.681 71.9048V75.0112C128.681 75.1269 128.712 75.2406 128.769 75.3408C128.827 75.441 128.911 75.5242 129.011 75.582C129.111 75.6397 129.225 75.6701 129.341 75.6699C129.456 75.6698 129.57 75.6391 129.67 75.5811L136.217 71.7831Z" fill="#333333"/>
<path fill-rule="evenodd" clip-rule="evenodd" d="M124.551 71.1938C124.589 71.171 124.633 71.159 124.677 71.159C124.722 71.159 124.766 71.171 124.804 71.1938L126.898 72.4012C126.936 72.4235 126.968 72.4554 126.99 72.4937C127.012 72.532 127.023 72.5754 127.024 72.6195V75.0382C127.023 75.0827 127.012 75.1263 126.99 75.1649C126.968 75.2035 126.936 75.2358 126.898 75.2585L124.804 76.4659C124.766 76.4887 124.722 76.5007 124.677 76.5007C124.633 76.5007 124.589 76.4887 124.551 76.4659L122.459 75.2585C122.419 75.2365 122.387 75.2046 122.364 75.1659C122.341 75.1272 122.329 75.0831 122.329 75.0382V72.6195C122.329 72.5753 122.34 72.5317 122.362 72.4934C122.384 72.455 122.416 72.4232 122.455 72.4012L124.551 71.1938Z" fill="#689F63"/>
<mask id="mask0_5401_10110" style="mask-type:luminance" maskUnits="userSpaceOnUse" x="52" y="60" width="26" height="28">
<path d="M64.3245 60.2169L53.4732 66.4801C53.2737 66.5951 53.1079 66.7606 52.9926 66.96C52.8773 67.1594 52.8165 67.3856 52.8164 67.616V80.1519C52.8163 80.382 52.8769 80.6081 52.9923 80.8072C53.1076 81.0064 53.2736 81.1715 53.4732 81.2859L64.3245 87.5625C64.524 87.6775 64.7502 87.738 64.9804 87.738C65.2106 87.738 65.4368 87.6775 65.6363 87.5625L76.4876 81.2936C76.6861 81.1783 76.851 81.0128 76.9656 80.8138C77.0801 80.6148 77.1405 80.3892 77.1405 80.1596V67.616C77.1404 67.3856 77.0797 67.1594 76.9644 66.96C76.8491 66.7606 76.6833 66.5951 76.4837 66.4801L65.6343 60.2169C65.4346 60.1018 65.2081 60.0412 64.9775 60.0412C64.7469 60.0412 64.5204 60.1018 64.3207 60.2169" fill="white"/>
</mask>
<g mask="url(#mask0_5401_10110)">
<path d="M88.1082 65.4175L57.5287 50.4282L41.8574 82.4141L72.435 97.4035L88.1082 65.4175Z" fill="url(#paint0_linear_5401_10110)"/>
</g>
<mask id="mask1_5401_10110" style="mask-type:luminance" maskUnits="userSpaceOnUse" x="53" y="60" width="24" height="28">
<path d="M53.0859 80.9478C53.191 81.085 53.3224 81.1999 53.4723 81.2859L62.782 86.6642L64.3275 87.5548C64.4787 87.6436 64.6467 87.7004 64.8208 87.7217C64.9949 87.743 65.1716 87.7282 65.3398 87.6784L76.7861 66.7215C76.6963 66.627 76.5935 66.5457 76.4808 66.48L69.3812 62.3768L65.6199 60.215C65.5132 60.1547 65.3988 60.1092 65.2799 60.0798L53.0859 80.9478Z" fill="white"/>
</mask>
<g mask="url(#mask1_5401_10110)">
<path d="M39.8662 69.8512L61.4568 99.0745L90.0117 77.9766L68.4192 48.7532L39.8662 69.8512Z" fill="url(#paint1_linear_5401_10110)"/>
</g>
<mask id="mask2_5401_10110" style="mask-type:luminance" maskUnits="userSpaceOnUse" x="53" y="60" width="25" height="28">
<path d="M64.8459 60.0489C64.6617 60.0685 64.4835 60.1257 64.3224 60.2169L53.5039 66.4627L65.1724 87.7132C65.3363 87.6897 65.4943 87.6353 65.638 87.5529L76.4893 81.284C76.6534 81.1897 76.7951 81.0609 76.9045 80.9064C77.0139 80.752 77.0884 80.5756 77.1229 80.3895L65.2323 60.0701C65.1451 60.0531 65.0564 60.0447 64.9676 60.045H64.8594" fill="white"/>
</mask>
<g mask="url(#mask2_5401_10110)">
<path d="M53.5039 60.0451V87.7171H77.119V60.0451H53.5039Z" fill="url(#paint2_linear_5401_10110)"/>
</g>
</g>
</g>
<defs>
<linearGradient id="paint0_linear_5401_10110" x1="73.0631" y1="58.005" x2="57.3763" y2="90.0091" gradientUnits="userSpaceOnUse">
<stop offset="0.3" stop-color="#3E863D"/>
<stop offset="0.5" stop-color="#55934F"/>
<stop offset="0.8" stop-color="#5AAD45"/>
</linearGradient>
<linearGradient id="paint1_linear_5401_10110" x1="50.9463" y1="84.5307" x2="79.5585" y2="63.3905" gradientUnits="userSpaceOnUse">
<stop offset="0.57" stop-color="#3E863D"/>
<stop offset="0.72" stop-color="#619857"/>
<stop offset="1" stop-color="#76AC64"/>
</linearGradient>
<linearGradient id="paint2_linear_5401_10110" x1="53.6512" y1="73.7982" x2="77.2386" y2="73.7982" gradientUnits="userSpaceOnUse">
<stop offset="0.16" stop-color="#6BBF47"/>
<stop offset="0.38" stop-color="#79B461"/>
<stop offset="0.47" stop-color="#75AC64"/>
<stop offset="0.7" stop-color="#659E5A"/>
<stop offset="0.9" stop-color="#3E863D"/>
</linearGradient>
<clipPath id="clip0_5401_10110">
<rect width="158.426" height="158.426" fill="white" transform="translate(0.852539 0.52832)"/>
</clipPath>
<clipPath id="clip1_5401_10110">
<rect width="113.947" height="69.7868" fill="white" transform="translate(22.9248 44.0955)"/>
</clipPath>
</defs>
</svg>
