<svg width="24" height="25" viewBox="0 0 24 25" fill="none" xmlns="http://www.w3.org/2000/svg">
<ellipse cx="10.485" cy="4.66982" rx="1.6237" ry="1.59292" fill="#CBB152"/>
<ellipse cx="10.485" cy="4.66982" rx="1.6237" ry="1.59292" fill="#CBB152"/>
<ellipse cx="10.485" cy="4.66982" rx="1.6237" ry="1.59292" fill="#CBB152"/>
<ellipse cx="10.485" cy="4.66982" rx="1.6237" ry="1.59292" fill="#CBB152"/>
<ellipse cx="10.485" cy="4.66982" rx="1.6237" ry="1.59292" fill="#CBB152"/>
<ellipse cx="5.72136" cy="17.2008" rx="1.6237" ry="1.59292" fill="#CBB152"/>
<ellipse cx="5.72136" cy="17.2008" rx="1.6237" ry="1.59292" fill="#CBB152"/>
<ellipse cx="5.72136" cy="17.2008" rx="1.6237" ry="1.59292" fill="#CBB152"/>
<ellipse cx="5.72136" cy="17.2008" rx="1.6237" ry="1.59292" fill="#CBB152"/>
<ellipse cx="5.72136" cy="17.2008" rx="1.6237" ry="1.59292" fill="#CBB152"/>
<ellipse cx="12.4333" cy="20.1745" rx="1.6237" ry="1.59292" fill="#CBB152"/>
<ellipse cx="12.4333" cy="20.1745" rx="1.6237" ry="1.59292" fill="#CBB152"/>
<ellipse cx="12.4333" cy="20.1745" rx="1.6237" ry="1.59292" fill="#CBB152"/>
<ellipse cx="12.4333" cy="20.1745" rx="1.6237" ry="1.59292" fill="#CBB152"/>
<ellipse cx="12.4333" cy="20.1745" rx="1.6237" ry="1.59292" fill="#CBB152"/>
<ellipse cx="18.278" cy="8.28042" rx="1.6237" ry="1.59292" fill="#CBB152"/>
<ellipse cx="18.278" cy="8.28042" rx="1.6237" ry="1.59292" fill="#CBB152"/>
<ellipse cx="18.278" cy="8.28042" rx="1.6237" ry="1.59292" fill="#CBB152"/>
<ellipse cx="18.278" cy="8.28042" rx="1.6237" ry="1.59292" fill="#CBB152"/>
<ellipse cx="18.278" cy="8.28042" rx="1.6237" ry="1.59292" fill="#CBB152"/>
<ellipse cx="13.9486" cy="7.85585" rx="1.8402" ry="1.80531" fill="#CBB152"/>
<ellipse cx="13.9486" cy="7.85585" rx="1.8402" ry="1.80531" fill="#CBB152"/>
<ellipse cx="13.9486" cy="7.85585" rx="1.8402" ry="1.80531" fill="#CBB152"/>
<ellipse cx="13.9486" cy="7.85585" rx="1.8402" ry="1.80531" fill="#CBB152"/>
<ellipse cx="13.9486" cy="7.85585" rx="1.8402" ry="1.80531" fill="#CBB152"/>
<ellipse cx="9.7273" cy="2.43989" rx="0.865975" ry="0.849557" fill="#CBB152"/>
<ellipse cx="9.7273" cy="2.43989" rx="0.865975" ry="0.849557" fill="#CBB152"/>
<ellipse cx="9.7273" cy="2.43989" rx="0.865975" ry="0.849557" fill="#CBB152"/>
<ellipse cx="9.7273" cy="2.43989" rx="0.865975" ry="0.849557" fill="#CBB152"/>
<ellipse cx="9.7273" cy="2.43989" rx="0.865975" ry="0.849557" fill="#CBB152"/>
<ellipse cx="3.44898" cy="18.1567" rx="0.865975" ry="0.849557" fill="#CBB152"/>
<ellipse cx="3.44898" cy="18.1567" rx="0.865975" ry="0.849557" fill="#CBB152"/>
<ellipse cx="3.44898" cy="18.1567" rx="0.865975" ry="0.849557" fill="#CBB152"/>
<ellipse cx="3.44898" cy="18.1567" rx="0.865975" ry="0.849557" fill="#CBB152"/>
<ellipse cx="3.44898" cy="18.1567" rx="0.865975" ry="0.849557" fill="#CBB152"/>
<ellipse cx="13.1912" cy="22.4045" rx="0.865975" ry="0.849557" fill="#CBB152"/>
<ellipse cx="13.1912" cy="22.4045" rx="0.865975" ry="0.849557" fill="#CBB152"/>
<ellipse cx="13.1912" cy="22.4045" rx="0.865975" ry="0.849557" fill="#CBB152"/>
<ellipse cx="13.1912" cy="22.4045" rx="0.865975" ry="0.849557" fill="#CBB152"/>
<ellipse cx="13.1912" cy="22.4045" rx="0.865975" ry="0.849557" fill="#CBB152"/>
<ellipse cx="20.5515" cy="7.32466" rx="0.865975" ry="0.849557" fill="#CBB152"/>
<ellipse cx="20.5515" cy="7.32466" rx="0.865975" ry="0.849557" fill="#CBB152"/>
<ellipse cx="20.5515" cy="7.32466" rx="0.865975" ry="0.849557" fill="#CBB152"/>
<ellipse cx="20.5515" cy="7.32466" rx="0.865975" ry="0.849557" fill="#CBB152"/>
<ellipse cx="20.5515" cy="7.32466" rx="0.865975" ry="0.849557" fill="#CBB152"/>
<ellipse cx="9.18577" cy="1.05929" rx="0.541235" ry="0.530973" fill="#CBB152"/>
<ellipse cx="9.18577" cy="1.05929" rx="0.541235" ry="0.530973" fill="#CBB152"/>
<ellipse cx="9.18577" cy="1.05929" rx="0.541235" ry="0.530973" fill="#CBB152"/>
<ellipse cx="9.18577" cy="1.05929" rx="0.541235" ry="0.530973" fill="#CBB152"/>
<ellipse cx="9.18577" cy="1.05929" rx="0.541235" ry="0.530973" fill="#CBB152"/>
<ellipse cx="2.04123" cy="18.9001" rx="0.541235" ry="0.530973" fill="#CBB152"/>
<ellipse cx="2.04123" cy="18.9001" rx="0.541235" ry="0.530973" fill="#CBB152"/>
<ellipse cx="2.04123" cy="18.9001" rx="0.541235" ry="0.530973" fill="#CBB152"/>
<ellipse cx="2.04123" cy="18.9001" rx="0.541235" ry="0.530973" fill="#CBB152"/>
<ellipse cx="2.04123" cy="18.9001" rx="0.541235" ry="0.530973" fill="#CBB152"/>
<ellipse cx="13.7317" cy="23.9973" rx="0.541234" ry="0.530973" fill="#CBB152"/>
<ellipse cx="13.7317" cy="23.9973" rx="0.541234" ry="0.530973" fill="#CBB152"/>
<ellipse cx="13.7317" cy="23.9973" rx="0.541234" ry="0.530973" fill="#CBB152"/>
<ellipse cx="13.7317" cy="23.9973" rx="0.541234" ry="0.530973" fill="#CBB152"/>
<ellipse cx="13.7317" cy="23.9973" rx="0.541234" ry="0.530973" fill="#CBB152"/>
<path fill-rule="evenodd" clip-rule="evenodd" d="M9.82193 13.5801C8.97712 14.2129 7.98428 15.3683 7.00057 17.1716L5.0918 16.1694C6.16478 14.2025 7.33688 12.7693 8.50817 11.892C9.65797 11.0308 10.9904 10.586 12.2216 11.0446C13.4651 11.5077 14.1338 12.7139 14.3607 14.0972C14.5908 15.5006 14.4192 17.3004 13.7973 19.4082L11.7177 18.8177C12.2865 16.8899 12.3855 15.424 12.2232 14.4346C12.0577 13.4251 11.671 13.1113 11.4532 13.0302C11.2231 12.9445 10.6882 12.9312 9.82193 13.5801Z" fill="#CBB152"/>
<ellipse cx="21.9582" cy="6.58151" rx="0.541235" ry="0.530973" fill="#CBB152"/>
<ellipse cx="21.9582" cy="6.58151" rx="0.541235" ry="0.530973" fill="#CBB152"/>
<ellipse cx="21.9582" cy="6.58151" rx="0.541235" ry="0.530973" fill="#CBB152"/>
<ellipse cx="21.9582" cy="6.58151" rx="0.541235" ry="0.530973" fill="#CBB152"/>
<ellipse cx="21.9582" cy="6.58151" rx="0.541235" ry="0.530973" fill="#CBB152"/>
<path fill-rule="evenodd" clip-rule="evenodd" d="M12.8226 10.1509C13.6825 10.5396 15.1856 10.317 16.9845 8.35064L18.2734 9.48551C16.2836 11.6606 13.9981 12.5531 12.0978 11.6941C10.2326 10.8509 9.34132 8.57809 9.51198 5.78757L11.2408 5.88933C11.0867 8.40856 11.9274 9.74626 12.8226 10.1509Z" fill="#CBB152"/>
</svg>
