<svg width="80" height="80" viewBox="0 0 80 80" fill="none" xmlns="http://www.w3.org/2000/svg">
<g clip-path="url(#clip0_4367_1240)">
<path d="M42.77 19.0142L55.6509 19L34.0434 40.6075L28.4081 46.2002L22 39.7842L42.77 19.0142ZM42.6502 38.3001C42.8173 38.0793 43.1233 38.1881 43.3583 38.1597H55.6399L44.4418 49.342L38.0006 42.9402L42.6502 38.3001Z" fill="#44D1FD"/>
<path d="M31.5846 49.3562L38.0053 42.9433L44.4466 49.3451L44.4734 49.3735L38.0069 55.7801L31.5846 49.3562Z" fill="#1FBCFD"/>
<path d="M38.0069 55.7801L44.4734 49.3735L55.6446 60.5558C51.4367 60.5653 47.2303 60.5558 43.0271 60.5558C42.7874 60.6094 42.6391 60.3981 42.4861 60.2546L38.0069 55.7801Z" fill="#08589C"/>
</g>
<defs>
<clipPath id="clip0_4367_1240">
<rect width="33.6509" height="41.57" fill="white" transform="translate(22 19)"/>
</clipPath>
</defs>
</svg>
