<svg width="80" height="80" viewBox="0 0 80 80" fill="none" xmlns="http://www.w3.org/2000/svg">
<g clip-path="url(#clip0_3546_7967)">
<path d="M53.6797 23H26.3203C24.4866 23 23 24.4866 23 26.3203V53.6797C23 55.5134 24.4866 57 26.3203 57H53.6797C55.5134 57 57 55.5134 57 53.6797V26.3203C57 24.4866 55.5134 23 53.6797 23Z" fill="#3178C6"/>
<path d="M53.6797 23H26.3203C24.4866 23 23 24.4866 23 26.3203V53.6797C23 55.5134 24.4866 57 26.3203 57H53.6797C55.5134 57 57 55.5134 57 53.6797V26.3203C57 24.4866 55.5134 23 53.6797 23Z" fill="#3178C6"/>
<path fill-rule="evenodd" clip-rule="evenodd" d="M44.0467 50.0555V53.3799C44.5871 53.6569 45.2263 53.8646 45.9642 54.0032C46.7021 54.1417 47.4798 54.2109 48.2974 54.2109C49.0942 54.2109 49.8511 54.1348 50.5682 53.9824C51.2853 53.83 51.9141 53.5789 52.4546 53.2292C52.995 52.8795 53.4228 52.4224 53.7381 51.8579C54.0533 51.2934 54.2109 50.5957 54.2109 49.7646C54.2109 49.1621 54.1209 48.634 53.9407 48.1804C53.7606 47.7268 53.5008 47.3233 53.1613 46.9701C52.8218 46.6169 52.4147 46.3 51.9401 46.0195C51.4655 45.739 50.9303 45.4741 50.3344 45.2248C49.8979 45.0447 49.5065 44.8699 49.16 44.7002C48.8136 44.5305 48.5191 44.3574 48.2766 44.1808C48.0341 44.0042 47.847 43.8172 47.7154 43.6198C47.5838 43.4224 47.5179 43.1991 47.5179 42.9497C47.5179 42.7212 47.5768 42.5151 47.6946 42.3316C47.8124 42.148 47.9787 41.9905 48.1935 41.8589C48.4083 41.7274 48.6715 41.6252 48.9833 41.5524C49.2951 41.4797 49.6415 41.4434 50.0226 41.4434C50.2997 41.4434 50.5925 41.4642 50.9008 41.5057C51.2091 41.5473 51.5192 41.6113 51.831 41.6979C52.1428 41.7845 52.4459 41.8936 52.7404 42.0251C53.0348 42.1567 53.3068 42.3091 53.5562 42.4823V39.376C53.0504 39.1821 52.4979 39.0384 51.8985 38.9449C51.2992 38.8514 50.6115 38.8047 49.8356 38.8047C49.0457 38.8047 48.2974 38.8896 47.5907 39.0592C46.884 39.2289 46.2622 39.4938 45.7251 39.8539C45.1882 40.2141 44.7639 40.6729 44.4521 41.2304C44.1403 41.7879 43.9844 42.4545 43.9844 43.2302C43.9844 44.2206 44.2702 45.0655 44.8418 45.7651C45.4134 46.4645 46.2812 47.0567 47.4452 47.5415C47.9025 47.7285 48.3286 47.912 48.7235 48.0921C49.1184 48.2722 49.4597 48.4592 49.7472 48.6531C50.0347 48.847 50.2616 49.0582 50.428 49.2868C50.5943 49.5153 50.6774 49.775 50.6774 50.0659C50.6774 50.2806 50.6254 50.4797 50.5215 50.6632C50.4175 50.8468 50.2599 51.006 50.0486 51.1411C49.8373 51.2762 49.574 51.3818 49.2588 51.4579C48.9435 51.5342 48.5746 51.5722 48.1519 51.5722C47.4313 51.5722 46.7177 51.4458 46.011 51.193C45.3043 50.9403 44.6495 50.5611 44.0467 50.0555ZM38.458 41.8648H42.7227V39.1367H30.8359V41.8648H35.0797V54.0117H38.458V41.8648Z" fill="white"/>
</g>
<defs>
<clipPath id="clip0_3546_7967">
<rect width="34" height="34" fill="white" transform="translate(23 23)"/>
</clipPath>
</defs>
</svg>
