<svg width="80" height="80" viewBox="0 0 80 80" fill="none" xmlns="http://www.w3.org/2000/svg">
<g clip-path="url(#clip0_3822_6562)">
<path d="M39.5848 57.24C39.3935 57.24 39.2055 57.1898 39.0395 57.0947L37.305 56.0675C37.0455 55.9221 37.1723 55.8723 37.2582 55.8411C37.5318 55.7543 37.7939 55.6344 38.0386 55.4841C38.0589 55.4742 38.0815 55.4698 38.1041 55.4713C38.1267 55.4729 38.1485 55.4803 38.1673 55.4929L39.4999 56.284C39.5249 56.2966 39.5525 56.3031 39.5804 56.3031C39.6083 56.3031 39.6359 56.2966 39.6609 56.284L44.8575 53.2843C44.8817 53.2697 44.9016 53.249 44.9155 53.2244C44.9293 53.1998 44.9366 53.172 44.9365 53.1438V47.1472C44.9366 47.1186 44.9293 47.0904 44.9153 47.0655C44.9013 47.0405 44.881 47.0196 44.8565 47.0048L39.6658 44.008C39.6415 43.9936 39.6139 43.9861 39.5858 43.9861C39.5576 43.9861 39.53 43.9936 39.5058 44.008L34.313 47.0048C34.288 47.019 34.2672 47.0396 34.2526 47.0644C34.2381 47.0892 34.2303 47.1175 34.2301 47.1462V53.1428C34.2301 53.171 34.2376 53.1987 34.2518 53.223C34.2661 53.2474 34.2865 53.2675 34.3111 53.2813L35.7344 54.1037C36.507 54.4939 36.9792 54.0345 36.9792 53.5769V47.6565C36.979 47.6367 36.9828 47.6172 36.9903 47.599C36.9979 47.5807 37.0089 47.5642 37.0229 47.5503C37.0369 47.5364 37.0535 47.5254 37.0718 47.518C37.0901 47.5106 37.1097 47.5069 37.1294 47.5072H37.7879C37.8075 47.5071 37.827 47.5108 37.8451 47.5183C37.8633 47.5257 37.8798 47.5367 37.8937 47.5506C37.9076 47.5645 37.9186 47.581 37.926 47.5992C37.9335 47.6173 37.9373 47.6368 37.9371 47.6565V53.5779C37.9371 54.6081 37.3752 55.1992 36.3987 55.1992C36.0983 55.1992 35.8612 55.1992 35.2008 54.8744L33.835 54.0891C33.6692 53.9924 33.5316 53.854 33.4359 53.6877C33.3403 53.5213 33.2898 53.3328 33.2897 53.1409V47.1462C33.2894 46.9544 33.3397 46.7658 33.4354 46.5995C33.5311 46.4333 33.669 46.2951 33.835 46.199L39.0365 43.1983C39.2042 43.1071 39.392 43.0593 39.5828 43.0593C39.7737 43.0593 39.9615 43.1071 40.1291 43.1983L45.3238 46.201C45.4896 46.2971 45.6272 46.4352 45.7229 46.6012C45.8186 46.7673 45.8691 46.9556 45.8691 47.1472V53.1438C45.8687 53.3355 45.8182 53.5238 45.7225 53.69C45.6269 53.8561 45.4894 53.9944 45.3238 54.091L40.1291 57.0918C39.9622 57.1873 39.7732 57.2374 39.5809 57.2371" fill="#689F63"/>
<path d="M41.1915 53.1076C38.9185 53.1076 38.4415 52.0648 38.4415 51.1888C38.4415 51.1691 38.4454 51.1496 38.4529 51.1314C38.4605 51.1133 38.4716 51.0968 38.4855 51.0829C38.4995 51.069 38.5161 51.058 38.5343 51.0506C38.5525 51.0432 38.572 51.0394 38.5917 51.0395H39.2629C39.2986 51.0395 39.3332 51.0523 39.3604 51.0756C39.3876 51.0988 39.4056 51.131 39.4111 51.1663C39.5087 51.8492 39.814 52.1955 41.1895 52.1955C42.2841 52.1955 42.7504 51.9477 42.7504 51.3673C42.7504 51.0327 42.6177 50.782 40.9164 50.6181C39.4931 50.4776 38.6141 50.1645 38.6141 49.026C38.6141 47.9773 39.498 47.353 40.9798 47.353C42.6431 47.353 43.4684 47.9305 43.5718 49.1714C43.5737 49.1922 43.5712 49.2132 43.5645 49.2331C43.5578 49.2529 43.547 49.2711 43.5329 49.2866C43.5188 49.302 43.5015 49.3143 43.4824 49.3227C43.4632 49.3311 43.4425 49.3354 43.4215 49.3353H42.7465C42.7124 49.3354 42.6793 49.3239 42.6526 49.3026C42.626 49.2813 42.6075 49.2515 42.6001 49.2182C42.4382 48.4992 42.0451 48.269 40.9769 48.269C39.7818 48.269 39.6423 48.6856 39.6423 48.9977C39.6423 49.3762 39.8062 49.4855 41.4198 49.7001C43.0167 49.9118 43.7747 50.2113 43.7747 51.3332C43.7747 52.455 42.8284 53.1193 41.1817 53.1193M47.511 46.7599H47.6856C47.7076 46.7626 47.73 46.7605 47.7512 46.7536C47.7724 46.7468 47.7918 46.7354 47.808 46.7202C47.8243 46.7051 47.8371 46.6865 47.8454 46.6659C47.8537 46.6453 47.8575 46.6231 47.8563 46.6009C47.8563 46.4477 47.7509 46.4477 47.6924 46.4477H47.5129L47.511 46.7599ZM47.2993 46.2721H47.6895C47.8221 46.2721 48.0797 46.2721 48.0797 46.5648C48.085 46.629 48.0662 46.693 48.0269 46.744C47.9875 46.7951 47.9305 46.8296 47.867 46.8408C48.0221 46.8506 48.0329 46.9521 48.0533 47.0955C48.0596 47.1952 48.0792 47.2937 48.1119 47.3881H47.8739C47.867 47.3364 47.8309 47.0496 47.8309 47.034C47.8153 46.9706 47.7929 46.9364 47.7139 46.9364H47.5188V47.3862H47.3012L47.2993 46.2721ZM46.8349 46.8311C46.8343 46.9975 46.8832 47.1603 46.9753 47.2989C47.0674 47.4375 47.1986 47.5456 47.3523 47.6095C47.5059 47.6734 47.6751 47.6903 47.8383 47.6579C48.0016 47.6255 48.1515 47.5453 48.2691 47.4276C48.3867 47.3098 48.4667 47.1598 48.4989 46.9966C48.5311 46.8333 48.5141 46.6641 48.45 46.5106C48.3859 46.357 48.2776 46.2259 48.1389 46.1339C48.0002 46.042 47.8374 45.9933 47.6709 45.9941C47.4494 45.9951 47.2372 46.0837 47.0806 46.2404C46.924 46.3972 46.8357 46.6095 46.8349 46.8311ZM48.6767 46.8311C48.6767 47.0292 48.618 47.2229 48.5079 47.3877C48.3978 47.5525 48.2413 47.6809 48.0582 47.7567C47.8752 47.8325 47.6737 47.8524 47.4794 47.8137C47.285 47.7751 47.1065 47.6796 46.9664 47.5395C46.8263 47.3994 46.7309 47.2209 46.6922 47.0265C46.6536 46.8322 46.6734 46.6308 46.7492 46.4477C46.8251 46.2646 46.9535 46.1082 47.1182 45.9981C47.283 45.888 47.4767 45.8292 47.6748 45.8292C47.9403 45.83 48.1947 45.9358 48.3824 46.1235C48.5701 46.3112 48.6759 46.5656 48.6767 46.8311Z" fill="#689F63"/>
<path fill-rule="evenodd" clip-rule="evenodd" d="M23.4934 33.7774C23.4938 33.6604 23.4632 33.5454 23.4048 33.444C23.3464 33.3425 23.2622 33.2584 23.1608 33.1999L17.652 30.0295C17.5596 29.976 17.4553 29.9461 17.3486 29.9426H17.291C17.184 29.9463 17.0795 29.9761 16.9867 30.0295L11.4788 33.1999C11.3774 33.2586 11.2931 33.343 11.2346 33.4445C11.176 33.5461 11.1452 33.6612 11.1452 33.7784L11.1569 42.3162C11.1556 42.3754 11.1704 42.4339 11.1996 42.4854C11.2288 42.5369 11.2713 42.5796 11.3227 42.6089C11.3723 42.6395 11.4294 42.6556 11.4876 42.6556C11.5458 42.6556 11.6029 42.6395 11.6525 42.6089L14.9283 40.73C15.0292 40.6711 15.113 40.5868 15.1714 40.4855C15.2297 40.3842 15.2606 40.2694 15.261 40.1525V36.1616C15.2607 36.0449 15.2913 35.9301 15.3497 35.829C15.4081 35.7279 15.4923 35.6441 15.5936 35.5861L16.9876 34.7793C17.0887 34.7212 17.2032 34.6906 17.3198 34.6906C17.4364 34.6906 17.5509 34.7212 17.652 34.7793L19.047 35.5851C19.1484 35.6433 19.2327 35.7273 19.2913 35.8285C19.3499 35.9298 19.3807 36.0447 19.3806 36.1616V40.1496C19.3806 40.2669 19.4111 40.3821 19.4693 40.4839C19.5275 40.5857 19.6112 40.6706 19.7123 40.73L22.9852 42.605C23.0356 42.6347 23.093 42.6503 23.1515 42.6503C23.21 42.6503 23.2674 42.6347 23.3178 42.605C23.368 42.5756 23.4097 42.5335 23.4386 42.483C23.4675 42.4326 23.4827 42.3754 23.4827 42.3172L23.4934 33.7774ZM49.4903 38.2229C49.4903 38.2521 49.4827 38.2809 49.4681 38.3062C49.4536 38.3315 49.4326 38.3526 49.4074 38.3673L47.5149 39.4618C47.4896 39.4762 47.461 39.4838 47.4319 39.4838C47.4029 39.4838 47.3743 39.4762 47.349 39.4618L45.4565 38.3712C45.431 38.3567 45.4098 38.3357 45.395 38.3103C45.3803 38.285 45.3726 38.2562 45.3726 38.2268V36.0387C45.3725 36.0096 45.38 35.9809 45.3943 35.9556C45.4087 35.9303 45.4295 35.9092 45.4545 35.8943L47.3461 34.8017C47.3716 34.7869 47.4005 34.7791 47.43 34.7791C47.4595 34.7791 47.4884 34.7869 47.5139 34.8017L49.4064 35.8943C49.4317 35.909 49.4527 35.93 49.4673 35.9554C49.4819 35.9807 49.4895 36.0095 49.4893 36.0387L49.4903 38.2229ZM50.0015 22.0418C49.9507 22.0135 49.8934 21.999 49.8352 21.9998C49.7771 22.0005 49.7202 22.0165 49.6701 22.0461C49.6201 22.0757 49.5787 22.1179 49.55 22.1685C49.5214 22.2191 49.5065 22.2764 49.5069 22.3345V30.7874C49.5068 30.8283 49.4961 30.8684 49.4756 30.9038C49.4552 30.9392 49.4258 30.9686 49.3904 30.989C49.3551 31.0095 49.3149 31.0203 49.2741 31.0203C49.2332 31.0204 49.1931 31.0097 49.1576 30.9894L47.7773 30.1943C47.6763 30.1358 47.5618 30.105 47.4451 30.105C47.3284 30.105 47.2139 30.1358 47.1129 30.1943L41.6012 33.3746C41.5002 33.4329 41.4162 33.5168 41.3578 33.6178C41.2994 33.7188 41.2687 33.8334 41.2685 33.9501V40.3125C41.2687 40.4293 41.2995 40.544 41.3578 40.6452C41.4162 40.7464 41.5001 40.8305 41.6012 40.889L47.1129 44.0722C47.2142 44.1302 47.3289 44.1607 47.4456 44.1607C47.5623 44.1607 47.677 44.1302 47.7782 44.0722L53.288 40.8881C53.3891 40.8295 53.473 40.7454 53.5314 40.6442C53.5898 40.5431 53.6206 40.4283 53.6207 40.3115V24.4533C53.6212 24.3342 53.5898 24.217 53.5298 24.1141C53.4698 24.0112 53.3832 23.9262 53.2793 23.868L50.0015 22.0418ZM68.3541 35.9812C68.4546 35.9224 68.5381 35.8384 68.5961 35.7374C68.6541 35.6365 68.6847 35.5221 68.6848 35.4056V33.8633C68.6846 33.7467 68.6539 33.6323 68.5957 33.5313C68.5375 33.4303 68.4539 33.3463 68.3531 33.2877L62.8775 30.1095C62.7762 30.0505 62.6611 30.0195 62.5438 30.0195C62.4266 30.0195 62.3115 30.0505 62.2102 30.1095L56.7024 33.2897C56.601 33.3477 56.5168 33.4315 56.4582 33.5326C56.3996 33.6337 56.3688 33.7484 56.3687 33.8652V40.2257C56.3689 40.3432 56.3999 40.4587 56.4589 40.5604C56.5178 40.6621 56.6024 40.7465 56.7043 40.8052L62.179 43.9268C62.2787 43.9832 62.3913 44.0128 62.5058 44.0128C62.6203 44.0128 62.7329 43.9832 62.8326 43.9268L66.1435 42.087C66.1949 42.058 66.2376 42.0159 66.2674 41.965C66.2971 41.9141 66.3128 41.8562 66.3128 41.7973C66.3128 41.7383 66.2971 41.6804 66.2674 41.6295C66.2376 41.5786 66.1949 41.5365 66.1435 41.5075L60.6045 38.3283C60.5536 38.2994 60.5113 38.2575 60.4818 38.207C60.4524 38.1564 60.4368 38.099 60.4367 38.0405V36.0475C60.4357 35.9882 60.4507 35.9298 60.4801 35.8783C60.5094 35.8269 60.552 35.7842 60.6035 35.7548L62.3283 34.7598C62.3786 34.7306 62.4359 34.7152 62.4941 34.7152C62.5523 34.7152 62.6095 34.7306 62.6599 34.7598L64.3817 35.7548C64.4324 35.7839 64.4745 35.8258 64.5038 35.8763C64.5331 35.9268 64.5485 35.9842 64.5486 36.0426V37.6113C64.5486 37.6697 64.564 37.7271 64.5932 37.7777C64.6224 37.8283 64.6645 37.8703 64.7151 37.8995C64.7658 37.9287 64.8232 37.944 64.8816 37.9439C64.9401 37.9438 64.9975 37.9284 65.048 37.8991L68.3541 35.9812Z" fill="#333333"/>
<path fill-rule="evenodd" clip-rule="evenodd" d="M62.4629 35.6837C62.4822 35.6722 62.5043 35.6661 62.5268 35.6661C62.5493 35.6661 62.5713 35.6722 62.5907 35.6837L63.6481 36.2934C63.6674 36.3047 63.6834 36.3208 63.6945 36.3401C63.7056 36.3594 63.7115 36.3814 63.7115 36.4037V37.625C63.7115 37.6475 63.7056 37.6695 63.6945 37.689C63.6834 37.7085 63.6674 37.7248 63.6481 37.7362L62.5907 38.3459C62.5713 38.3575 62.5493 38.3635 62.5268 38.3635C62.5043 38.3635 62.4822 38.3575 62.4629 38.3459L61.4064 37.7362C61.3866 37.7252 61.3701 37.709 61.3586 37.6895C61.3471 37.6699 61.3411 37.6477 61.341 37.625V36.4037C61.3408 36.3813 61.3466 36.3593 61.3578 36.3399C61.3689 36.3206 61.385 36.3045 61.4044 36.2934L62.4629 35.6837Z" fill="#689F63"/>
<mask id="mask0_3822_6562" style="mask-type:luminance" maskUnits="userSpaceOnUse" x="26" y="30" width="13" height="15">
<path d="M32.0508 30.1407L26.5712 33.3034C26.4705 33.3615 26.3867 33.445 26.3285 33.5457C26.2703 33.6464 26.2396 33.7607 26.2396 33.877V40.2072C26.2395 40.3234 26.2701 40.4376 26.3284 40.5381C26.3866 40.6387 26.4704 40.7221 26.5712 40.7798L32.0508 43.9493C32.1515 44.0074 32.2657 44.0379 32.382 44.0379C32.4982 44.0379 32.6124 44.0074 32.7132 43.9493L38.1927 40.7837C38.293 40.7255 38.3762 40.642 38.4341 40.5415C38.4919 40.441 38.5224 40.3271 38.5224 40.2111V33.877C38.5224 33.7607 38.4917 33.6464 38.4335 33.5457C38.3753 33.445 38.2915 33.3615 38.1908 33.3034L32.7122 30.1407C32.6113 30.0826 32.4969 30.052 32.3805 30.052C32.2641 30.052 32.1497 30.0826 32.0488 30.1407" fill="white"/>
</mask>
<g mask="url(#mask0_3822_6562)">
<path d="M44.0605 32.7669L28.6189 25.1978L20.7054 41.3496L36.146 48.9187L44.0605 32.7669Z" fill="url(#paint0_linear_3822_6562)"/>
</g>
<mask id="mask1_3822_6562" style="mask-type:luminance" maskUnits="userSpaceOnUse" x="26" y="30" width="13" height="15">
<path d="M26.3752 40.6092C26.4282 40.6785 26.4945 40.7365 26.5703 40.7799L31.2713 43.4958L32.0518 43.9455C32.1281 43.9904 32.2129 44.019 32.3009 44.0298C32.3888 44.0405 32.478 44.0331 32.5629 44.0079L38.3429 33.4254C38.2976 33.3777 38.2457 33.3366 38.1888 33.3035L34.6037 31.2314L32.7044 30.1398C32.6505 30.1094 32.5927 30.0864 32.5327 30.0715L26.3752 40.6092Z" fill="white"/>
</mask>
<g mask="url(#mask1_3822_6562)">
<path d="M19.6996 35.0058L30.6021 49.7626L45.0214 39.1089L34.1179 24.3521L19.6996 35.0058Z" fill="url(#paint1_linear_3822_6562)"/>
</g>
<mask id="mask2_3822_6562" style="mask-type:luminance" maskUnits="userSpaceOnUse" x="26" y="30" width="13" height="15">
<path d="M32.3142 30.0559C32.2212 30.0658 32.1312 30.0947 32.0498 30.1408L26.5869 33.2947L32.479 44.0255C32.5618 44.0136 32.6416 43.9861 32.7141 43.9445L38.1937 40.7789C38.2766 40.7313 38.3481 40.6663 38.4034 40.5883C38.4586 40.5103 38.4962 40.4212 38.5137 40.3272L32.5093 30.0666C32.4653 30.058 32.4205 30.0538 32.3756 30.054H32.321" fill="white"/>
</mask>
<g mask="url(#mask2_3822_6562)">
<path d="M26.5869 30.054V44.0274H38.5117V30.054H26.5869Z" fill="url(#paint2_linear_3822_6562)"/>
</g>
</g>
<defs>
<linearGradient id="paint0_linear_3822_6562" x1="36.4632" y1="29.0238" x2="28.5419" y2="45.1848" gradientUnits="userSpaceOnUse">
<stop offset="0.3" stop-color="#3E863D"/>
<stop offset="0.5" stop-color="#55934F"/>
<stop offset="0.8" stop-color="#5AAD45"/>
</linearGradient>
<linearGradient id="paint1_linear_3822_6562" x1="25.2947" y1="42.4185" x2="39.7429" y2="31.7434" gradientUnits="userSpaceOnUse">
<stop offset="0.57" stop-color="#3E863D"/>
<stop offset="0.72" stop-color="#619857"/>
<stop offset="1" stop-color="#76AC64"/>
</linearGradient>
<linearGradient id="paint2_linear_3822_6562" x1="26.6612" y1="36.9988" x2="38.5721" y2="36.9988" gradientUnits="userSpaceOnUse">
<stop offset="0.16" stop-color="#6BBF47"/>
<stop offset="0.38" stop-color="#79B461"/>
<stop offset="0.47" stop-color="#75AC64"/>
<stop offset="0.7" stop-color="#659E5A"/>
<stop offset="0.9" stop-color="#3E863D"/>
</linearGradient>
<clipPath id="clip0_3822_6562">
<rect width="57.5396" height="35.24" fill="white" transform="translate(11.1452 22)"/>
</clipPath>
</defs>
</svg>
