<svg width="80" height="80" viewBox="0 0 80 80" fill="none" xmlns="http://www.w3.org/2000/svg">
<g clip-path="url(#clip0_4531_2287)">
<path d="M58 32.2484C58 31.8746 58 31.507 58 31.1332C57.9919 30.3191 57.921 29.5067 57.7882 28.7035C57.6492 27.8992 57.3909 27.1202 57.0219 26.3922C56.6486 25.6628 56.1606 24.9981 55.5765 24.4235C55.0017 23.8446 54.3369 23.3628 53.6078 22.9968C52.882 22.6278 52.105 22.3695 51.3027 22.2305C50.4974 22.0946 49.6833 22.0176 48.8668 22C48.4992 22 48.1254 22 47.7516 22H31.2484H30.1332H29.5102C28.9003 22.0215 28.2925 22.084 27.691 22.1869C27.0896 22.2942 26.5009 22.4633 25.9342 22.6915C25.7473 22.7725 25.5666 22.8597 25.3797 22.9532C24.8363 23.2417 24.33 23.5952 23.872 24.0061C23.7163 24.1431 23.5668 24.2802 23.4235 24.4235C22.8479 25.0011 22.3665 25.6654 21.9968 26.3922C21.6277 27.1202 21.3695 27.8992 21.2305 28.7035C21.0945 29.5067 21.0174 30.3187 21 31.1332C21 31.507 21 31.8746 21 32.2484V48.7516C21 49.1254 21 49.4992 21 49.8668C21.0112 50.6808 21.082 51.4929 21.2118 52.2965C21.3558 53.102 21.6204 53.8813 21.9968 54.6078C22.3649 55.3356 22.8465 56.0001 23.4235 56.5765C24.0009 57.154 24.6652 57.6374 25.3922 58.0094C26.1223 58.3694 26.9009 58.6213 27.7035 58.757C28.5067 58.8899 29.3191 58.9607 30.1332 58.9688H31.2484H47.7516C48.1254 58.9688 48.4992 58.9688 48.8668 58.9688C49.6809 58.9607 50.4933 58.8899 51.2965 58.757C52.1 58.6183 52.8788 58.3622 53.6078 57.997C54.3358 57.6266 55.0003 57.1429 55.5765 56.5641C56.1554 55.9893 56.6372 55.3244 57.0032 54.5954C57.3676 53.8709 57.6217 53.0961 57.757 52.2965C57.8899 51.4933 57.9607 50.6809 57.9688 49.8668C57.9688 49.4992 57.9688 49.1254 57.9688 48.7516V32.2484H58Z" fill="#F05138"/>
<path d="M50.3184 44.8393C50.3558 44.696 50.3994 44.5589 50.4368 44.4156C51.9694 38.2977 48.2251 31.0647 41.883 27.2582C44.674 31.0211 45.92 35.5877 44.7986 39.5811C44.6989 39.9362 44.5806 40.2727 44.456 40.6091C44.3127 40.5156 44.1382 40.4097 43.8953 40.2789C39.1422 37.1551 34.7356 33.5337 30.75 29.4761C33.1426 33.0393 35.8132 36.4077 38.7368 39.55C34.7217 37.0033 30.9249 34.1277 27.3858 30.9526C27.8453 31.7049 28.364 32.4195 28.937 33.0895C31.9461 36.9085 35.8773 41.6246 40.5871 45.2442C37.279 47.269 32.6065 47.4309 27.9465 45.2442C26.8174 44.7075 25.7429 44.0628 24.738 43.3191C26.8222 46.636 29.8634 49.2428 33.46 50.7951C37.8646 52.6641 42.2443 52.5582 45.5088 50.8263H45.5587C45.6957 50.7515 45.8266 50.683 45.9574 50.602C47.5274 49.7921 50.6237 48.9635 52.2809 52.1969C52.636 52.9445 53.4957 48.7517 50.3184 44.8393Z" fill="white"/>
</g>
<defs>
<clipPath id="clip0_4531_2287">
<rect width="37" height="37" fill="white" transform="translate(21 22)"/>
</clipPath>
</defs>
</svg>
